<svg id="Layer_1" data-name="Layer 1" xmlns="http://www.w3.org/2000/svg" viewBox="0 0 2400 3600"><defs><style>.cls-1{fill:#fff;}.cls-2{fill:#2b478b;}.cls-3{fill:#dceaff;}.cls-4{fill:#f1f9ff;}.cls-5{fill:#466fb7;}.cls-6{fill:#a9c2ff;}.cls-7{fill:#a8ccff;}.cls-8{fill:#ff912b;}.cls-9{fill:#25468f;}.cls-10{fill:#1e3865;}.cls-11{fill:#fd801a;}.cls-12{fill:#899bfa;}.cls-13{fill:#667ee8;}.cls-14{fill:#9cafff;}.cls-15{fill:#122d4e;}.cls-16{fill:#afcdfb;}</style></defs><rect class="cls-1" x="196.93" y="50.92" width="2006.14" height="3498.16" rx="185.95"/><path class="cls-2" d="M2017.13,27.58H382.88c-115.4,0-209.29,93.89-209.29,209.29V3363.13c0,115.4,93.89,209.29,209.29,209.29H2017.13c115.39,0,209.28-93.89,209.28-209.29V236.87C2226.41,121.47,2132.52,27.58,2017.13,27.58Zm162.6,3335.55c0,89.66-72.94,162.6-162.6,162.6H382.88c-89.66,0-162.61-72.94-162.61-162.6V236.87c0-89.66,73-162.61,162.61-162.61H2017.13c89.66,0,162.6,73,162.6,162.61Z"/><path class="cls-3" d="M266.62,346h1865a44.62,44.62,0,0,1,44.62,44.62V3332.25a110.57,110.57,0,0,1-110.57,110.57H332.57A110.57,110.57,0,0,1,222,3332.25V390.62A44.62,44.62,0,0,1,266.62,346Z"/><rect class="cls-4" x="305.27" y="429.56" width="1787.7" height="2927.92"/><path class="cls-5" d="M828.5,346V451.49c0,58.26,40.72,105.49,91,105.49H1408c50.23,0,91-47.23,91-105.49V346Z"/><rect class="cls-6" x="512.79" y="2943.04" width="221.18" height="25.94"/><rect class="cls-6" x="785.2" y="2943.04" width="221.18" height="25.94"/><rect class="cls-6" x="512.79" y="3000.6" width="306.75" height="25.94"/><path class="cls-7" d="M1914.16,1434H1590.84V1059.35h323.32Zm-308.09-17.65h292.86V1077H1606.07Z"/><path class="cls-8" d="M1760.53,1358.71c-6.78,0-13.24-3.5-17.6-9.61l-99.77-139.85c-8-11.27-6.68-28,3-37.27s24.12-7.73,32.16,3.53l79.12,110.92L1900.64,1008c6.46-12.56,20.48-16.67,31.31-9.19s14.39,23.73,7.94,36.29l-159.73,310.66c-3.8,7.39-10.47,12.18-17.88,12.84C1761.7,1358.68,1761.11,1358.71,1760.53,1358.71Z"/><rect class="cls-6" x="623.04" y="1114.65" width="718.28" height="36.55"/><rect class="cls-6" x="623.04" y="1277.92" width="661.96" height="36.55"/><rect class="cls-6" x="1145.52" y="1196.28" width="195.8" height="36.56"/><rect class="cls-6" x="623.04" y="1196.28" width="468.22" height="36.56"/><path class="cls-6" d="M462.25,1147.33l-32.14,10.34-6.63-29.55,47.95-17.74h21.93v208.36H462.25Z"/><path class="cls-6" d="M513.9,1305.58c0-7.27,5.09-13.16,11.36-13.16s11.36,5.89,11.36,13.16-5.09,13.16-11.36,13.16S513.9,1312.85,513.9,1305.58Z"/><path class="cls-7" d="M1916.67,1993.7H1593.34V1619h323.33Zm-308.1-17.64h292.87V1636.68H1608.57Z"/><path class="cls-8" d="M1763,1918.39c-6.78,0-13.25-3.49-17.61-9.6l-99.77-139.86c-8-11.27-6.67-28,3-37.27s24.12-7.73,32.16,3.54L1760,1846.12l143.14-278.4c6.46-12.56,20.48-16.67,31.32-9.19s14.39,23.73,7.93,36.29l-159.73,310.65c-3.8,7.4-10.46,12.18-17.87,12.85C1764.2,1918.37,1763.62,1918.39,1763,1918.39Z"/><path class="cls-6" d="M422.1,1850l61-60.16c24.31-23.77,33.18-37,33.18-55.46,0-20.25-12.41-32-28.62-32s-27.35,10.27-41,30.81l-22-20c17-27.58,33.68-43.14,65.34-43.14,34.69,0,58.5,24.65,58.5,61.92,0,32.28-14.94,49.6-46.09,79.53l-36.47,35.21h84.33v31.7H422.1Z"/><path class="cls-6" d="M571.33,1865.36c0-7.22,5-13.07,11.28-13.07s11.27,5.85,11.27,13.07-5,13.07-11.27,13.07S571.33,1872.58,571.33,1865.36Z"/><rect class="cls-6" x="628.99" y="1674.34" width="754.78" height="36.56"/><rect class="cls-6" x="628.99" y="1837.61" width="695.6" height="36.55"/><rect class="cls-6" x="1178.02" y="1755.97" width="205.75" height="36.55"/><rect class="cls-6" x="628.99" y="1755.97" width="492.02" height="36.55"/><path class="cls-7" d="M1916.67,2557.52H1593.34V2182.85h323.33Zm-308.1-17.65h292.87V2200.5H1608.57Z"/><path class="cls-8" d="M1763,2482.21c-6.78,0-13.25-3.5-17.61-9.6l-99.77-139.86c-8-11.27-6.67-27.95,3-37.27s24.12-7.73,32.16,3.54L1760,2409.94l143.14-278.4c6.46-12.56,20.48-16.67,31.32-9.19s14.39,23.72,7.93,36.28l-159.73,310.66c-3.8,7.4-10.46,12.18-17.87,12.84A17.21,17.21,0,0,1,1763,2482.21Z"/><rect class="cls-6" x="628.99" y="2238.15" width="754.78" height="36.55"/><rect class="cls-6" x="628.99" y="2401.42" width="695.6" height="36.56"/><rect class="cls-6" x="1178.02" y="2319.79" width="205.75" height="36.55"/><rect class="cls-6" x="628.99" y="2319.79" width="492.02" height="36.55"/><path class="cls-6" d="M419.85,2405l21.32-23c12.39,16.94,26.26,26.42,45.59,26.42,17.1,0,30-12.06,30-31,0-19.82-15.61-31-39.9-31H462.73l-5-22.11,46.84-57.72H429.52v-30.73H544.26v26.42l-48.33,57.44c27.51,4.59,51.05,21,51.05,57.14,0,37.05-24.78,63.47-60.71,63.47C456,2440.3,434.47,2425.65,419.85,2405Z"/><path class="cls-6" d="M555.72,2427.51c0-7.06,4.94-12.79,11-12.79s11,5.73,11,12.79-4.94,12.79-11,12.79S555.72,2434.57,555.72,2427.51Z"/><path class="cls-6" d="M1526.72,3102.23c-64.86,0-121.36-53.36-134.35-126.89-1-5.89,2.24-11.64,7.32-12.84s10,2.59,11.08,8.48c11.21,63.44,60,109.48,116,109.48,55.42,0,104.09-45.5,115.71-108.19,1.09-5.88,6.09-9.6,11.16-8.35s8.3,7,7.21,12.92C1647.32,3049.5,1590.94,3102.23,1526.72,3102.23Z"/><path class="cls-6" d="M1401.32,2925.91a8.47,8.47,0,0,1-1.79-.2c-5.1-1.14-8.42-6.85-7.44-12.76,12.44-74.47,69.06-128.53,134.63-128.53,63,0,117.69,49.38,133,120.1,1.26,5.83-1.79,11.74-6.82,13.21s-10.13-2.08-11.4-7.91c-13.22-61-60.42-103.63-114.79-103.63-56.59,0-105.45,46.64-116.19,110.9C1409.66,2922.29,1405.73,2925.91,1401.32,2925.91Z"/><path class="cls-6" d="M1526.72,3169.22c-107.49,0-194.94-101.34-194.94-225.9s87.45-225.89,194.94-225.89,194.94,101.34,194.94,225.89S1634.21,3169.22,1526.72,3169.22Zm0-420.85c-92.77,0-168.24,87.46-168.24,195s75.47,195,168.24,195,168.24-87.46,168.24-195S1619.48,2748.37,1526.72,2748.37Z"/><rect class="cls-6" x="1488.11" y="2915.03" width="77.21" height="14.32"/><rect class="cls-6" x="1488.11" y="2973.63" width="77.21" height="14.32"/><rect class="cls-6" x="1469.9" y="2943.32" width="113.65" height="14.32"/><path class="cls-9" d="M338,3399.48a112.27,112.27,0,0,0,.68,12.65,115.54,115.54,0,0,0,10.18,37,104.43,104.43,0,0,0,15.36,23.75c16.23,18.78,38.6,30.39,63.34,30.39H1687.26c49.46,0,89.59-46.47,89.59-103.79,0-28.68-10-54.62-26.25-73.4s-38.6-30.42-63.34-30.42H427.54C378.08,3295.66,338,3342.13,338,3399.48Z"/><path class="cls-9" d="M434.06,3276.88H866c7.56,0,13.75-7.17,13.75-15.93h0c0-8.76-6.19-15.93-13.75-15.93H434.06c-7.56,0-13.75,7.17-13.75,15.93h0C420.31,3269.71,426.5,3276.88,434.06,3276.88Z"/><rect class="cls-10" x="457.92" y="3276.88" width="46.82" height="18.79" transform="translate(962.65 6572.56) rotate(180)"/><path class="cls-10" d="M348.84,3449.13a104.43,104.43,0,0,0,15.36,23.75c16.23,18.78,38.6,30.39,63.34,30.39H694.38v-54.14Z"/><path class="cls-8" d="M1943.59,3369.06v60.81a84.85,84.85,0,0,1-2.21,19.26c-7.28,31.2-31.88,54.14-61.11,54.14H568.06c-29.23,0-53.83-22.94-61.11-54.14a84.85,84.85,0,0,1-2.21-19.26v-60.81c0-40.54,28.34-73.4,63.32-73.4H1880.27C1915.26,3295.66,1943.59,3328.52,1943.59,3369.06Z"/><path class="cls-11" d="M1941.38,3449.13c-7.28,31.2-31.88,54.14-61.11,54.14H568.06c-29.23,0-53.83-22.94-61.11-54.14Z"/><path class="cls-12" d="M1813.26,3399.84c0,32.25,10.12,61.06,26.06,80.15.36.42.7.85,1.07,1.27,12.32,14.22,27.94,22.74,44.95,22.74,26.56,0,92.4-46.44,133.21-77.28,20.33-15.38,34.45-26.88,34.45-26.88s-14.12-11.49-34.45-26.87c-40.81-30.87-106.65-77.31-133.21-77.31a52.33,52.33,0,0,0-22,5c-11.72,5.45-22.15,15.12-30.38,27.78-9.07,13.88-15.52,31.37-18.24,50.79,0,.23-.07.45-.07.68A147.66,147.66,0,0,0,1813.26,3399.84Z"/><path class="cls-13" d="M1813.26,3399.84c0,32.25,10.12,61.06,26.06,80.15l202-80.51-226.68-19.62A147.66,147.66,0,0,0,1813.26,3399.84Z"/><path class="cls-14" d="M1832.91,3328.39l201.48,63.75-171.1-91.53C1851.57,3306.06,1841.14,3315.73,1832.91,3328.39Z"/><path class="cls-15" d="M2005.4,3399.84c0,12.4,5.48,23,13.15,26.88,20.33-15.38,34.45-26.88,34.45-26.88s-14.12-11.49-34.45-26.87C2010.88,3376.85,2005.4,3387.42,2005.4,3399.84Z"/><path class="cls-16" d="M377.6,80.09H2022.52a157.62,157.62,0,0,1,157.62,157.62V339.26a0,0,0,0,1,0,0H221.58a0,0,0,0,1,0,0V236.11A156,156,0,0,1,377.6,80.09Z"/><path class="cls-1" d="M469.28,263.1l-24,17.2-24.09-17a29.5,29.5,0,0,1,48-.19Z"/><path class="cls-1" d="M445.32,208.91A71.2,71.2,0,0,0,387,239.2l15.21,10.68a52.67,52.67,0,0,1,85.92-.31l15.14-10.86A71.26,71.26,0,0,0,445.32,208.91Z"/><path class="cls-1" d="M445.32,129.26A150.67,150.67,0,0,0,322,193.33L337.18,204a132.27,132.27,0,0,1,215.73-.8L568,192.33A150.7,150.7,0,0,0,445.32,129.26Z"/><path class="cls-1" d="M445.32,172.84a107.82,107.82,0,0,0-88,45.44L372.56,229a89.37,89.37,0,0,1,145.15-.56l15.08-10.8A107.77,107.77,0,0,0,445.32,172.84Z"/></svg>