<svg id="Layer_1" data-name="Layer 1" xmlns="http://www.w3.org/2000/svg" viewBox="0 0 2400 3600"><defs><style>.cls-1{fill:#eef6ff;}.cls-2{fill:#dfebfa;}.cls-3{fill:#afcdfb;}.cls-4{fill:#fff;}.cls-5{fill:#2b478b;}.cls-6{fill:#dceaff;}.cls-7{fill:#f99746;}.cls-8{fill:#ed7d2b;}.cls-9{fill:#233862;}</style></defs><rect class="cls-1" x="318.61" y="384.21" width="431.47" height="127.04"/><rect class="cls-1" x="318.61" y="579.76" width="431.47" height="127.04"/><rect class="cls-1" x="318.61" y="779.38" width="431.47" height="127.04"/><rect class="cls-1" x="318.61" y="982.19" width="431.47" height="127.04"/><rect class="cls-1" x="318.61" y="1177.87" width="431.47" height="127.04"/><rect class="cls-2" x="2134.73" y="782.06" width="10.7" height="157.42"/><rect class="cls-2" x="207.71" y="328.08" width="6.94" height="56.13"/><rect class="cls-2" x="354.77" y="328.08" width="6.94" height="56.13"/><rect class="cls-2" x="691.89" y="328.08" width="6.94" height="56.13"/><rect class="cls-2" x="560.09" y="328.08" width="6.94" height="56.13"/><path class="cls-3" d="M321.18,2481.57c60.08-34.44-29.88-64.9-151.53-52.28"/><rect class="cls-4" x="208.73" y="51.34" width="2006.14" height="3498.16" rx="185.95"/><path class="cls-5" d="M2028.93,3572.83H394.68c-115.4,0-209.29-93.88-209.29-209.29V237.29C185.39,121.89,279.28,28,394.68,28H2028.93c115.39,0,209.28,93.89,209.28,209.29V3363.54C2238.21,3479,2144.32,3572.83,2028.93,3572.83ZM394.68,74.68c-89.66,0-162.61,72.95-162.61,162.61V3363.54c0,89.67,72.95,162.61,162.61,162.61H2028.93c89.66,0,162.6-72.94,162.6-162.61V237.29c0-89.66-72.94-162.61-162.6-162.61Z"/><rect class="cls-6" x="301.8" y="451.08" width="671.2" height="284.87"/><rect class="cls-6" x="301.8" y="829.68" width="671.2" height="284.87"/><rect class="cls-6" x="1136.74" y="447.22" width="306.39" height="671.2"/><circle class="cls-6" cx="906.6" cy="2063.13" r="319.16" transform="translate(-1193.32 1245.34) rotate(-45)"/><rect class="cls-6" x="301.8" y="2063.13" width="1828.46" height="49.56"/><rect class="cls-6" x="301.8" y="1193.15" width="1778.9" height="49.56"/><rect class="cls-6" x="899.6" y="1240.55" width="49.56" height="1694.73"/><rect class="cls-6" x="2080.71" y="416.6" width="49.56" height="1694.73"/><rect class="cls-6" x="1521.35" y="451.09" width="49.56" height="2484.19"/><circle class="cls-4" cx="906.6" cy="2063.13" r="214.94" transform="translate(-1193.32 1245.34) rotate(-45)"/><rect class="cls-6" x="1014.16" y="1303.38" width="245.15" height="380.7"/><rect class="cls-6" x="301.8" y="1589.88" width="238.95" height="273.56"/><rect class="cls-6" x="301.8" y="1303.38" width="480.84" height="238.95"/><rect class="cls-6" x="1300.7" y="1303.38" width="171.47" height="236.65"/><rect class="cls-6" x="1300.7" y="1589.88" width="171.47" height="395.46"/><rect class="cls-6" x="1300.7" y="2159.62" width="171.47" height="234.14"/><rect class="cls-6" x="1681.05" y="1303.38" width="138.35" height="681.96"/><rect class="cls-6" x="1864.32" y="1303.38" width="171.47" height="681.96"/><rect class="cls-6" x="1777.97" y="441.84" width="244.04" height="681.96"/><rect class="cls-6" x="1654.79" y="2184.56" width="475.47" height="750.72"/><rect class="cls-6" x="998.95" y="2651.35" width="473.22" height="283.93"/><rect class="cls-6" x="998.95" y="2447.31" width="473.22" height="150.49"/><rect class="cls-6" x="301.8" y="2447.31" width="425.06" height="487.96"/><rect class="cls-6" x="301.8" y="2139.22" width="178.96" height="262.95"/><path class="cls-7" d="M1895,3341.22c-107.7,0-206-57.23-260.5-148.18-73.27-122.19-208.83-204.22-364-204.22H301.8v362.11c0,61.66,51,111.64,114,111.64H2038.07c50.92,0,92.2-40.42,92.2-90.29v-31.06Z"/><path class="cls-7" d="M1766.79,3143.32a129.91,129.91,0,1,1,129.91,129.91h0a129.9,129.9,0,0,1-129.9-129.9Z"/><polygon class="cls-4" points="1820.16 3149.3 1945.54 3086.62 1906.92 3224.81 1876.05 3171.98 1820.16 3149.3"/><rect class="cls-4" x="690.69" y="3253.89" width="710.93" height="30.38"/><rect class="cls-8" x="366.65" y="3253.89" width="324.04" height="30.38"/><polygon class="cls-9" points="636.39 3164.49 879.01 3271.32 631.23 3381.96 670.86 3273.23 636.39 3164.49"/><path class="cls-4" d="M1445.08,3269.08a50.53,50.53,0,1,1,50.53,50.53h0a50.52,50.52,0,0,1-50.52-50.52Z"/><path class="cls-3" d="M388.67,76H2033.59a157.62,157.62,0,0,1,157.62,157.62h0V335.17H232.65V232a156,156,0,0,1,156-156Z"/><path class="cls-7" d="M1553.25,778.32c-88.93,0-161,75.63-161,168.91s161,276.79,161,276.79,161-183.5,161-276.79S1642.18,778.32,1553.25,778.32Zm0,237.87a81.08,81.08,0,1,1,81.08-81.08h0A81.08,81.08,0,0,1,1553.25,1016.19Z"/><path class="cls-7" d="M232.07,2078.22H614.53c1.26-43.09,12.22-152.07,87.28-228.43,53.73-54.64,128.79-80.83,223.12-77.92,147.79,4.59,215.77,93.35,246.76,167,23.76,56.46,29.64,111.8,31,139.34h333V1375.94h35v737.29h-403l.41-17.91c0-.7,1.16-72.55-29.11-143.82-39.4-92.76-111.8-141.43-215.18-144.64-84-2.63-150.31,20-196.9,67.31-82.69,83.94-77.48,219.37-77.41,220.73l.84,18.31H232"/><path class="cls-4" d="M1480.39,1336.82a72.86,72.86,0,1,1,72.87,72.85h0A72.86,72.86,0,0,1,1480.39,1336.82Z"/><path class="cls-7" d="M1553.25,1423.29a86.47,86.47,0,1,1,86.47-86.47h0A86.58,86.58,0,0,1,1553.25,1423.29Zm0-145.71a59.24,59.24,0,1,0,59.24,59.24h0a59.3,59.3,0,0,0-59.24-59.24Z"/><path class="cls-4" d="M563.6,2087.91a72.86,72.86,0,1,1,72.86,72.86h0A72.86,72.86,0,0,1,563.6,2087.91Z"/><path class="cls-7" d="M636.45,2174.38a86.47,86.47,0,1,1,86.47-86.47A86.46,86.46,0,0,1,636.45,2174.38Zm0-145.71a59.24,59.24,0,1,0,59.24,59.24h0a59.31,59.31,0,0,0-59.24-59.24Z"/><path class="cls-4" d="M505.07,263.91l-24,17.19L457,264.1a29.49,29.49,0,0,1,48.05-.18Z"/><path class="cls-4" d="M481.1,209.71A71.18,71.18,0,0,0,422.81,240L438,250.68a52.67,52.67,0,0,1,85.92-.31l15.15-10.86A71.3,71.3,0,0,0,481.1,209.71Z"/><path class="cls-4" d="M481.1,130.06a150.66,150.66,0,0,0-123.35,64.07L373,204.81A132.26,132.26,0,0,1,588.69,204l15.08-10.87A150.7,150.7,0,0,0,481.1,130.06Z"/><path class="cls-4" d="M481.1,173.64a107.81,107.81,0,0,0-88,45.44l15.21,10.68a89.38,89.38,0,0,1,145.14-.56l15.09-10.8A107.77,107.77,0,0,0,481.1,173.64Z"/><path class="cls-4" d="M1465.73,941.56a87.52,87.52,0,1,1,87.52,87.52h0A87.51,87.51,0,0,1,1465.73,941.56Z"/></svg>