<svg id="Layer_1" data-name="Layer 1" xmlns="http://www.w3.org/2000/svg" viewBox="0 0 1200 1440"><defs><style>.cls-1{fill:#368ead;}.cls-2{fill:none;stroke:#f9f9f9;stroke-miterlimit:10;stroke-width:60px;}.cls-3{fill:#fff;fill-rule:evenodd;}</style></defs><path class="cls-1" d="M600,9C311.11,9,76.09,244,76.09,532.91c0,350.07,449.59,854.19,468.7,875.44A74.13,74.13,0,0,0,600,1433h0a74.35,74.35,0,0,0,55.25-24.64c19.13-21.33,468.67-526.52,468.67-875.45C1123.91,244,888.89,9,600,9Zm0-1C311.11,8,76.09,243,76.09,531.91c0,350.07,449.59,854.19,468.7,875.44A74.13,74.13,0,0,0,600,1432h0a74.35,74.35,0,0,0,55.25-24.64c19.13-21.33,468.67-526.52,468.67-875.45C1123.91,243,888.89,8,600,8Zm11,1359.69a14.86,14.86,0,0,1-21,1.08,13.76,13.76,0,0,1-1.08-1.08c-4.53-5-453.51-508.25-453.51-835.78C135.49,275.77,343.86,67.4,600,67.4s464.51,208.39,464.51,464.51c0,326.44-435,815.16-453.46,835.78Z"/><circle class="cls-2" cx="599.72" cy="527.21" r="400.28"/><path class="cls-3" d="M408.9,593.62a66.41,66.41,0,1,1,66.35-66.47v.06A66.41,66.41,0,0,1,408.9,593.62Zm381.7,0A66.41,66.41,0,1,1,857,527.21h0a66.36,66.36,0,0,1-66.29,66.41Zm-190.85,0a66.41,66.41,0,1,1,66.41-66.41h0A66.41,66.41,0,0,1,599.75,593.62Z"/></svg>