<svg id="Layer_1" data-name="Layer 1" xmlns="http://www.w3.org/2000/svg" viewBox="0 0 1200 1440"><defs><style>.cls-1{fill:#368ead;}.cls-2{fill:none;stroke:#f9f9f9;stroke-miterlimit:10;stroke-width:60px;}.cls-3{fill:#fff;}</style></defs><path class="cls-1" d="M600,9C311.11,9,76.09,244,76.09,532.91c0,350.07,449.59,854.19,468.7,875.44A74.13,74.13,0,0,0,600,1433h0a74.35,74.35,0,0,0,55.25-24.64c19.13-21.33,468.67-526.52,468.67-875.45C1123.91,244,888.89,9,600,9Zm0-1C311.11,8,76.09,243,76.09,531.91c0,350.07,449.59,854.19,468.7,875.44A74.13,74.13,0,0,0,600,1432h0a74.35,74.35,0,0,0,55.25-24.64c19.13-21.33,468.67-526.52,468.67-875.45C1123.91,243,888.89,8,600,8Zm11,1359.69a14.86,14.86,0,0,1-21,1.08,13.76,13.76,0,0,1-1.08-1.08c-4.53-5-453.51-508.25-453.51-835.78C135.49,275.77,343.86,67.4,600,67.4s464.51,208.39,464.51,464.51c0,326.44-435,815.16-453.46,835.78Z"/><circle class="cls-2" cx="599.72" cy="527.21" r="400.28"/><path class="cls-3" d="M654.64,501.75c64.61-58.27,129.5-176.24,129.5-176.24s-54-16.93-69.47-32.17c-22.6-21.65-31.84-69.74-31.84-69.74C615,258.88,563.45,365.78,546.52,447.86a63.32,63.32,0,0,0-5.19,80.93l11.06,169.43a50,50,0,0,0-10.66,31.23,51.88,51.88,0,0,0,.95,9.71C509,768.23,412.85,752.65,416,821.85c0,6.27,53.42,9,110.27,9,65.42,0,135.64-3.51,135.64-9.24,0-41.55-5.2-25.29-19-92.13a50.25,50.25,0,0,0-10.45-30.76l12.21-171.58A62.56,62.56,0,0,0,654.64,501.75ZM592.32,704.09a18.91,18.91,0,1,1-.07-.14h.07Zm0-25.23a50.26,50.26,0,0,0-15.72,2.43L568,549.77a63,63,0,0,0,49.64-.47l-9.38,132a50.15,50.15,0,0,0-16-2.56Zm0-149.39a37.84,37.84,0,1,0,0-.14Zm76.15-265a130.58,130.58,0,0,0,28.32,47.22c5.8,5.59,17.2,14.5,49.1,27l1.08.4c-8.16,13.49-19.22,31.29-32,50.11a612,612,0,0,1-63.34,80.33,63.26,63.26,0,0,0-59.28-41.28,64.81,64.81,0,0,0-15.51,1.89,448.05,448.05,0,0,1,33.72-86.94A280.17,280.17,0,0,1,668.47,264.47ZM606.75,803.64c-23.54,1.14-52.13,1.82-80.39,1.82-37.57,0-63.94-1.15-80.06-2.5a27.35,27.35,0,0,1,5.87-4.79c10.72-6.74,27.78-10.79,44.38-14.7A257.56,257.56,0,0,0,537,771.73a89.09,89.09,0,0,0,17.34-9.44,50.53,50.53,0,0,0,71.23,5.52l.6-.53c2.63,9.85,4.79,16.46,6.74,21.65a67.19,67.19,0,0,1,3.37,12.68C628.94,802.09,619.63,802.83,606.75,803.64Z"/></svg>