<svg id="Layer_1" data-name="Layer 1" xmlns="http://www.w3.org/2000/svg" viewBox="0 0 1200 1440"><defs><style>.cls-1{fill:#368ead;}.cls-2{fill:none;stroke:#f9f9f9;stroke-miterlimit:10;stroke-width:60px;}.cls-3{fill:#fcfcfc;}</style></defs><path class="cls-1" d="M600,9C311.11,9,76.09,244,76.09,532.91c0,350.07,449.59,854.19,468.7,875.44A74.13,74.13,0,0,0,600,1433h0a74.36,74.36,0,0,0,55.25-24.64c19.13-21.33,468.67-526.52,468.67-875.45C1123.91,244,888.89,9,600,9Zm0-1C311.11,8,76.09,243,76.09,531.91c0,350.07,449.59,854.19,468.7,875.44A74.13,74.13,0,0,0,600,1432h0a74.36,74.36,0,0,0,55.25-24.64c19.13-21.33,468.67-526.52,468.67-875.45C1123.91,243,888.89,8,600,8Zm11,1359.69a14.86,14.86,0,0,1-22.07,0c-4.53-5-453.51-508.25-453.51-835.78C135.49,275.77,343.86,67.4,600,67.4s464.51,208.39,464.51,464.51C1064.51,858.35,629.54,1347.07,611.05,1367.69Z"/><circle class="cls-2" cx="599.72" cy="527.21" r="400.28"/><path class="cls-3" d="M498.1,361.52h-5.5A53.88,53.88,0,0,0,439,415.71h0v12.35a55.12,55.12,0,0,0,2.21,15.74l17.3,58.28a31.46,31.46,0,0,0,61-9.05v-6.45a37.83,37.83,0,0,1,10.93-26.82l5.51-5.58a54.27,54.27,0,0,0-37.84-92.66Zm26.51,81L519,448.12a54.26,54.26,0,0,0-15.73,38.31v6.45a15.19,15.19,0,0,1-15,15.18,15,15,0,0,1-14.39-10.86l-17.31-58.28A39.88,39.88,0,0,1,455,428.06V415.32a37.76,37.76,0,0,1,37.44-38.07h5.66A38.07,38.07,0,0,1,524.61,442Z"/><path class="cls-3" d="M495.35,410a24.46,24.46,0,0,0,0,48.85V442.54a7.87,7.87,0,1,1,7.87-7.87H519A24.32,24.32,0,0,0,495.35,410Z"/><path class="cls-3" d="M599.89,540.23V344.85a16.22,16.22,0,0,0-15.74-16.29H406.86a16.22,16.22,0,0,0-15.73,16.29V540.23a16.21,16.21,0,0,0,15.73,16.28h177A16.21,16.21,0,0,0,599.89,540.23Zm-193,0V344.85h177V540.23Z"/><path class="cls-3" d="M632.14,548.33V336.74A40.59,40.59,0,0,0,591.86,296H398.76a40.5,40.5,0,0,0-40.19,40.74V548.33a40.5,40.5,0,0,0,40.19,40.74h46.72l-31,172.18,19.59,39.33H556.63l19.5-39.33L545.22,589.07h46.64A40.59,40.59,0,0,0,632.14,548.33Zm-257.53,0V336.74a24.39,24.39,0,0,1,24.15-24.46h193.1A24.39,24.39,0,0,1,616,336.74V548.33a24.3,24.3,0,0,1-24.15,24.46H398.76a24.32,24.32,0,0,1-24.15-24.46ZM444,784.3,436.12,768H554.74l-7.87,16.28Zm113.89-32.41H432l29.26-162.82h67Z"/><path class="cls-3" d="M527.52,735.61V654.2h-64v81.41Zm-48.29-65.13H511.4v48.85H479.23Z"/><rect class="cls-3" x="503.37" y="621.64" width="16.12" height="16.28"/><rect class="cls-3" x="471.2" y="621.64" width="16.12" height="16.28"/><path class="cls-3" d="M857.41,337.92l-80.47-15.73v-1.41a24.39,24.39,0,0,0-24.15-24.47H672.33a24.39,24.39,0,0,0-24.15,24.47V467a24.39,24.39,0,0,0,15.73,22.89V605.35h-7.86a24.24,24.24,0,0,0-24.15,24.31V662.3a24.3,24.3,0,0,0,24.15,24.46h7.86v2.29l-10.85,3.61a55.54,55.54,0,0,0,17.38,108.08h3a55.06,55.06,0,0,0,55.06-55.06V489.89A24.38,24.38,0,0,0,744.61,467V410h7.87a24.31,24.31,0,0,0,24.15-24.38v-1.5l80.78-16.28Zm-193.1-17.46a7.86,7.86,0,0,1,7.86-7.86H680V475.41h-7.87a7.86,7.86,0,0,1-7.86-7.86Zm-7.87,350a7.87,7.87,0,0,1-7.87-7.86V629.74a7.87,7.87,0,0,1,7.87-7.87h7.87v48.85Zm17.54,114h-3a39.33,39.33,0,0,1-12.27-76.38l21.79-7.32V491.38h32.25v253.9a39.34,39.34,0,0,1-38.94,39.18ZM729,467a7.86,7.86,0,0,1-7.87,7.86H696.48V312.28h24.14a7.87,7.87,0,0,1,7.87,7.87Zm31.78-81.41a7.87,7.87,0,0,1-7.87,7.87h-7.86v-73a25.7,25.7,0,0,0-1.5-7.86h9.52a7.86,7.86,0,0,1,7.86,7.86Zm80.23-31.15L776.71,367.5v-29l64.34,13.06Z"/><path class="cls-3" d="M672.33,719.33a24.46,24.46,0,1,0,24.14,24.77c0-.13,0-.26,0-.39A24.31,24.31,0,0,0,672.33,719.33Zm0,32.56a7.87,7.87,0,1,1,7.86-7.86A7.86,7.86,0,0,1,672.33,751.89Z"/></svg>