<svg id="Layer_1" data-name="Layer 1" xmlns="http://www.w3.org/2000/svg" viewBox="0 0 1200 1440"><defs><style>.cls-1{fill:#368ead;}.cls-2{fill:none;stroke:#f9f9f9;stroke-miterlimit:10;stroke-width:60px;}.cls-3{fill:#fff;}</style></defs><path class="cls-1" d="M600,9C311.11,9,76.09,244,76.09,532.91c0,350.07,449.59,854.19,468.7,875.44A74.13,74.13,0,0,0,600,1433h0a74.36,74.36,0,0,0,55.25-24.64c19.13-21.33,468.67-526.52,468.67-875.45C1123.91,244,888.89,9,600,9Zm0-1C311.11,8,76.09,243,76.09,531.91c0,350.07,449.59,854.19,468.7,875.44A74.13,74.13,0,0,0,600,1432h0a74.36,74.36,0,0,0,55.25-24.64c19.13-21.33,468.67-526.52,468.67-875.45C1123.91,243,888.89,8,600,8Zm11,1359.69a14.86,14.86,0,0,1-22.07,0c-4.53-5-453.51-508.25-453.51-835.78C135.49,275.77,343.86,67.4,600,67.4s464.51,208.39,464.51,464.51C1064.51,858.35,629.54,1347.07,611.05,1367.69Z"/><circle class="cls-2" cx="599.72" cy="527.21" r="400.28"/><path class="cls-3" d="M330.76,678.9a30.91,30.91,0,0,0,31.18,30.62H401a84.78,84.78,0,0,0,162.14,0h78.16a83.43,83.43,0,0,0,81.11,60,84.27,84.27,0,0,0,81-60h39a31,31,0,0,0,31.25-30.69V540.91A53.57,53.57,0,0,0,865,511.83L773.18,369.21a33.92,33.92,0,0,0-28.52-15.38H362c-20.5,0-31.25,16.36-31.25,36.59Zm356.53,7a34.49,34.49,0,1,1,0,.28Zm-19.8-274.09h0a7.72,7.72,0,0,1,7.79-7.51h58.78a7.71,7.71,0,0,1,6.53,3.51l65,100.63a7.91,7.91,0,0,1,1.19,4.15,7.65,7.65,0,0,1-7.72,7.58H675.28a7.65,7.65,0,0,1-7.79-7.51V411.83ZM447.12,686.2a35.13,35.13,0,0,1,35.12-34.41,34.41,34.41,0,1,1-35.12,34.41Zm-28.51-199a11.8,11.8,0,0,1,11.87-11.73h36.59v-36A11.79,11.79,0,0,1,479,427.78h21.07a11.79,11.79,0,0,1,11.8,11.65V475.6h36.59a11.8,11.8,0,0,1,11.87,11.73h0V508h0a11.8,11.8,0,0,1-11.87,11.73H511.8v36.09a11.8,11.8,0,0,1-11.87,11.73H478.87A11.8,11.8,0,0,1,467,555.79h0V519.56H430.48a11.8,11.8,0,0,1-11.87-11.73h0Z"/><path class="cls-3" d="M623.39,242.8a50.28,50.28,0,0,0-50.63,49.93h0v22H674v-22a50.22,50.22,0,0,0-50.49-49.93Z"/></svg>