<svg id="Layer_1" data-name="Layer 1" xmlns="http://www.w3.org/2000/svg" viewBox="0 0 1200 1440"><defs><style>.cls-1,.cls-4{fill:#368ead;}.cls-2{fill:none;stroke:#f9f9f9;stroke-width:60px;}.cls-2,.cls-3,.cls-4{stroke-miterlimit:10;}.cls-3{fill:#fff;stroke:#fff;stroke-width:4px;}.cls-4{stroke:#368ead;stroke-width:18px;}</style></defs><path class="cls-1" d="M600,9C311.11,9,76.09,244,76.09,532.91c0,350.07,449.59,854.19,468.7,875.44A74.13,74.13,0,0,0,600,1433h0a74.36,74.36,0,0,0,55.25-24.64c19.13-21.33,468.67-526.52,468.67-875.45C1123.91,244,888.89,9,600,9Zm0-1C311.11,8,76.09,243,76.09,531.91c0,350.07,449.59,854.19,468.7,875.44A74.13,74.13,0,0,0,600,1432h0a74.36,74.36,0,0,0,55.25-24.64c19.13-21.33,468.67-526.52,468.67-875.45C1123.91,243,888.89,8,600,8Zm11,1359.69a14.86,14.86,0,0,1-22.07,0c-4.53-5-453.51-508.25-453.51-835.78C135.49,275.77,343.86,67.4,600,67.4s464.51,208.39,464.51,464.51C1064.51,858.35,629.54,1347.07,611.05,1367.69Z"/><circle class="cls-2" cx="599.72" cy="527.21" r="400.28"/><path class="cls-3" d="M802.76,720.24H397a8.45,8.45,0,0,1-8.45-8.45h0v-275a14.87,14.87,0,0,1,6.21-10.25L597.47,265c16.15,11.49,213.8,167.09,213.73,171.75v275a8.44,8.44,0,0,1-8.44,8.45Z"/><line class="cls-4" x1="599.86" y1="446.93" x2="599.86" y2="627.07"/><line class="cls-4" x1="509.79" y1="537" x2="689.92" y2="537"/></svg>