<svg id="Layer_1" data-name="Layer 1" xmlns="http://www.w3.org/2000/svg" viewBox="0 0 1200 1440"><defs><style>.cls-1{fill:#368ead;}.cls-2{fill:none;stroke:#f9f9f9;stroke-miterlimit:10;stroke-width:60px;}.cls-3{fill:#fff;}</style></defs><path class="cls-1" d="M600,9C311.11,9,76.09,244,76.09,532.91c0,350.07,449.59,854.19,468.7,875.44A74.13,74.13,0,0,0,600,1433h0a74.35,74.35,0,0,0,55.25-24.64c19.13-21.33,468.67-526.52,468.67-875.45C1123.91,244,888.89,9,600,9Zm0-1C311.11,8,76.09,243,76.09,531.91c0,350.07,449.59,854.19,468.7,875.44A74.13,74.13,0,0,0,600,1432h0a74.35,74.35,0,0,0,55.25-24.64c19.13-21.33,468.67-526.52,468.67-875.45C1123.91,243,888.89,8,600,8Zm11,1359.69a14.86,14.86,0,0,1-21,1.08,13.76,13.76,0,0,1-1.08-1.08c-4.53-5-453.51-508.25-453.51-835.78C135.49,275.77,343.86,67.4,600,67.4s464.51,208.39,464.51,464.51c0,326.44-435,815.16-453.46,835.78Z"/><circle class="cls-2" cx="599.72" cy="527.21" r="400.28"/><path class="cls-3" d="M663.77,660.2H689.7v27.08a13,13,0,1,0,25.92,1.87,11.68,11.68,0,0,0,0-1.87V660.2H742.7a13,13,0,0,0,1.87-25.93,14.59,14.59,0,0,0-1.87,0H715.42V607.2a13.54,13.54,0,0,0-12.93-13,14.14,14.14,0,0,0-12.79,14.15v27.07H662.62a12.52,12.52,0,1,0-1.38,25,12.72,12.72,0,0,0,2.39-.09Z"/><path class="cls-3" d="M573.94,744.41H830.5a30.05,30.05,0,0,0,30-30v-138h30.93a13,13,0,0,0,0-25.92H514.1a13,13,0,1,0-1.88,25.92,11.8,11.8,0,0,0,1.88,0H545v137.7a28.56,28.56,0,0,0,26.75,30.27C572.5,744.41,573.22,744.42,573.94,744.41Zm261.43-30a4.66,4.66,0,0,1-4.3,5,4.21,4.21,0,0,1-.71,0H573.94a4.73,4.73,0,0,1-5-4.45,5.23,5.23,0,0,1,0-.56v-138H835.37Z"/><path class="cls-3" d="M657.74,448.65a55.48,55.48,0,0,0-19,21,44,44,0,0,0-3,24.91V517.5a12.33,12.33,0,0,0,12.64,12l.36,0h0a12.4,12.4,0,0,0,12-12.77.92.92,0,0,1,0-.16v-24a59.87,59.87,0,0,1,1-13.95,45.5,45.5,0,0,1,12-11.78l9-6,13.95-8a22.36,22.36,0,0,0,6.77-4s1,0,1-.95l9,8.94c6.77,6,12.93,12,20.3,18l15,13.95,7.86-8.4c9.95-9,18.95-17,27.89-25.92a49.22,49.22,0,0,0,6.77-6.77l.94.94c2,1,5,2,6.77,3.05l3,.95c3,1,4.94,3,6,3l8,5c2,1,4,3,6,4a32.05,32.05,0,0,1,11.92,11,56.3,56.3,0,0,1,1,14v22.95a13.07,13.07,0,0,0,12,12.93h0a13.88,13.88,0,0,0,13-12V491.57a55.35,55.35,0,0,0-2.23-24.71,54.11,54.11,0,0,0-19-21,56.6,56.6,0,0,0-8.12-5.21l-8.94-4.94c-2-1-5-3.05-6.77-4l-3-1c-3-1-4.94-3-8-4l-1-1c-4-2-16-8-25,2l-2,2-8.33,8c-6,6-13,12-18.95,17.94-6-4.94-12-11-18-16.93a63.2,63.2,0,0,0-8.93-8l-3-3a16.31,16.31,0,0,0-19-4c-2,.95-4.95,2-6.77,3a48.83,48.83,0,0,1-8,4l-16.18,9.95C664.72,443.71,661.74,445.68,657.74,448.65Z"/><path class="cls-3" d="M780.47,378.86l-.94,5a13.06,13.06,0,0,0,8,16c1,0,2,1,4,1a13.88,13.88,0,0,0,11.91-9.07l2-5c1-4,3-8,4-12.93a108.4,108.4,0,0,0,3-34.93c-3-30.93-24-52.87-54.16-54.9h-6c-22,0-37.91,5-48.94,15a65.79,65.79,0,0,0-19,42.92,121.92,121.92,0,0,0,9,49.89,13.12,13.12,0,0,0,10,8,12.46,12.46,0,0,0,14-10.72l0-.25a14.53,14.53,0,0,0-1-6.77,87,87,0,0,1-6.77-38.92,42.05,42.05,0,0,1,11-26c6-5.95,17-7.92,30.94-7.92h5a34.38,34.38,0,0,1,31.88,32.9,60.86,60.86,0,0,1-3,25.93C783.52,370.81,782.5,374.8,780.47,378.86Z"/><path class="cls-3" d="M358.4,414.74a50,50,0,0,0,49.89-49.89A50.7,50.7,0,0,0,358.4,315a49.89,49.89,0,0,0,0,99.78Zm0-75.82A25,25,0,1,1,333.49,364v-.14A24.7,24.7,0,0,1,358,338.92Z"/><path class="cls-3" d="M481.13,667.24c-6,24.91-12.93,49.89-19,75.82a11.86,11.86,0,0,0,8.1,14.67c.3.08.6.16.91.22h3a12.05,12.05,0,0,0,12-9c5.89-24.85,12.66-49.83,18.95-75.75l2-6c5-18,11-39.94-.95-58.89a32.85,32.85,0,0,0-29-15c-4,0-46.91-4-62.82-6-6-1-11-1-17-2a12.54,12.54,0,0,0-3,24.91h0c5,1,11,1,16,2,16.92,2,59.84,6,64.85,6,6.77,0,8.94,2,8.94,2,6,11,2,25.93-2,40.62C482.14,662.23,481.13,665.21,481.13,667.24Z"/><path class="cls-3" d="M296.52,492.59a262,262,0,0,0,14,84.82c3,11,6,23,9,34.93,8,27.08,21.94,44.88,41.91,51.85a119,119,0,0,0,37,6c11,0,21.93-1,32.9-2l-3-24.91c-20,2-41.9,4-58.9-2-12-5-20.91-16-27.07-35.88-3-11-6-23-8.94-33.85a293.06,293.06,0,0,1-12.86-77.58c0-16,3-22,9.95-26a23.2,23.2,0,0,1,24,4,29.63,29.63,0,0,1,10,12c1,2,1,3,2,5,1,4,3,8,4,12a9,9,0,0,0,1,5c.94,11,2,27.08,16.92,34.87h1c6.77,4,58.9,30.93,58.9,30.93a12.64,12.64,0,1,0,12-22.27c-43.93-23-55.92-29.92-59.91-30.93h0c-3-1-4-10-4-15a19.2,19.2,0,0,0-1-6.77,83.36,83.36,0,0,0-4.8-17.2,40,40,0,0,1-3-6.77,71.74,71.74,0,0,0-18-20.92,48.56,48.56,0,0,0-48.88-6C296.52,456.64,296.52,479.59,296.52,492.59Z"/></svg>