<svg id="Layer_1" data-name="Layer 1" xmlns="http://www.w3.org/2000/svg" viewBox="0 0 1200 1440"><defs><style>.cls-1{fill:#368ead;}.cls-2{fill:none;stroke:#f9f9f9;stroke-miterlimit:10;stroke-width:60px;}.cls-3{fill:#fff;}</style></defs><path class="cls-1" d="M600,9C311.11,9,76.09,244,76.09,532.91c0,350.07,449.59,854.19,468.7,875.44A74.13,74.13,0,0,0,600,1433h0a74.36,74.36,0,0,0,55.25-24.64c19.13-21.33,468.67-526.52,468.67-875.45C1123.91,244,888.89,9,600,9Zm0-1C311.11,8,76.09,243,76.09,531.91c0,350.07,449.59,854.19,468.7,875.44A74.13,74.13,0,0,0,600,1432h0a74.36,74.36,0,0,0,55.25-24.64c19.13-21.33,468.67-526.52,468.67-875.45C1123.91,243,888.89,8,600,8Zm11,1359.69a14.86,14.86,0,0,1-22.07,0c-4.53-5-453.51-508.25-453.51-835.78C135.49,275.77,343.86,67.4,600,67.4s464.51,208.39,464.51,464.51C1064.51,858.35,629.54,1347.07,611.05,1367.69Z"/><circle class="cls-2" cx="599.72" cy="527.21" r="400.28"/><path class="cls-3" d="M771.29,441.26c-29.81,7.55-49.33,42.81-42.82,78.54a65.12,65.12,0,0,0,33.45,48.09V617.4c1,70-41.91,129.56-99.56,138.41-60.84,7.29-115.05-46.2-121.1-119.47-.39-4.36-.52-8.65-.52-13V603.8c72-16.07,124.35-91.68,124.42-179.92V340.07c0-36.76-24.8-66.56-55.31-66.56H575.29c-11.45,0-20.75,11.19-20.75,24.92s9.3,25,20.75,25h34.56a15.43,15.43,0,0,1,13.6,16.66v77.31c.71,69.88-41.91,129.55-99.56,138.4-60.84,7.29-115-46.26-121-119.47,0-4.36-.52-8.72-.52-13V340.07a15.42,15.42,0,0,1,13.73-16.66h34.55c11.46,0,20.7-11.19,20.7-25s-9.24-24.92-20.7-24.92H416.13c-30.58,0-55.31,29.8-55.31,66.56V423.3c0,94.61,59.93,173.61,138.21,182.2v9.63c-1.3,96.24,57.85,178.23,137.43,189.81,83.55,9.95,158-63.64,166.26-164.24.45-6,.71-12,.71-18V568.15c28.31-13.8,42-52.58,30.52-86.68C823.86,451.6,797.44,434.62,771.29,441.26Z"/></svg>