<svg id="Layer_1" data-name="Layer 1" xmlns="http://www.w3.org/2000/svg" viewBox="0 0 1200 1440"><defs><style>.cls-1{fill:#368ead;}.cls-2{fill:none;stroke:#f9f9f9;stroke-miterlimit:10;stroke-width:60px;}.cls-3{fill:#fff;}</style></defs><path class="cls-1" d="M600,9C311.11,9,76.09,244,76.09,532.91c0,350.07,449.59,854.19,468.7,875.44A74.13,74.13,0,0,0,600,1433h0a74.35,74.35,0,0,0,55.25-24.64c19.13-21.33,468.67-526.52,468.67-875.45C1123.91,244,888.89,9,600,9Zm0-1C311.11,8,76.09,243,76.09,531.91c0,350.07,449.59,854.19,468.7,875.44A74.13,74.13,0,0,0,600,1432h0a74.35,74.35,0,0,0,55.25-24.64c19.13-21.33,468.67-526.52,468.67-875.45C1123.91,243,888.89,8,600,8Zm11,1359.69a14.86,14.86,0,0,1-21,1.08,13.76,13.76,0,0,1-1.08-1.08c-4.53-5-453.51-508.25-453.51-835.78C135.49,275.77,343.86,67.4,600,67.4s464.51,208.39,464.51,464.51c0,326.44-435,815.16-453.46,835.78Z"/><circle class="cls-2" cx="599.72" cy="527.21" r="400.28"/><path class="cls-3" d="M880.9,553.29C868.18,349.44,722.28,305.37,686.74,305.37a52.1,52.1,0,0,0-40.56,16.29c-16.92,18.7-17.95,48.61-16.92,58.58,1.38,12.65,6.88,43.24,32.59,54A130.11,130.11,0,0,1,710.6,476.9a48.13,48.13,0,0,0,15.19-49.29,4.69,4.69,0,0,1,3-5.85h0a4.81,4.81,0,0,1,6,3.17,58.66,58.66,0,0,1-22,61.87l-.55.62a2.66,2.66,0,0,0-.69,0,73.68,73.68,0,0,1-9.08,5.23c-37.12,17.39-59.26,48.12-74,103.13a8.28,8.28,0,0,0,1,6.87,8,8,0,0,0,5.36,3.78,8.39,8.39,0,0,0,9.63-5.64c9.35-31.62,26.26-71.57,53.69-82.5,29.43-12,70.34,43.38,74.94,49.71a4.81,4.81,0,0,1-7.77,5.64,211,211,0,0,0-29-32.18c-.21,15.2-10.73,22.07-21.73,28.53a78.79,78.79,0,0,0-39.46,48.13c-6.87,21-1.86,45.1,14.44,67.65,22.89,31.7,62.63,53.77,96.66,53.77a78.75,78.75,0,0,0,59.68-25C873.88,684.4,885.64,630.29,880.9,553.29ZM757.14,468.86a7.49,7.49,0,0,1-5.91-3.51c-3.16-5.29-.76-23.58,1.86-38a4.68,4.68,0,0,1,5.36-3.85h0a4.88,4.88,0,0,1,3.92,5.57,156.68,156.68,0,0,0-3.17,30.46,147.13,147.13,0,0,0,40.91-20.63,4.86,4.86,0,0,1,6.88,6.88h0c-2.75,2.68-35.27,23.51-48.61,23.51a4.11,4.11,0,0,1-1.31,0Zm65,65.38c-17-3.44-36-6.87-44.27-7.42a67.87,67.87,0,0,0,18.15,29.84,4.88,4.88,0,0,1,1.38,6.76l-.08.11a4.66,4.66,0,0,1-3.92,2.06,4.24,4.24,0,0,1-2.68-.82,74.71,74.71,0,0,1-22.82-39.19,6.88,6.88,0,0,1,1.37-6.05c2-2.2,4-4.47,55,5.77a4.77,4.77,0,1,1-1.85,9.35h0Zm10.18-18.84a2,2,0,0,1-1,0c-.55,0-55.34-12-55-25.71,0-2.13.42-8.52,39.05-34.38a4.78,4.78,0,0,1,5.37,7.91h0a226.29,226.29,0,0,0-34.38,26.4A167.91,167.91,0,0,0,832.63,506a4.88,4.88,0,0,1,3.85,5.63,4.8,4.8,0,0,1-4.67,3.78Zm-335-22.34a73.19,73.19,0,0,1-9.08-5.16h-.62l-.62-.62a58.66,58.66,0,0,1-22-61.87,4.81,4.81,0,0,1,6-3.17,4.68,4.68,0,0,1,3.3,5.71h0a48.13,48.13,0,0,0,15.2,49.3,130.51,130.51,0,0,1,48.61-43c25.5-10.73,31.21-41.25,32.58-54,1-10,0-39.88-16.91-58.58a52.11,52.11,0,0,0-40.56-16.29c-35.55,0-181.65,44.07-194.16,247.92-4.74,77,6.88,131.11,35,160.88a78.69,78.69,0,0,0,59.67,25c34,0,73.77-22.07,96.67-53.76,16.29-22.55,21.45-46.62,14.44-67.65a78.84,78.84,0,0,0-39.47-48.13c-11-6.88-21.31-13.13-21.93-28.74a209.51,209.51,0,0,0-28.94,32,4.75,4.75,0,0,1-6.6,1.24c-.09-.07-.19-.13-.28-.21a4.66,4.66,0,0,1-1.47-6.44,3.3,3.3,0,0,1,.3-.43h0c4.61-6.33,45.59-61.88,74.94-49.71,27.5,11.27,44.35,51.22,53.7,82.5a8.38,8.38,0,0,0,9.62,5.64,7.87,7.87,0,0,0,5.37-3.78,8,8,0,0,0,1-6.88c-14.71-55-36.85-85.46-74-103.13ZM367.73,515.4a4.82,4.82,0,0,1-4.68-3.78A5,5,0,0,1,366.9,506a161.26,161.26,0,0,0,46.55-16.57,258.66,258.66,0,0,0-34.38-26.2,4.68,4.68,0,0,1-1.42-6.46l.05-.07a4.74,4.74,0,0,1,6.51-1.62l.36.24h0c38.71,25.79,39,32.18,39.05,34.38.69,13.75-54.1,25.58-54.65,25.71a2,2,0,0,1-1,0Zm64.42,9.77a74.33,74.33,0,0,1-22.83,39.19,4.22,4.22,0,0,1-2.68.82,4.69,4.69,0,0,1-3.92-2.06,4.89,4.89,0,0,1,1.2-6.8l.11-.08a67.9,67.9,0,0,0,18.08-29.63c-8.25.76-27.5,4-44.21,7.43a4.77,4.77,0,0,1-1.92-9.35h0c50.81-10.25,52.8-7.91,55-5.71a6.88,6.88,0,0,1,1.31,6Zm16.64-59.82a7.49,7.49,0,0,1-5.91,3.51,3.69,3.69,0,0,1-1.24,0c-13.75,0-45.93-20.63-48.68-23.51a5,5,0,0,1,0-6.88,4.68,4.68,0,0,1,6.61-.27l.27.27h0a146.64,146.64,0,0,0,41.25,20.63,168.42,168.42,0,0,0-3.23-30.46,4.88,4.88,0,0,1,3.92-5.57,4.68,4.68,0,0,1,5.49,3.68v0h0c2.61,14.44,5,32.73,1.85,38Z"/></svg>