<svg id="Layer_1" data-name="Layer 1" xmlns="http://www.w3.org/2000/svg" viewBox="0 0 1200 1440"><defs><style>.cls-1{fill:#368ead;}.cls-2{fill:none;stroke:#f9f9f9;stroke-miterlimit:10;stroke-width:60px;}.cls-3{fill:#fff;}</style></defs><path class="cls-1" d="M600,9C311.11,9,76.09,244,76.09,532.91c0,350.07,449.59,854.19,468.7,875.44A74.13,74.13,0,0,0,600,1433h0a74.36,74.36,0,0,0,55.25-24.64c19.13-21.33,468.67-526.52,468.67-875.45C1123.91,244,888.89,9,600,9Zm0-1C311.11,8,76.09,243,76.09,531.91c0,350.07,449.59,854.19,468.7,875.44A74.13,74.13,0,0,0,600,1432h0a74.36,74.36,0,0,0,55.25-24.64c19.13-21.33,468.67-526.52,468.67-875.45C1123.91,243,888.89,8,600,8Zm11,1359.69a14.86,14.86,0,0,1-22.07,0c-4.53-5-453.51-508.25-453.51-835.78C135.49,275.77,343.86,67.4,600,67.4s464.51,208.39,464.51,464.51C1064.51,858.35,629.54,1347.07,611.05,1367.69Z"/><circle class="cls-2" cx="599.72" cy="527.21" r="400.28"/><path class="cls-3" d="M726.14,811.62c79.14-70.31,85.4-188.25,16.71-262.41A209.6,209.6,0,0,0,689.66,509l75-39.45a127.85,127.85,0,0,0-119-226.33L379.85,383.13c-66,34.71-91.36,112-58.58,174.19a125.28,125.28,0,0,0,96.42,66.13A416.07,416.07,0,0,0,409,667.72a173.31,173.31,0,0,0,20.49,95,185.72,185.72,0,0,0,27.16,38.64c70.46,77.54,190.42,80.35,269.56,10.21ZM357.19,538.52a88.94,88.94,0,0,1,38.73-119.67l.56-.29,115.94-61,69.74,132.89a200.88,200.88,0,0,0-146.07,94.89A86.76,86.76,0,0,1,357.19,538.52ZM547.85,338.78l115.94-61a87.82,87.82,0,1,1,84.9,153.75c-1,.56-2.06,1.11-3.11,1.64l-108.79,57.2c-2.73-.72-7.15-.64-9.88-1.36ZM499.64,567.12c62.27-54.87,157.24-51.9,211.39,8a110.46,110.46,0,0,1,20.81,30.93,136.56,136.56,0,0,1,16.07,55.68l-297-9.56a161.81,161.81,0,0,1,48.21-85.09Zm91.43,256.07A144.14,144.14,0,0,1,450.31,689.81l296.48,9.4A153.8,153.8,0,0,1,591.07,823.19Z"/></svg>