<svg id="Layer_1" data-name="Layer 1" xmlns="http://www.w3.org/2000/svg" viewBox="0 0 1200 1440"><defs><style>.cls-1{fill:#368ead;}.cls-2{fill:none;stroke:#f9f9f9;stroke-width:60px;}.cls-2,.cls-3{stroke-miterlimit:10;}.cls-3{fill:#fff;stroke:#fff;stroke-width:13px;}</style></defs><path class="cls-1" d="M600,9C311.11,9,76.09,244,76.09,532.91c0,350.07,449.59,854.19,468.7,875.44A74.13,74.13,0,0,0,600,1433h0a74.36,74.36,0,0,0,55.25-24.64c19.13-21.33,468.67-526.52,468.67-875.45C1123.91,244,888.89,9,600,9Zm0-1C311.11,8,76.09,243,76.09,531.91c0,350.07,449.59,854.19,468.7,875.44A74.13,74.13,0,0,0,600,1432h0a74.36,74.36,0,0,0,55.25-24.64c19.13-21.33,468.67-526.52,468.67-875.45C1123.91,243,888.89,8,600,8Zm11,1359.69a14.86,14.86,0,0,1-22.07,0c-4.53-5-453.51-508.25-453.51-835.78C135.49,275.77,343.86,67.4,600,67.4s464.51,208.39,464.51,464.51C1064.51,858.35,629.54,1347.07,611.05,1367.69Z"/><circle class="cls-2" cx="599.72" cy="527.21" r="400.28"/><path class="cls-3" d="M838.36,415.51H725.1V270.8a3.87,3.87,0,0,0-3.87-3.8H486.66a3.8,3.8,0,0,0-4,3.65v.15h0V415.51H369.37a3.79,3.79,0,0,0-3.94,3.65v.15h0v320.4a3.88,3.88,0,0,0,3.72,4H838.58a4,4,0,0,0,3.95-3.8h0V419.53a3.86,3.86,0,0,0-3.72-4h-.45ZM482.71,736.43H373.25V423.48H482.71Zm7.45-461.23H717.28v144h0v317.2H639.11V650h19.52a3.88,3.88,0,0,0,3.88-3.88h0V630.48a3.88,3.88,0,0,0-3.88-3.88H549.17a3.88,3.88,0,0,0-3.87,3.88h0v15.64a3.88,3.88,0,0,0,3.8,4h19.6v86.36H490.53Zm62.59,367.42v-7.45H654.69v7.45Zm23.77,93.81V650h54.77v86.43Zm258.71,0H725.1V423.48H835.23Z"/><path class="cls-3" d="M752.37,513.5h46.94a3.88,3.88,0,0,0,3.88-3.51h0V462.68a4,4,0,0,0-3.8-3.95h-47a3.87,3.87,0,0,0-3.87,3.87h0V510A3.88,3.88,0,0,0,752.37,513.5Zm4-46.95h39v39.12h-39Z"/><path class="cls-3" d="M752.37,592h46.94a3.88,3.88,0,0,0,3.88-3.88h0V540.84a4,4,0,0,0-3.8-4h-47a3.88,3.88,0,0,0-3.87,3.88h0v46.87a3.87,3.87,0,0,0,3.55,4.17h0Zm4-47h39v39.12h-39Z"/><path class="cls-3" d="M408.42,513.5h46.79a3.88,3.88,0,0,0,3.88-3.88h0V462.68a4,4,0,0,0-3.8-3.95H408.42a3.87,3.87,0,0,0-3.87,3.87h0V510A3.88,3.88,0,0,0,408.42,513.5Zm3.95-46.95h39v39.12h-39Z"/><path class="cls-3" d="M517.88,482.2h31.29a3.88,3.88,0,0,0,3.88-3.87h0V447a3.88,3.88,0,0,0-3.88-3.88H517.88A3.88,3.88,0,0,0,514,447h0v31.3a3.88,3.88,0,0,0,3.88,3.87Zm3.87-31.3h23.48v23.48h-23Z"/><path class="cls-3" d="M619.51,442.93H588.22a3.88,3.88,0,0,0-3.88,3.88h0V478.1a3.88,3.88,0,0,0,3.88,3.88h31.29a3.88,3.88,0,0,0,3.88-3.88h0V446.81a3.88,3.88,0,0,0-3.88-3.88Zm-3.94,31.22h-23.4V450.9h23.4Z"/><path class="cls-3" d="M654.69,478.33a3.87,3.87,0,0,0,3.87,3.87h31.3a3.87,3.87,0,0,0,3.87-3.87h0V447a3.88,3.88,0,0,0-3.87-3.88h-31.3a3.88,3.88,0,0,0-3.87,3.88h0Zm7.45-27.43H686.2v23.48H662.51Z"/><path class="cls-3" d="M517.88,544.72h31.29a3.88,3.88,0,0,0,3.88-3.88h0V510a3.88,3.88,0,0,0-3.88-3.87H517.88A3.88,3.88,0,0,0,514,510h0v31.3A3.82,3.82,0,0,0,517.88,544.72Zm4.4-31.22h23.09v23.39H522.28Z"/><path class="cls-3" d="M619.51,505.67H588.22a3.88,3.88,0,0,0-3.88,3.88h0v31.29a3.88,3.88,0,0,0,3.88,3.88h31.29a3.88,3.88,0,0,0,3.88-3.88h0V510a3.94,3.94,0,0,0-3.5-4.24Zm-3.94,31.22h-23.4V513.5h23.4Z"/><path class="cls-3" d="M658.56,544.72h31.3a3.88,3.88,0,0,0,3.87-3.88h0V510a3.87,3.87,0,0,0-3.87-3.87h-31.3a3.87,3.87,0,0,0-3.87,3.87h0v31.3A3.8,3.8,0,0,0,658.56,544.72Zm4-31.22H686.2v23.39H662.51Z"/><path class="cls-3" d="M408.42,592h46.79a3.88,3.88,0,0,0,3.88-3.88h0V540.84a4,4,0,0,0-3.8-4H408.42a3.88,3.88,0,0,0-3.87,3.88h0v46.87a3.87,3.87,0,0,0,3.55,4.17h0Zm3.95-47h39v39.12h-39Z"/><path class="cls-3" d="M557,388.39h27.34v27.34a3.88,3.88,0,0,0,3.8,3.95h31.37a3.88,3.88,0,0,0,3.88-3.87h0V388.39h27.35a4,4,0,0,0,4-3.8h0V353.52a3.88,3.88,0,0,0-3.88-3.88H623.39V321.92a3.88,3.88,0,0,0-3.88-3.87H588.22a3.88,3.88,0,0,0-3.88,3.87h0v27.42H557a3.8,3.8,0,0,0-4,3.65v.15h0v31.3a3.87,3.87,0,0,0,3.87,3.87h0Zm3.87-31.22h27.35a4,4,0,0,0,3.95-3.95h0V325.87h23.4v27.65a3.94,3.94,0,0,0,3.94,4h27.35v23.39H619.51a3.94,3.94,0,0,0-3.94,3.95v27.35h-23.4V384.59a4,4,0,0,0-3.95-3.95H560.87Z"/></svg>