<svg id="Layer_1" data-name="Layer 1" xmlns="http://www.w3.org/2000/svg" viewBox="0 0 1200 1440"><defs><style>.cls-1{fill:#368ead;}.cls-2{fill:none;stroke:#f9f9f9;stroke-miterlimit:10;stroke-width:60px;}.cls-3{fill:#fcfcfc;}</style></defs><path class="cls-1" d="M600,9C311.11,9,76.09,244,76.09,532.91c0,350.07,449.59,854.19,468.7,875.44A74.13,74.13,0,0,0,600,1433h0a74.36,74.36,0,0,0,55.25-24.64c19.13-21.33,468.67-526.52,468.67-875.45C1123.91,244,888.89,9,600,9Zm0-1C311.11,8,76.09,243,76.09,531.91c0,350.07,449.59,854.19,468.7,875.44A74.13,74.13,0,0,0,600,1432h0a74.36,74.36,0,0,0,55.25-24.64c19.13-21.33,468.67-526.52,468.67-875.45C1123.91,243,888.89,8,600,8Zm11,1359.69a14.86,14.86,0,0,1-22.07,0c-4.53-5-453.51-508.25-453.51-835.78C135.49,275.77,343.86,67.4,600,67.4s464.51,208.39,464.51,464.51C1064.51,858.35,629.54,1347.07,611.05,1367.69Z"/><circle class="cls-2" cx="599.72" cy="527.21" r="400.28"/><path class="cls-3" d="M803.93,551.58H610.2a14.65,14.65,0,0,0-13.07,7.53,122.93,122.93,0,0,0,46.78,167.43c.64.36,1.29.72,2,1.07A127,127,0,0,0,707,743.25h1.07A124.58,124.58,0,0,0,832.14,618.34a122,122,0,0,0-15.22-59.23A14.68,14.68,0,0,0,803.93,551.58Zm-96,162.63h-.83a95.62,95.62,0,0,1-96.54-94.7h0a93.1,93.1,0,0,1,8.28-39H795a94.3,94.3,0,0,1-47,124.79l-1.37.61A97.39,97.39,0,0,1,707.9,714.21Z"/><path class="cls-3" d="M785.24,453.64a24.8,24.8,0,0,1-15-22.08V362.07h2.4a40.36,40.36,0,0,0,40.61-40,31.56,31.56,0,0,0,0-3.89A41.36,41.36,0,0,0,771.92,282H641.47A40.28,40.28,0,0,0,600.86,322V322a31.56,31.56,0,0,0,0,3.89,41.35,41.35,0,0,0,41.36,36.14h1.24V431a24.24,24.24,0,0,1-13.24,22.17c-92.21,40-134.53,147.16-94.54,239.37a181.9,181.9,0,0,0,44.25,62,186.48,186.48,0,0,0,127.3,49.63h12.58c101-4.92,178.93-90.81,174-191.83A183.11,183.11,0,0,0,785.57,454Zm78.67,175.62A157.17,157.17,0,1,1,642.05,479.45,53.17,53.17,0,0,0,673.24,431V347.76a14.64,14.64,0,0,0-14.73-14.47H642.63a12,12,0,0,1-12.41-10.09,11.17,11.17,0,0,1,10-12.22l.25,0h131a12,12,0,0,1,12.32,9.93,11.16,11.16,0,0,1-10,12.24H755.46a14.56,14.56,0,0,0-14.64,14.48h0v84a53.69,53.69,0,0,0,32.26,48.31A153.94,153.94,0,0,1,863.91,629.26Z"/><path class="cls-3" d="M516.57,727.86a14.73,14.73,0,0,0-19.94,5.79,41.36,41.36,0,0,1-55.92,15.72,40.38,40.38,0,0,1-21.17-35.16v-20.6H440a14.48,14.48,0,0,0,0-29H419.29V627.77H440a14.48,14.48,0,1,0,2.18-28.87,15.86,15.86,0,0,0-2.18,0H419.29V561.68H440a14.48,14.48,0,0,0,2.18-28.87,13.22,13.22,0,0,0-2.18,0H419.29V495.58H440a14.48,14.48,0,0,0,0-28.95H419.29V429.41H440a14.48,14.48,0,0,0,2.18-28.87,13.22,13.22,0,0,0-2.18,0H419.29V347.76a14.64,14.64,0,0,0-14.73-14.47H388.93A12,12,0,0,1,376.6,323.2a11.17,11.17,0,0,1,10-12.24H530.13a12.25,12.25,0,0,1,12.41,10,11.17,11.17,0,0,1-10.08,12.16H514.41a14.55,14.55,0,0,0-14.72,14.39v.09h0V498.07a14.73,14.73,0,0,0,29.37,0V362.24H531a40.45,40.45,0,0,0,41.35-39.53c0-.17,0-.34,0-.51a31.39,31.39,0,0,0,0-3.88A41.36,41.36,0,0,0,531,282.17H387.77a40.27,40.27,0,0,0-40.61,39.95v.08a28.06,28.06,0,0,0,0,3.89,41.34,41.34,0,0,0,41.36,36.15h1.82V714.13a69.89,69.89,0,0,0,70.55,69.24h.17a70.76,70.76,0,0,0,61.63-35.91A14.4,14.4,0,0,0,516.8,728Z"/></svg>