<svg id="Layer_1" data-name="Layer 1" xmlns="http://www.w3.org/2000/svg" viewBox="0 0 1200 1440"><defs><style>.cls-1{fill:#368ead;}.cls-2{fill:none;stroke:#f9f9f9;stroke-miterlimit:10;stroke-width:60px;}.cls-3{fill:#fff;}</style></defs><path class="cls-1" d="M600,9C311.11,9,76.09,244,76.09,532.91c0,350.07,449.59,854.19,468.7,875.44A74.13,74.13,0,0,0,600,1433h0a74.35,74.35,0,0,0,55.25-24.64c19.13-21.33,468.67-526.52,468.67-875.45C1123.91,244,888.89,9,600,9Zm0-1C311.11,8,76.09,243,76.09,531.91c0,350.07,449.59,854.19,468.7,875.44A74.13,74.13,0,0,0,600,1432h0a74.35,74.35,0,0,0,55.25-24.64c19.13-21.33,468.67-526.52,468.67-875.45C1123.91,243,888.89,8,600,8Zm11,1359.69a14.86,14.86,0,0,1-21,1.08,13.76,13.76,0,0,1-1.08-1.08c-4.53-5-453.51-508.25-453.51-835.78C135.49,275.77,343.86,67.4,600,67.4s464.51,208.39,464.51,464.51c0,326.44-435,815.16-453.46,835.78Z"/><circle class="cls-2" cx="599.72" cy="527.21" r="400.28"/><path class="cls-3" d="M870.48,360.84a23.21,23.21,0,0,0-15.1-9.09A294.65,294.65,0,0,1,781.9,328a309,309,0,0,1-63.52-39.27,22,22,0,0,0-13.83-5.21,18.1,18.1,0,0,0-14.49,7.14,19.45,19.45,0,0,0,2.32,27.4,15.73,15.73,0,0,0,1.29,1c3.2,2.67,6.68,5.75,10.48,8.42l.6.47a464.15,464.15,0,0,0,130,60.11c4.41,1.14,8.88,1.94,13.36,2.74a30.57,30.57,0,0,0,4.87.4,19.1,19.1,0,0,0,20-15.89A18.41,18.41,0,0,0,870.48,360.84Z"/><path class="cls-3" d="M796.13,397.11,763.47,468,693.4,435.58l32.19-70.33c-11.08-6.15-19.63-11.36-25.31-15L697.61,356c-12.83,27.59-25.79,55.64-38.28,82.76L619.92,525c-5.14,11.15-10.35,22.37-15.56,33.39a23.37,23.37,0,0,0-.4,20c3.74,8.89,7.35,18,10.55,26l.47,1.13c2.27,5.68,4.48,11.29,6.68,16.9l2.6,6.68a5.71,5.71,0,0,1-.4,5.61c-9.35,20-18.63,40.08-27.32,58.85-4.2,9.22-7.54,16.76-10.48,23.58l-4.61,10h0l-7,15.09-.87,1.81-3.48-1.61-10.75,23.31,40.08,18.64L610,760.68l-3.41-1.87,4.28-9.09h0l16.3-35.4c9.75-21.11,20-43,29.59-64.59a5.22,5.22,0,0,1,3.81-3.41l7.74-2.53,16.57-5.62,1.2-.4c9.15-3.07,18.57-6.28,27.86-9.28a21.17,21.17,0,0,0,13.35-12.36c3.68-8.21,7.55-16.5,11.29-24.45l6.68-14,28.32-60.38,28-60.78c6.68-14.3,13.36-29.06,20-43.55l2.94-6.68C814.37,403.59,805,400.38,796.13,397.11Zm-76.55,166-70-32.33L681,462.77,751,495Z"/><path class="cls-3" d="M514.32,271.26a23,23,0,0,0-17.57,1.14,295,295,0,0,1-73.47,21.91,310.35,310.35,0,0,1-74.62,3.74,21.83,21.83,0,0,0-14.29,3.54A18.29,18.29,0,0,0,326,315.68a19.37,19.37,0,0,0,17.34,21.21,17.14,17.14,0,0,0,1.76.1c4.15.4,8.89.87,13.36,1h.94a464.87,464.87,0,0,0,141-24.51c4.27-1.54,8.41-3.47,12.69-5.41a27.08,27.08,0,0,0,4.27-2.47,19,19,0,0,0,7.28-24.38A18.38,18.38,0,0,0,514.32,271.26Z"/><path class="cls-3" d="M473.77,343.34l13.36,77-76.34,13.09L397.43,357c-12.63,1.27-22.65,1.8-29.33,2l1.07,6.28c5.08,30,10.35,60.12,15.43,89.91l16.23,93.51L407,585.27a23,23,0,0,0,10.83,16.37c8.08,5.21,16.23,10.68,23.44,15.49l1,.67,15.17,10,5.87,3.81a5.74,5.74,0,0,1,2.81,4.81c3.54,21.64,7.35,43.48,10.89,64,1.73,10,3.27,18.1,4.81,25.38l1.87,10.82h-.34l2.94,16.5v1.94l-3.81.67,4.35,25.31,43.81-7.61-4.27-25.25-3.81.6-1.67-9.89h0l-6.68-38.34c-4-23-8.15-46.76-12.29-70a5.15,5.15,0,0,1,1.2-4.94c1.67-2.21,3.28-4.41,4.95-6.68l10.42-14,.8-1c5.81-7.74,11.69-15.69,17.63-23.44a21.58,21.58,0,0,0,4.28-18c-1.61-8.81-3.14-17.83-4.61-26.71l-2.54-15.1-11.42-65.59-11.49-65.93c-2.67-15.5-5.41-31.53-8.22-47.23l-1.2-7C492.41,338.26,482.86,341,473.77,343.34ZM504.9,523.69,429,537.05,416.2,462.77l75.94-13.36Z"/></svg>