<svg id="Layer_1" data-name="Layer 1" xmlns="http://www.w3.org/2000/svg" viewBox="0 0 1200 1440"><defs><style>.cls-1{fill:#368ead;}.cls-2{fill:none;stroke:#f9f9f9;stroke-miterlimit:10;stroke-width:60px;}.cls-3{fill:#fff;}</style></defs><path class="cls-1" d="M600,9C311.11,9,76.09,244,76.09,532.91c0,350.07,449.59,854.19,468.7,875.44A74.13,74.13,0,0,0,600,1433h0a74.35,74.35,0,0,0,55.25-24.64c19.13-21.33,468.67-526.52,468.67-875.45C1123.91,244,888.89,9,600,9Zm0-1C311.11,8,76.09,243,76.09,531.91c0,350.07,449.59,854.19,468.7,875.44A74.13,74.13,0,0,0,600,1432h0a74.35,74.35,0,0,0,55.25-24.64c19.13-21.33,468.67-526.52,468.67-875.45C1123.91,243,888.89,8,600,8Zm11,1359.69a14.86,14.86,0,0,1-21,1.08,13.76,13.76,0,0,1-1.08-1.08c-4.53-5-453.51-508.25-453.51-835.78C135.49,275.77,343.86,67.4,600,67.4s464.51,208.39,464.51,464.51c0,326.44-435,815.16-453.46,835.78Z"/><circle class="cls-2" cx="599.72" cy="527.21" r="400.28"/><path class="cls-3" d="M525,796.31H675c80.23,0,145.61,0,145.61-80.23A145.67,145.67,0,0,0,732,582.37c0,.46.53.93.74,1.47a70.33,70.33,0,0,1,6,20,34.88,34.88,0,0,1,6.69,2.68,32.83,32.83,0,1,1-22-3.21A56.62,56.62,0,0,0,708.05,574a159.48,159.48,0,0,0-19.66-3.21c-.54,26.74-40.11,48-88.38,48s-87.79-21.39-88.39-48q-7,.74-13.84,2a54.17,54.17,0,0,0-19,28.74,18,18,0,0,1,7.95,9.43c13.37,5.95,25.74,19.39,35.1,38.91a10.43,10.43,0,0,1,0,9,123.56,123.56,0,0,1,9.1,43.59c0,21.06-.94,34.3-18.59,37.77a9,9,0,0,1-6.69,2.61H492.23a9.09,9.09,0,0,1-9.09-9.09h0a9,9,0,0,1,9-8.9h13.37a9.28,9.28,0,0,1,3.81.81c3.21-.67,3.74-1.54,4.08-2.08a57.28,57.28,0,0,0,2-20.92,106.88,106.88,0,0,0-8.09-38.24,10.71,10.71,0,0,1-5.28-5.15c-9-18.59-21-30.15-31.42-30.15s-22.87,12.43-31.76,31.75a10.43,10.43,0,0,1-6.15,5.62,104.28,104.28,0,0,0-7.35,36.17,55.62,55.62,0,0,0,2.27,21c0,.47.93,1.47,4.55,2.14a9.56,9.56,0,0,1,4.07-.94h13.37a9.18,9.18,0,0,1,9.1,8.56h0v.47a9.09,9.09,0,0,1-9.1,9.09H436.27a9,9,0,0,1-6-2.34,21.11,21.11,0,0,1-15.38-9.16c-3.74-6.08-4.48-14.5-4.48-28.88a121.52,121.52,0,0,1,9.09-42.59,10.79,10.79,0,0,1,0-8A99.21,99.21,0,0,1,440,621.88a53.92,53.92,0,0,1,14.51-10.16,18.19,18.19,0,0,1,9.16-10.43,55.74,55.74,0,0,1,7.62-20.59A145.66,145.66,0,0,0,379.38,716C379.38,796.51,444.56,796.31,525,796.31Z"/><circle class="cls-3" cx="729.91" cy="635.32" r="16.38"/><path class="cls-3" d="M477.59,470.18a38.18,38.18,0,0,0,10,1.34h6.68c14.38,65,56.16,112,105.44,112,44.26,0,82.3-38,100.28-92.73a80.13,80.13,0,0,0,20.06-20h1.2a34.76,34.76,0,0,0,27.28-33.43V410.55a34.76,34.76,0,0,0-27.28-33.43v-4.35c.4-63.18-54.42-114.66-121.27-114.66S477.59,309.59,477.59,372.77v4.35a34.82,34.82,0,0,0-26.74,33.43v26.74A34.75,34.75,0,0,0,477.59,470.18ZM600,566.45c-49.35,0-90.06-53.48-96.41-123A46.71,46.71,0,0,1,519,450.73s-11-65.39,12.24-74.55A188.46,188.46,0,0,0,600,392.76a188.91,188.91,0,0,0,68.72-16.58C692,385.34,681,450.66,681,450.73a47.68,47.68,0,0,1,15.24-7.22V445a194.5,194.5,0,0,1-3.27,21.2c-15.18,13.77-41.25,23.66-71.21,25.47a15.72,15.72,0,0,0-10.23-3.81H590.31a16,16,0,0,0,0,31.89H611.5a16,16,0,0,0,11-4.48,164.9,164.9,0,0,0,59.23-14C664.45,540.58,634.3,566.45,600,566.45Zm0-284.4c48.93,0,89.45,34.5,95.67,78.95a108.58,108.58,0,0,0-191.61,1.61C509.15,317.41,550.06,282.05,600,282.05Z"/></svg>