<svg id="Layer_1" data-name="Layer 1" xmlns="http://www.w3.org/2000/svg" viewBox="0 0 1200 1440"><defs><style>.cls-1{fill:#368ead;}.cls-2{fill:none;stroke:#f9f9f9;stroke-miterlimit:10;stroke-width:60px;}.cls-3{fill:#fff;}</style></defs><path class="cls-1" d="M600,9C311.11,9,76.09,244,76.09,532.91c0,350.07,449.59,854.19,468.7,875.44A74.13,74.13,0,0,0,600,1433h0a74.36,74.36,0,0,0,55.25-24.64c19.13-21.33,468.67-526.52,468.67-875.45C1123.91,244,888.89,9,600,9Zm0-1C311.11,8,76.09,243,76.09,531.91c0,350.07,449.59,854.19,468.7,875.44A74.13,74.13,0,0,0,600,1432h0a74.36,74.36,0,0,0,55.25-24.64c19.13-21.33,468.67-526.52,468.67-875.45C1123.91,243,888.89,8,600,8Zm11,1359.69a14.86,14.86,0,0,1-22.07,0c-4.53-5-453.51-508.25-453.51-835.78C135.49,275.77,343.86,67.4,600,67.4s464.51,208.39,464.51,464.51C1064.51,858.35,629.54,1347.07,611.05,1367.69Z"/><circle class="cls-2" cx="599.72" cy="527.21" r="400.28"/><path class="cls-3" d="M804.11,766.93l-11.81-98.2A147.7,147.7,0,0,0,681.7,544a138.87,138.87,0,0,0,43.16-175.35L746.44,260a15.72,15.72,0,0,0-5.39-15.51C706,216.19,654.72,200,600.09,200s-105.89,16.19-141,45.19a14.84,14.84,0,0,0-5.4,15.51l21.59,108.58A138,138,0,0,0,518.48,544,146.17,146.17,0,0,0,407.87,668.73L395.73,767.2a52.15,52.15,0,0,0,41.14,57.33,830.8,830.8,0,0,0,326.43,0A51.81,51.81,0,0,0,804.11,766.93ZM600.43,231.43c43.83,0,84.3,11.46,113.3,32.37l-16.86,85a287,287,0,0,0-192.89,0l-16.86-84.71c28.66-21.18,69.13-32.64,113-32.64ZM492.52,431.06a107.82,107.82,0,0,1,12.14-48.56,254.43,254.43,0,0,1,191.54,0,107.58,107.58,0,1,1-203.68,48.56ZM756.89,793.91a817.86,817.86,0,0,1-313.61,0A21.53,21.53,0,0,1,427.09,771l12.14-98.47A115.81,115.81,0,0,1,553.89,570.67h91.72A115.27,115.27,0,0,1,760.27,672.51L772.41,771a19.37,19.37,0,0,1-15.08,22.85Z"/></svg>