<svg id="Layer_1" data-name="Layer 1" xmlns="http://www.w3.org/2000/svg" viewBox="0 0 1200 1440"><defs><style>.cls-1{fill:#368ead;}.cls-2{fill:none;stroke:#f9f9f9;stroke-miterlimit:10;stroke-width:60px;}.cls-3{fill:#fff;}</style></defs><path class="cls-1" d="M600,9C311.11,9,76.09,244,76.09,532.91c0,350.07,449.59,854.19,468.7,875.44A74.13,74.13,0,0,0,600,1433h0a74.35,74.35,0,0,0,55.25-24.64c19.13-21.33,468.67-526.52,468.67-875.45C1123.91,244,888.89,9,600,9Zm0-1C311.11,8,76.09,243,76.09,531.91c0,350.07,449.59,854.19,468.7,875.44A74.13,74.13,0,0,0,600,1432h0a74.35,74.35,0,0,0,55.25-24.64c19.13-21.33,468.67-526.52,468.67-875.45C1123.91,243,888.89,8,600,8Zm11,1359.69a14.86,14.86,0,0,1-21,1.08,13.76,13.76,0,0,1-1.08-1.08c-4.53-5-453.51-508.25-453.51-835.78C135.49,275.77,343.86,67.4,600,67.4s464.51,208.39,464.51,464.51c0,326.44-435,815.16-453.46,835.78Z"/><circle class="cls-2" cx="599.72" cy="527.21" r="400.28"/><path class="cls-3" d="M627.18,440.74a23.68,23.68,0,1,1-23.67-23.67,23.68,23.68,0,0,1,23.67,23.67Z"/><path class="cls-3" d="M566.39,441.4l-62.3-.92a99.54,99.54,0,0,0,50.82,85.25l30.37-52.46A37.1,37.1,0,0,1,566.39,441.4Z"/><path class="cls-3" d="M498.45,427.56l25.51.53-1-1c-39.74-43.61-86.83-120.67-33.51-172.93a81.87,81.87,0,0,1,42.29-23,44.74,44.74,0,0,1,42.76,13.64c19.15,22.76,0,61.78-14,84.27a118.06,118.06,0,0,1,94.89,4.26c-3-22.3-5.64-42.69-16.33-63.74a103,103,0,0,0-76.46-57.12,109.8,109.8,0,0,0-48.2.39,87.37,87.37,0,0,0-40.14,24.27,98.75,98.75,0,0,0-24.52,40.2,105.67,105.67,0,0,0-2.5,49.38,193.88,193.88,0,0,0,39.35,86.63C491.11,418.78,493.86,422.25,498.45,427.56Z"/><path class="cls-3" d="M640.56,440.42a3.39,3.39,0,0,1,0,.78,37.21,37.21,0,0,1-18,31.81l31.74,51.61a99.22,99.22,0,0,0,48.53-86.7Z"/><path class="cls-3" d="M605,404.09a37.21,37.21,0,0,1,17.84,5.44l32.79-55a99.08,99.08,0,0,0-99.35-2.75l29.64,56.72A36.77,36.77,0,0,1,605,404.09Z"/><path class="cls-3" d="M720.5,483.24h-8.4a117.4,117.4,0,0,1-68.85,65.84c-2.3-3.54-4.72-7-7.22-10.36a236.62,236.62,0,0,0-30.23-33.58c-5.24-5-10.62-9.84-16.06-14.62l-8.46,15.15a250.53,250.53,0,0,1,44.46,48.26,117.38,117.38,0,0,1-130.63-70.69H458.25v4.13l33.58,11.41c18.23,46.76,56.92,80.14,102.63,84.07,0,16.26-.79,31.15-1.64,44.79a29,29,0,0,0-6,1.77,44.86,44.86,0,0,0-16.91,12.26c-10.76,12.33-12.4,30.37,0,42a48.62,48.62,0,0,0,15.34,9.12c-13.9,77.84-39.35,85.25-46.3,85.64h54.56a52,52,0,0,0-8.85,37.84,44.93,44.93,0,0,0,17.51,28.27c.92-.92,3.74-2.76,2.82-3.94a54.2,54.2,0,0,1-5.77-9.05,42.27,42.27,0,0,1-3.87-23.41,46,46,0,0,1,8.85-21.38A49.68,49.68,0,0,1,612,778.4h54.82c-4.07,0-14.95-3.08-26.23-22a67.8,67.8,0,0,0,14.29-16.07,27.67,27.67,0,0,0,.46-31.28c-8.13-11.21-22.56-16.33-35.8-20.13-2.36-14.23-4.4-30.62-5.84-49.71a58.31,58.31,0,0,0,29.58-17.9,54.55,54.55,0,0,0,11.6-45,52.71,52.71,0,0,0-1.24-5.57,136,136,0,0,0,61.77-72.14L749,487.17v-3.93ZM575.24,667.71a18.76,18.76,0,0,1,6.56-18.23,29.5,29.5,0,0,1,9.58-6.17c-1.12,13.12-2.5,25.19-4.07,35.94A21.54,21.54,0,0,1,575.24,667.71Zm61.45,42.62a18.58,18.58,0,0,1,9.31,12,27.52,27.52,0,0,1-11.8,20.52,213.89,213.89,0,0,1-11.61-39.35A69.21,69.21,0,0,1,636.69,710.33Zm0-110a38.69,38.69,0,0,1-23.81,22.83q-1-18.63-1.37-40.2a104.49,104.49,0,0,0,26.23-5.32A38.94,38.94,0,0,1,636.69,600.29Z"/></svg>