<svg id="Layer_1" data-name="Layer 1" xmlns="http://www.w3.org/2000/svg" viewBox="0 0 1200 1440"><defs><style>.cls-1{fill:#368ead;}.cls-2{fill:none;stroke:#f9f9f9;stroke-miterlimit:10;stroke-width:60px;}.cls-3{fill:#fcfcfc;}</style></defs><path class="cls-1" d="M600,9C311.11,9,76.09,244,76.09,532.91c0,350.07,449.59,854.19,468.7,875.44A74.13,74.13,0,0,0,600,1433h0a74.36,74.36,0,0,0,55.25-24.64c19.13-21.33,468.67-526.52,468.67-875.45C1123.91,244,888.89,9,600,9Zm0-1C311.11,8,76.09,243,76.09,531.91c0,350.07,449.59,854.19,468.7,875.44A74.13,74.13,0,0,0,600,1432h0a74.36,74.36,0,0,0,55.25-24.64c19.13-21.33,468.67-526.52,468.67-875.45C1123.91,243,888.89,8,600,8Zm11,1359.69a14.86,14.86,0,0,1-22.07,0c-4.53-5-453.51-508.25-453.51-835.78C135.49,275.77,343.86,67.4,600,67.4s464.51,208.39,464.51,464.51C1064.51,858.35,629.54,1347.07,611.05,1367.69Z"/><circle class="cls-2" cx="599.72" cy="527.21" r="400.28"/><path class="cls-3" d="M506.09,473.13c43.19,0,78.16-31.51,78.16-70.27s-35-70.26-78.16-70.26S428,364,428,402.86,463.31,473.05,506.09,473.13Zm0-125c33.6,0,60.76,24.18,60.76,54.71s-27.16,54.64-60.76,54.64-60.75-24.18-60.75-54.64S472.57,348.23,506.09,348.15Z"/><path class="cls-3" d="M532.2,402.86h17.32a41.4,41.4,0,0,0-43.43-39.07v15.63A24.89,24.89,0,0,1,532.2,402.86Z"/><path class="cls-3" d="M423.66,465.31a11.77,11.77,0,1,0-13.05-11.76,12.41,12.41,0,0,0,13,11.76Z"/><path class="cls-3" d="M497.47,512.13v-8.06h61.72a43.19,43.19,0,0,0,41.1-26.43l4-11a16.11,16.11,0,0,1,19.58-8.06,14.79,14.79,0,0,1,9.67,8.06l3.94,10.72a43.21,43.21,0,0,0,41.18,26.67H836a24.82,24.82,0,0,0,26-23.37V324.79a24.82,24.82,0,0,0-26-23.45H401.91a24.82,24.82,0,0,0-26,23.45v8H358.56A33.13,33.13,0,0,0,323.83,364a33.12,33.12,0,0,0,34.73,31h17.32v85.89a24.18,24.18,0,0,0,17.41,21.92v9.27a23.59,23.59,0,0,0,17.32,22V754.18a34.93,34.93,0,0,0,69.46,0V534.12A24.16,24.16,0,0,0,497.47,512.13ZM393.29,324.79a8.06,8.06,0,0,1,8-8.08,5.72,5.72,0,0,1,.58,0H836a8.06,8.06,0,0,1,8.68,7.39c0,.22,0,.44,0,.67V480.94a8.08,8.08,0,0,1-8,8.09l-.67,0H678.69A25.7,25.7,0,0,1,654,472.89l-3.95-10.72a33.76,33.76,0,0,0-41.73-18.78A31.16,31.16,0,0,0,587.64,462l-3.47,10.71a26,26,0,0,1-24.73,16.12H401.91a8.06,8.06,0,0,1-8.6-7.47,5.82,5.82,0,0,1,0-.59Zm-34.73,54.63a16.12,16.12,0,1,1,0-31.27h17.32v31.27ZM428,566.76h34.72v140.6H428Zm0-15.55V535.57h34.72v15.64Zm17.32,218.6A16.51,16.51,0,0,1,428,754.18V722.91h34.72v31.27A16.59,16.59,0,0,1,445.34,769.81Zm26-249.79H419.31a8,8,0,0,1-8.67-7.38c0-.23,0-.45,0-.68v-8h69.46v8a8.06,8.06,0,0,1-8.11,8,5.68,5.68,0,0,1-.59,0Z"/><path class="cls-3" d="M858.62,638.63l-66.8-46.17a196,196,0,0,0-213.77-3.38L501.1,638.47a7.33,7.33,0,0,0-2.66,10,8.64,8.64,0,0,0,.64.94,7.28,7.28,0,0,0,2,1.77l76.95,49.15A196,196,0,0,0,791.82,697l66.8-46.25a7.34,7.34,0,0,0,2.23-10.13,8.53,8.53,0,0,0-.62-.83,9.12,9.12,0,0,0-1.61-1.37Zm-337.54,6.21,67-43.11A173.45,173.45,0,0,1,671.68,575c-42.87,3.94-74,38.51-69.7,77.11,3.87,33.11,33,59.22,69.7,62.69a173.77,173.77,0,0,1-83.56-26.84ZM679.74,590.2c33.6,0,60.75,24.18,60.75,54.64s-27.4,54.71-60.75,54.71S619,675.37,619,644.84,646.22,590.29,679.74,590.2Zm101.6,94.68A174.86,174.86,0,0,1,682.4,715.1h-1.54c43.11,0,77.68-32.23,77.28-71s-34.81-69.05-77.28-69.46h1.54a176.11,176.11,0,0,1,98.94,30.22l57.78,40.29Z"/><path class="cls-3" d="M682.56,738.55v15.63a222.11,222.11,0,0,0,124.81-37.71l-10.56-12.41A202.94,202.94,0,0,1,682.56,738.55Z"/><path class="cls-3" d="M682.56,535.57a219.85,219.85,0,0,0-120.22,35L501,610.35,511.17,623l61.32-39.81a204.09,204.09,0,0,1,224.32,2.74l51.25,35.3,10.56-12.41-51.25-35.29A222,222,0,0,0,682.56,535.57Z"/><path class="cls-3" d="M679.74,684.24a39.24,39.24,0,1,0-43.43-39.08A41.41,41.41,0,0,0,679.74,684.24Zm0-62.45a23.53,23.53,0,1,1-26,23.37,24.82,24.82,0,0,1,25.89-23.7h.14Z"/></svg>