<svg id="Layer_1" data-name="Layer 1" xmlns="http://www.w3.org/2000/svg" viewBox="0 0 1200 1440"><defs><style>.cls-1{fill:#368ead;}.cls-2{fill:none;stroke:#f9f9f9;stroke-miterlimit:10;stroke-width:60px;}.cls-3{fill:#fff;}</style></defs><path class="cls-1" d="M600,9C311.11,9,76.09,244,76.09,532.91c0,350.07,449.59,854.19,468.7,875.44A74.13,74.13,0,0,0,600,1433h0a74.36,74.36,0,0,0,55.25-24.64c19.13-21.33,468.67-526.52,468.67-875.45C1123.91,244,888.89,9,600,9Zm0-1C311.11,8,76.09,243,76.09,531.91c0,350.07,449.59,854.19,468.7,875.44A74.13,74.13,0,0,0,600,1432h0a74.36,74.36,0,0,0,55.25-24.64c19.13-21.33,468.67-526.52,468.67-875.45C1123.91,243,888.89,8,600,8Zm11,1359.69a14.86,14.86,0,0,1-22.07,0c-4.53-5-453.51-508.25-453.51-835.78C135.49,275.77,343.86,67.4,600,67.4s464.51,208.39,464.51,464.51C1064.51,858.35,629.54,1347.07,611.05,1367.69Z"/><circle class="cls-2" cx="599.72" cy="527.21" r="400.28"/><path class="cls-3" d="M638,666a170.76,170.76,0,0,1-116.48,47.07c-101.59,0-184.32-93.58-184.32-208.57s82.59-208.65,184.32-208.65c59,0,111.59,31.62,145.34,80.68a136.75,136.75,0,0,1,18.71-18.64c-38.28-54.95-97.55-90.25-164.05-90.25C406.25,267.64,312.45,374,312.45,504.5s93.8,236.86,209.07,236.86A191.41,191.41,0,0,0,638,701.09Z"/><path class="cls-3" d="M757.75,359.8c-54.81,0-99.26,50.34-99.26,112.37s44.38,112.3,99.26,112.3S857,534.2,857,472.17,812.48,359.8,757.75,359.8Zm-81.6,76.5A102.4,102.4,0,0,1,691,407.94h26a50.51,50.51,0,0,0,1.85,28.36Zm85.07,18.36C743.71,457,727.9,442.89,725.77,423s10.42-37.72,27.94-40.06,33.32,11.77,35.44,31.55-10.21,37.79-27.65,40.13ZM796,436.3a52.9,52.9,0,0,0,2.69-23,25.68,25.68,0,0,0-.85-5.25h26.31A102.48,102.48,0,0,1,839,436.37Z"/><ellipse class="cls-3" cx="757.75" cy="418.79" rx="11.77" ry="13.33"/><polygon class="cls-3" points="740.8 601.63 752.64 670.11 764.41 601.63 740.8 601.63"/><path class="cls-3" d="M798.58,601.62h-24l-14.18,84.51,32.82-28.36L784.12,649a6.25,6.25,0,0,1-1.28-6.59Z"/><path class="cls-3" d="M712.37,657.92l32.83,28.35-14.61-84.65h-24l16.09,40.91a6.23,6.23,0,0,1-1.27,6.59Z"/><path class="cls-3" d="M819.78,601.62H809.22l-16.45,41.62,11,10.63a5.92,5.92,0,0,1,1.7,4.47,5.77,5.77,0,0,1-1.92,4.33l-46.22,39.7V787H819.5c18.07,0,32.75-16.59,32.75-37V638.63C852.53,618.21,837.93,601.62,819.78,601.62Zm12.48,140.16H817.44v16.81H797.31V741.78H782.49v-23h14.82V702.23h20.13v16.51h14.82Z"/><path class="cls-3" d="M747.61,702.37l-46.23-39.7a6.07,6.07,0,0,1-2-4.33,6.28,6.28,0,0,1,1.77-4.47l10.92-10.63-16.31-41.62h0c-18.15,0-32.75,16.59-32.75,37V750c0,20.42,14.68,37,32.75,37h52Z"/><path class="cls-3" d="M617.16,374.19a27.94,27.94,0,0,0-26.87,5.53,32.42,32.42,0,0,0-20.06-21.27,30.43,30.43,0,0,0-37.46,21.15c-.24.88-.45,1.77-.61,2.67a35.45,35.45,0,0,0,21.27,43.11l2.19.5-5.24,19.42a94.53,94.53,0,0,1,10.7,32.4A96,96,0,0,1,548,543.07,75.15,75.15,0,0,1,484.87,580H480.4a34.42,34.42,0,0,0-1.49,4.54,35.44,35.44,0,0,0,21.27,43.17,27.77,27.77,0,0,0,26.87-5.6,32.41,32.41,0,0,0,20.07,21.27,30.33,30.33,0,0,0,37.11-21.53c.21-.78.39-1.57.53-2.36a35.44,35.44,0,0,0-21.27-43.1,12,12,0,0,0-2.19-.57l36.44-135.34,2.12.85a30.42,30.42,0,0,0,37.47-21.13c.24-.86.44-1.74.6-2.62A35.45,35.45,0,0,0,617.16,374.19Z"/><path class="cls-3" d="M528.75,483.87a52.53,52.53,0,0,0-18.64-33.54,42.17,42.17,0,0,0-26.45-9.57,50.92,50.92,0,0,0-6.52.57l-24.95,88.76a52.52,52.52,0,0,0,5,4.75,41.68,41.68,0,0,0,26.37,9.5A44.55,44.55,0,0,0,521,522.51,56.73,56.73,0,0,0,528.75,483.87ZM472,524.63a4.25,4.25,0,1,1,3.73-4.72l0,.47a4.05,4.05,0,0,1-3.83,4.25H472ZM484,465a5,5,0,1,1,9.92-1.68,4.74,4.74,0,0,1,0,1.68,5,5,0,0,1-9.92,1.68A4.74,4.74,0,0,1,484,465Zm11.06,46.22a7.09,7.09,0,1,1,5.95-8.07c0,.33.07.65.08,1a6.53,6.53,0,0,1-5.93,7.07l-.46,0ZM507.77,501a5.18,5.18,0,1,1,4.58-5.71,5.19,5.19,0,0,1-4.57,5.71h0Z"/><path class="cls-3" d="M549,479.76a78,78,0,0,0-27.51-49.63,61.77,61.77,0,0,0-39-14.18,65.66,65.66,0,0,0-55.09,32.19A84.29,84.29,0,0,0,416,504.85a79.48,79.48,0,0,0,19.71,42l-32.61,42.54v.43l-1.35,1.77h0A19.73,19.73,0,0,0,398,602.9a17.51,17.51,0,0,0,16.31,18.43,15.74,15.74,0,0,0,13.4-8.08h0l28.14-50.48A60.86,60.86,0,0,0,482.46,569a65.58,65.58,0,0,0,55.09-32.25A83.83,83.83,0,0,0,549,479.76Zm-23.89,47a50.79,50.79,0,0,1-42.54,25,48,48,0,0,1-30.2-10.92,60.37,60.37,0,0,1-21.27-38.36A64.91,64.91,0,0,1,440,458.35a50.84,50.84,0,0,1,42.54-25,47.7,47.7,0,0,1,30.13,10.92,60,60,0,0,1,21.27,38.35A65,65,0,0,1,525.14,526.76Z"/></svg>