<svg id="Layer_1" data-name="Layer 1" xmlns="http://www.w3.org/2000/svg" viewBox="0 0 1200 1440"><defs><style>.cls-1{fill:#368ead;}.cls-2{fill:none;stroke:#f9f9f9;stroke-width:60px;}.cls-2,.cls-3{stroke-miterlimit:10;}.cls-3{fill:#fff;stroke:#fff;stroke-width:12px;}</style></defs><path class="cls-1" d="M600,9C311.11,9,76.09,244,76.09,532.91c0,350.07,449.59,854.19,468.7,875.44A74.13,74.13,0,0,0,600,1433h0a74.35,74.35,0,0,0,55.25-24.64c19.13-21.33,468.67-526.52,468.67-875.45C1123.91,244,888.89,9,600,9Zm0-1C311.11,8,76.09,243,76.09,531.91c0,350.07,449.59,854.19,468.7,875.44A74.13,74.13,0,0,0,600,1432h0a74.35,74.35,0,0,0,55.25-24.64c19.13-21.33,468.67-526.52,468.67-875.45C1123.91,243,888.89,8,600,8Zm11,1359.69a14.86,14.86,0,0,1-21,1.08,13.76,13.76,0,0,1-1.08-1.08c-4.53-5-453.51-508.25-453.51-835.78C135.49,275.77,343.86,67.4,600,67.4s464.51,208.39,464.51,464.51c0,326.44-435,815.16-453.46,835.78Z"/><circle class="cls-2" cx="599.72" cy="527.21" r="400.28"/><path class="cls-3" d="M376.45,715.72H750.39a50.23,50.23,0,0,0,50.34-50.1v-.18a50.23,50.23,0,0,0-.36-6l-14-80.79V291.44a7.21,7.21,0,0,0-7.21-7.21H635.35a7.21,7.21,0,0,0-7.21,7.21h0V560.61L524.82,629.76l-91.37,14H405.22a36,36,0,0,0-36,36v28.78a7.15,7.15,0,0,0,7.15,7.15h.06ZM598,701.36l-19.1-90.23,50.7-33.82L642,701.36Zm44.57-258.9H772V500H642.56ZM772,571.13,642.56,558.21V514.36H772ZM656.26,701.36,643.4,572.63l57.31,6,13,122.9Zm120.92-12a36.05,36.05,0,0,1-26.79,12H728.1L715.31,580,773,586l13.09,75.69a36.07,36.07,0,0,1-9,27.76ZM772,298.89V428.1H642.56V298.65ZM528.55,643.75a7.31,7.31,0,0,0,2.94-1.14l34.3-22.89,17.54,81.64H441.2V657.21ZM426.79,701.36H412.43V658.23h14.36Z"/></svg>