<svg id="Layer_1" data-name="Layer 1" xmlns="http://www.w3.org/2000/svg" viewBox="0 0 1200 1440"><defs><style>.cls-1{fill:#368ead;}.cls-2{fill:none;stroke:#f9f9f9;stroke-miterlimit:10;stroke-width:60px;}.cls-3{fill:#fff;}</style></defs><path class="cls-1" d="M600,9C311.11,9,76.09,244,76.09,532.91c0,350.07,449.59,854.19,468.7,875.44A74.13,74.13,0,0,0,600,1433h0a74.36,74.36,0,0,0,55.25-24.64c19.13-21.33,468.67-526.52,468.67-875.45C1123.91,244,888.89,9,600,9Zm0-1C311.11,8,76.09,243,76.09,531.91c0,350.07,449.59,854.19,468.7,875.44A74.13,74.13,0,0,0,600,1432h0a74.36,74.36,0,0,0,55.25-24.64c19.13-21.33,468.67-526.52,468.67-875.45C1123.91,243,888.89,8,600,8Zm11,1359.69a14.86,14.86,0,0,1-22.07,0c-4.53-5-453.51-508.25-453.51-835.78C135.49,275.77,343.86,67.4,600,67.4s464.51,208.39,464.51,464.51C1064.51,858.35,629.54,1347.07,611.05,1367.69Z"/><circle class="cls-2" cx="599.72" cy="527.21" r="400.28"/><path class="cls-3" d="M652.37,325c0-28-20.53-50.6-46.06-50.6S560.25,297,560.25,325s20.46,50.66,46.06,50.66S652.37,353.32,652.37,325Z"/><path class="cls-3" d="M409.63,688.05H365a15,15,0,0,0-15.4,13.16v41.26s-1.12,18.82,17.11,18.82h458c18,0,17.3-19.35,17.3-19.35V727a8.09,8.09,0,0,0-7.09-9,8.35,8.35,0,0,0-2.12,0H466.88C437.53,718.05,424.9,688.05,409.63,688.05Z"/><path class="cls-3" d="M389.82,580.92c-22.83,0-41.39,20.4-41.39,45.67s18.56,45.6,41.39,45.6,41.33-20.46,41.33-45.6S412.59,580.92,389.82,580.92Z"/><path class="cls-3" d="M565.58,538.94l-20.53-54V590.2h62.12l13.62-14.87L583.94,560.2a31.31,31.31,0,0,1-17.7-20.66S565.91,539.21,565.58,538.94Z"/><path class="cls-3" d="M437.86,658.11c0,23.75,17.24,43,38.82,43.16H616.05a18.88,18.88,0,0,0-.33-37.57H543.67L485,650.15l3.16-16.72,57.11,13.16h70.41a34.42,34.42,0,0,1,32.51,35.73,38.76,38.76,0,0,1-4.94,18.76h176a24,24,0,0,0,22.63-24.94,24.61,24.61,0,0,0-17.56-24.35L667.51,637.84,697.91,587h76.65a23.62,23.62,0,0,0,22.71-24.5v-.18a24,24,0,0,0-22.71-24.74h-78a37.5,37.5,0,0,1,2.89,32A32.88,32.88,0,0,1,658,590.2l-21.58-8.75-31,33.43H477C455.3,614.88,437.79,634.29,437.86,658.11Z"/><path class="cls-3" d="M589.79,545.66A19,19,0,0,1,579.4,534.8L547,447.94c-7.17-20.07-.39-58.83,34.75-58.83h61.92A39.47,39.47,0,0,1,674,400.76c3,3.49,99.36,120.35,99.36,120.35H718.3l-48.62-58.76v55.8l-49.81-20.07L602.69,452l-13.16,5.4,20.2,53.82,65.41,27.18a20.73,20.73,0,0,1,9.21,26.32,17.38,17.38,0,0,1-22.06,10.82c-.53-.18-1-.39-1.56-.62Z"/></svg>