<svg id="Layer_1" data-name="Layer 1" xmlns="http://www.w3.org/2000/svg" viewBox="0 0 1200 1440"><defs><style>.cls-1{fill:#368ead;}.cls-2{fill:none;stroke:#f9f9f9;stroke-miterlimit:10;stroke-width:60px;}.cls-3{fill:#fff;}</style></defs><path class="cls-1" d="M600,9C311.11,9,76.09,244,76.09,532.91c0,350.07,449.59,854.19,468.7,875.44A74.13,74.13,0,0,0,600,1433h0a74.36,74.36,0,0,0,55.25-24.64c19.13-21.33,468.67-526.52,468.67-875.45C1123.91,244,888.89,9,600,9Zm0-1C311.11,8,76.09,243,76.09,531.91c0,350.07,449.59,854.19,468.7,875.44A74.13,74.13,0,0,0,600,1432h0a74.36,74.36,0,0,0,55.25-24.64c19.13-21.33,468.67-526.52,468.67-875.45C1123.91,243,888.89,8,600,8Zm11,1359.69a14.86,14.86,0,0,1-22.07,0c-4.53-5-453.51-508.25-453.51-835.78C135.49,275.77,343.86,67.4,600,67.4s464.51,208.39,464.51,464.51C1064.51,858.35,629.54,1347.07,611.05,1367.69Z"/><circle class="cls-2" cx="599.72" cy="527.21" r="400.28"/><path class="cls-3" d="M587.53,226c-34.16,0-61.06,24.42-61.06,54.48s26.9,54.57,61.06,54.57,61.15-24.42,61.15-54.57S620.92,226,587.53,226Zm-35.1,118.87c-36.72,0-66.69,26.73-66.69,59.78v66.78c90.78,10.59,161.57,80,161.57,163.7v4.44h18.1v7.86h0v19.9h0v23.82a47.23,47.23,0,0,0-41.24,44.49c0,24.94,23,45.35,51.23,45.35s51.24-20.41,51.24-45.35a46.78,46.78,0,0,0-38.43-43.8V667.33h26.22l40.14,73.61,2.39,4.44a13.93,13.93,0,0,0,0,7.94,19.3,19.3,0,0,0,23.23,12l74.89-17.85a17.08,17.08,0,0,0,13.55-20c0-.23-.09-.45-.15-.67a19.29,19.29,0,0,0-23.22-12L774,732l-42.7-78.73a11.42,11.42,0,0,0-10-5.64H687.19V624.46h0V533.17a10.42,10.42,0,0,0-11-9.83H619.13v-31l4.35,1.88c6.24,2.48,12.13,4.61,17.08,6.23a44.1,44.1,0,0,0,14.43,3h61.49a34.16,34.16,0,1,0,0-68.31h-55a231.77,231.77,0,0,1-42.69-28v-2.4C619.13,371.6,589.15,344.87,552.43,344.87Zm-231.25,19.9A20,20,0,1,0,316,404.39a19.76,19.76,0,0,0,5.21,0h65.33a22.71,22.71,0,0,0,19.13-9.56h24.59v76.85a201.76,201.76,0,0,1,30.66-2.47h2.65V389.53a15.54,15.54,0,0,0-16.19-14.86H405.64a22.74,22.74,0,0,0-19.13-9.9ZM460.89,489.28c-90.35,0-163.71,65.41-163.71,145.85S370.71,781,461.06,781s164-65.41,164-145.86S551.32,489.28,460.89,489.28Zm0,52.69c57.73,0,104.78,41.84,104.78,93.16s-47,93.26-104.78,93.26-104.78-41.85-104.78-93.26S403.16,542,460.89,542Zm248.42,5.55v72.07l29.54,14.35,37.58,63.7c25.1,36.47,86.33,1.37,62-34.16l-51.24-80.27ZM460.89,561.69c-45.77,0-82.58,32.88-82.58,73.44s36.81,73.44,82.58,73.44,82.58-32.79,82.58-73.44S506.66,561.69,460.89,561.69Zm0,40.14a33.56,33.56,0,1,1-37.4,33.3A35.69,35.69,0,0,1,460.89,601.83Zm0,19.81a13.66,13.66,0,1,0,15.63,13.49,14.17,14.17,0,0,0-14.77-13.55C461.46,621.59,461.17,621.61,460.89,621.64Z"/></svg>