<svg id="Layer_1" data-name="Layer 1" xmlns="http://www.w3.org/2000/svg" viewBox="0 0 1200 1440"><defs><style>.cls-1{fill:#368ead;}.cls-2{fill:none;stroke:#f9f9f9;stroke-miterlimit:10;stroke-width:60px;}.cls-3{fill:#fdfdff;}</style></defs><path class="cls-1" d="M600,9C311.11,9,76.09,244,76.09,532.91c0,350.07,449.59,854.19,468.7,875.44A74.13,74.13,0,0,0,600,1433h0a74.36,74.36,0,0,0,55.25-24.64c19.13-21.33,468.67-526.52,468.67-875.45C1123.91,244,888.89,9,600,9Zm0-1C311.11,8,76.09,243,76.09,531.91c0,350.07,449.59,854.19,468.7,875.44A74.13,74.13,0,0,0,600,1432h0a74.36,74.36,0,0,0,55.25-24.64c19.13-21.33,468.67-526.52,468.67-875.45C1123.91,243,888.89,8,600,8Zm11,1359.69a14.86,14.86,0,0,1-22.07,0c-4.53-5-453.51-508.25-453.51-835.78C135.49,275.77,343.86,67.4,600,67.4s464.51,208.39,464.51,464.51C1064.51,858.35,629.54,1347.07,611.05,1367.69Z"/><circle class="cls-2" cx="599.72" cy="527.21" r="400.28"/><path class="cls-3" d="M871.9,435.71H836.36a261,261,0,0,0-8.1-58.06A16.19,16.19,0,0,0,812.55,366h-32c-42.22-106.36-162.67-158.37-269-116.15A207.19,207.19,0,0,0,395.39,366H363.73a16.19,16.19,0,0,0-15.79,12,251.19,251.19,0,0,0-8.1,58H305.1a8.1,8.1,0,0,0-8.1,8.1V683.88a69.8,69.8,0,0,0,69.8,69.8h66.56a32.61,32.61,0,0,0,0,5.59V777a15.55,15.55,0,0,0,15.55,15.55H728.42A15.72,15.72,0,0,0,744.05,777V753.84h66.56a69.87,69.87,0,0,0,69.39-70V443.8A8.1,8.1,0,0,0,871.9,435.71Zm-89.07,77.16.81-2.18a215.79,215.79,0,0,0,8.59-33.36v-1.22q1.21-7.69,1.94-15.55V430.77a41.66,41.66,0,0,0-.65-9c-.65-3-.56-5-.89-7.37L792,410a2.73,2.73,0,0,0,0-2.27,23.16,23.16,0,0,0-.81-4.69,22.18,22.18,0,0,0-1-5c-.48-1.94-.48-2.51-.81-3.64l-1.46-6c-.64-2.11-1.21-4.21-1.86-6.32h26.07a241.64,241.64,0,0,1,8.1,60.41v1.54a232.93,232.93,0,0,1-50.93,143.56l-5.42,6.8H761.7l-9.07-26c1.78-2.35,3.4-4.78,5.1-7.21l3.24-4.53c2.27-3.4,4.37-7,6.4-10.45.81-1.45,1.7-2.75,2.51-4.21,2.1-3.8,4-8.09,5.83-11.74.57-1.13,1.21-2.27,1.7-3.48,1.7-4.78,3.8-9.39,5.51-13.93ZM693.77,705.58V718H483.24V705.58Zm-191-16.19V652h171.5v37.41Zm-74.49-53.6a14.17,14.17,0,0,1-14.17-14.17V611a1,1,0,0,1,.49-1H761.46a2.11,2.11,0,0,1,.48,1v10.36a14.16,14.16,0,0,1-14.17,14.17h0l-65.58.65Zm160.16-327a133,133,0,0,0-133.2,132.72h0a127.58,127.58,0,0,0,3.08,28.82l-7.21,19.84-4-14.58a135.15,135.15,0,0,1-4-33.27,144.54,144.54,0,1,1,285.18,33.27l-3.56,14.58-7-19.84a135.51,135.51,0,0,0,3.16-28.1A133.12,133.12,0,0,0,588.42,308.74ZM704.94,442.18A117.28,117.28,0,0,1,703.72,459H472.23a105.47,105.47,0,0,1-.81-16.85,116.92,116.92,0,0,1,233.84,0ZM457.09,521.29l13.36-37.73,2.91-8.1H702.51l16.19,45.91,17,48,8.1,22.83.56,1.54H431.42l8.66-24.29h0Zm-60.33-78.86V431.82a112.23,112.23,0,0,1,1.78-17.25v-2C415.34,308.13,513.6,237.09,618,253.89A191.48,191.48,0,0,1,776.68,412.55a8.53,8.53,0,0,0,0,2c.81,5.83,1.46,11.74,1.78,17.74V445.5a87.12,87.12,0,0,1-.65,13.12,16,16,0,0,1-.64,5.59c-.33,3.08-.73,6.15-1.22,9.23a38.35,38.35,0,0,1-1.21,6.72c0,2.19-1.06,5.26-1.7,8.1s-1.22,4.86-1.95,7.2-1.37,4.7-2.18,7.05-1.62,4.94-2.51,7.37-1.78,4.37-2.68,6.56-2,4.85-3.15,7.2-2.11,4.21-3.16,6.24-2.43,4.77-3.73,7.12L750,543.07c-1.46,2.27-2.75,4.54-4.29,6.73l-11.18-31.58,9.4-38.87a160.77,160.77,0,1,0-317.09-38,157.59,157.59,0,0,0,4.13,38l9.39,38.54-11.17,31.58c-1.3-2-2.59-4.05-3.81-6.15s-2.83-4.37-4.12-6.64-2.43-4.54-3.57-6.8-2.26-4.29-3.32-6.56-2.1-4.62-3.07-7-1.87-4.53-2.76-6.88-1.7-4.69-2.51-7-1.54-4.86-2.18-7.37-1.3-4.54-1.87-6.88-1.21-5.43-1.78-8.1-.89-4.29-1.21-6.48-.89-6.4-1.3-9.63a15.93,15.93,0,0,0-.56-5.11c0-4.61-.57-9.31-.65-14Zm-33-60.25h25.91c-.65,2.11-1.22,4.3-1.87,6.48l-1.45,5.75a27.61,27.61,0,0,1-.89,4.13c0,1.7-.65,2.83-1,4.7s-.56,3-.81,4.45a8.25,8.25,0,0,0,0,2.43v2.1a10,10,0,0,0,0,2.19,65.69,65.69,0,0,1-1,7.53c0,2.67-.48,5.91-.64,8.83V442.1a7.66,7.66,0,0,0,0,2V450a74,74,0,0,0,.48,10.52c.49,3.49,1,7.62,1.46,11.42a30.2,30.2,0,0,0,.73,5.35,147.76,147.76,0,0,0,3.56,16.76v1c1.38,5.18,2.91,10.28,4.7,15.38l1.29,3.24c1.54,4.21,3.16,8.1,4.94,12.55.65,1.38,1.38,2.76,2.11,4.21,1.7,3.73,3.48,7.37,5.5,11,.89,1.53,1.86,3.07,2.76,4.69,1.94,3.32,4,6.64,6.15,10,1.05,1.62,2.27,3.24,3.48,4.94s3.16,4.62,4.86,6.88l-9.31,25.75h-2l-5.42-6.8a174,174,0,0,1-11.5-15.63,232.27,232.27,0,0,1-39.43-127.93l-.89-1.05A226.43,226.43,0,0,1,363.73,382.18Zm81.78,348.18c0,.49-.89.89-1.3,1.3a41.88,41.88,0,0,0-4.7,6.07H366.64a53.6,53.6,0,0,1-53.6-53.2V451.9h26.39a28.36,28.36,0,0,0,.57,6.88c.57,2.27.41,6.16.73,9.23s.89,7.37,1.46,11,.89,6.07,1.45,9.07,1.54,7.28,2.43,10.93,1.3,5.91,2.11,8.82,2.19,7.21,3.32,10.77a82.59,82.59,0,0,0,2.83,8.1c1.06,2.43,2.84,7.21,4.29,10.77l3.32,8.09c1.14,2.76,3.65,7.29,5.51,10.86s2.35,4.85,3.64,7.2c2.27,3.89,4.7,8.1,7.13,11.5,1.13,1.94,2.27,3.89,3.48,5.75,3.81,5.59,8.1,11.09,12.07,16.19l5.42,6.72a11.21,11.21,0,0,0-.73,2.11V607a11.67,11.67,0,0,0,0,3.73v10.36a30.29,30.29,0,0,0,30.2,30.37h58.47v37.4h-12a8.1,8.1,0,0,0-8.09,8.1v21.7h-1.14a49.09,49.09,0,0,0-6.07,1.78l-1.62.65a37.85,37.85,0,0,0-6.64,3.56l-1.13.81a40.53,40.53,0,0,0-4.94,4.21Zm282.34,46.16H449.15V759.43a22.93,22.93,0,0,1,2.27-10.36,25.41,25.41,0,0,1,23.72-14.9H702.59a27.79,27.79,0,0,1,3.65,0,25.34,25.34,0,0,1,21.61,24.94Zm136-92.64a53.7,53.7,0,0,1-53.61,53.61H737.81a48.48,48.48,0,0,0-4.69-6.08l-1.22-1a44.85,44.85,0,0,0-5.18-4.45l-.57-.65a49.63,49.63,0,0,0-7.12-3.8h-.49a52.2,52.2,0,0,0-7.53-2.27h-1v-21.7a8.1,8.1,0,0,0-8.1-8.1H690.45V652h57.24a30.45,30.45,0,0,0,30.45-30.36V611a28.86,28.86,0,0,0,0-3.72,1.85,1.85,0,0,0,0-1.14,3.54,3.54,0,0,0-.65-2.1l5.34-6.81c4.3-5.26,8.1-10.76,12.07-16.19,1.21-1.86,2.35-3.81,3.56-5.75,2.43-3.8,4.86-7.61,7-11.5,1.29-2.34,2.43-4.77,3.64-7.12,1.86-3.65,3.81-7.21,5.51-10.93s2.18-5.27,3.32-8.1,3-7.21,4.37-10.93,1.78-5.51,2.67-8.1,2.43-7.29,3.4-11,1.46-5.75,2.11-8.66,1.78-7.37,2.43-11.1,1-5.91,1.45-8.9,1.14-7.37,1.46-11.18.57-6.07.73-9.07.49-4.61.57-7h27Z"/><path class="cls-3" d="M823.32,622.91v61A13.19,13.19,0,0,1,810.2,697a8.1,8.1,0,0,0,0,16.2,29.4,29.4,0,0,0,29.31-29.32v-61a8.1,8.1,0,0,0-16.19,0Z"/><path class="cls-3" d="M777.17,697.16H770a8.1,8.1,0,1,0,0,16.2h7.13a8.1,8.1,0,0,0,0-16.2Z"/></svg>