<svg id="Layer_1" data-name="Layer 1" xmlns="http://www.w3.org/2000/svg" viewBox="0 0 1200 1440"><defs><style>.cls-1{fill:#368ead;}.cls-2{fill:none;stroke:#f9f9f9;stroke-miterlimit:10;stroke-width:60px;}.cls-3{fill:#fff;}</style></defs><path class="cls-1" d="M600,9C311.11,9,76.09,244,76.09,532.91c0,350.07,449.59,854.19,468.7,875.44A74.13,74.13,0,0,0,600,1433h0a74.35,74.35,0,0,0,55.25-24.64c19.13-21.33,468.67-526.52,468.67-875.45C1123.91,244,888.89,9,600,9Zm0-1C311.11,8,76.09,243,76.09,531.91c0,350.07,449.59,854.19,468.7,875.44A74.13,74.13,0,0,0,600,1432h0a74.35,74.35,0,0,0,55.25-24.64c19.13-21.33,468.67-526.52,468.67-875.45C1123.91,243,888.89,8,600,8Zm11,1359.69a14.86,14.86,0,0,1-21,1.08,13.76,13.76,0,0,1-1.08-1.08c-4.53-5-453.51-508.25-453.51-835.78C135.49,275.77,343.86,67.4,600,67.4s464.51,208.39,464.51,464.51c0,326.44-435,815.16-453.46,835.78Z"/><circle class="cls-2" cx="599.72" cy="527.21" r="400.28"/><path class="cls-3" d="M432.39,620.86l-14.24,11.68c2.57,3.2,5.27,6.41,8,9.47l14.24-12.46A90.78,90.78,0,0,1,432.39,620.86Z"/><path class="cls-3" d="M734.22,654.18l11.68,14.24a236.85,236.85,0,0,0,36.74-36.88L768,620.29A217.22,217.22,0,0,1,734.22,654.18Z"/><path class="cls-3" d="M826.22,543.6c.56-2.2,1.21-4.41,1.63-6.62.79-3.34,1.36-7.12,1.93-10.18,0-2.13.85-4.2,1.13-6.34.57-3.84.93-7.61,1.29-11.46,0-1.78.42-3.56.57-5.41.42-5.63.64-11.32.64-17a233.47,233.47,0,0,0-169-224.07,74.39,74.39,0,0,0-128.87,0,233.48,233.48,0,0,0-169,224.14,150.61,150.61,0,0,0,.64,17c0,1.85.43,3.63.57,5.48.36,3.78.72,7.62,1.29,11.4,0,2.13.78,4.27,1.13,6.47.57,3.35,1.14,6.7,1.86,10s1.14,4.56,1.78,7.12,1.21,5.27,1.92,7.84L336.56,748H863.45L824.22,551.72C824.93,549,825.57,546.31,826.22,543.6ZM675.41,426.12l2.92,3.92c1.35,1.92,2.7,3.91,4,6s1.71,2.78,2.5,4.27,2.13,4.2,3.13,6.34,1.35,3,2,4.55,1.64,4.56,2.35,7.12,1,3,1.43,4.49c.64,2.63,1.14,5.27,1.56,8a38.75,38.75,0,0,0,.72,3.92,99.74,99.74,0,0,1,.85,12V497a52.11,52.11,0,0,1-.64,5.2c-.29,1.71,0,1.92-.57,2.92s-.57,3.13-1,4.62-.57,2.07-.85,3.14-.78,2.84-1.28,4.27-.72,2.06-1.07,3.13l-1.64,4.06c-.43,1-.92,2.07-1.42,3.06s-1.21,2.64-1.85,3.85l-1.71,3.06c-.71,1.21-1.43,2.42-2.21,3.63l-1.92,3-1.21,1.71H521.18L520,541l-1.92-3c-.78-1.21-1.49-2.42-2.21-3.63l-1.71-3.06c-.64-1.28-1.28-2.57-1.85-3.85s-1-2.06-1.42-3.06l-1.64-4.06c0-1.07-.78-2.06-1.14-3.13l-1.28-4.27-.85-3.14a27.41,27.41,0,0,0-.93-4.62c-.28-1.57-.43-1.93-.57-2.92s-.5-3.49-.64-5.2a14.64,14.64,0,0,1,0-2.56c0-2.57-.36-5.2-.36-7.84a99,99,0,0,1,.86-12.17,24,24,0,0,1,.71-3.92,74.58,74.58,0,0,1,1.64-8c0-1.5.85-3,1.35-4.49s1.5-4.7,2.35-7.12a33.52,33.52,0,0,1,2-4.49c.72-1.49,2-4.27,3.14-6.33L518,435.8c1.28-2,2.63-4,4-5.91l2.92-3.91c1.56-1.92,3.2-3.7,4.91-5.56s2.06-2.27,3.2-3.34,4.06-3.7,6.13-5.41l3-2.5.64-.42,4.13,12.39h106.8l4.13-12.39.64.42,3,2.5c2.14,1.71,4.2,3.49,6.2,5.41a36.76,36.76,0,0,1,3.13,3.34C671.78,421.56,673.84,424.2,675.41,426.12Zm29.83,151.16.93,1.43A37.73,37.73,0,0,1,709,584v.5a38.16,38.16,0,0,1,1.49,4.84H489.29a3.21,3.21,0,0,1,.64-2.28c.64-.78.35-1.28.64-1.92a34.12,34.12,0,0,1,2.06-4.42l.43-.85a41.55,41.55,0,0,1,3.42-4.92l.85-.92a35.31,35.31,0,0,1,3.35-3.35l1.35-1.14a38.05,38.05,0,0,1,3.49-2.42l1.57-1a44.22,44.22,0,0,1,4.13-1.92l1.42-.57a41.6,41.6,0,0,1,6-1.71,46.82,46.82,0,0,1,6.69-.57H674.84a46.82,46.82,0,0,1,6.69.57,37.58,37.58,0,0,1,19.58,10.19A39.69,39.69,0,0,1,705.24,577.28ZM506.66,701V636.17H693.35v65.36H506.66Zm197.66-83.59H495.69a26.77,26.77,0,0,1-20.29-9.68H724.61A26.77,26.77,0,0,1,704.32,617.37ZM640.23,402.62H560.06l-2.78-9.32h86.16Zm28.49-63.44a3.77,3.77,0,0,1,.49.93,4.59,4.59,0,0,1,0,3.49l-10.39,31H541.41l-10.4-31a4.71,4.71,0,0,1,.71-4.42,4.57,4.57,0,0,1,3.78-1.92h129a4.57,4.57,0,0,1,3.78,1.92ZM649.85,274.6a56.1,56.1,0,0,1,6,25.35v18.66H544V300A56,56,0,0,1,649.85,274.6ZM359.34,729.37l28.91-144.54a244.06,244.06,0,0,0,15.59,28.48l15.67-10.18c-64.34-99.54-35.8-232.39,63.74-296.73a215.16,215.16,0,0,1,43.63-21.62,30.7,30.7,0,0,1-.64,4.21c-.21,1.42,0,1.78-.43,2.63a82.93,82.93,0,0,0-.5,8.33v20.93h0a22.12,22.12,0,0,0-3.63,2,11.33,11.33,0,0,0-1.49,1,24.82,24.82,0,0,0-3.92,4.21A23.63,23.63,0,0,0,513,349.44l14.66,43.79h4.06l-.78.85-4.13,3.49c-2.35,1.92-4.7,3.84-7.12,5.91a33.86,33.86,0,0,0-4.06,4.27c-1.35,1.42-3.84,4.2-5.7,6.41l-3.56,4.77c-1.63,2.28-3.2,4.63-4.7,7.12s-2.06,3.49-3.06,5.2-2.56,5.05-3.77,7.62-1.64,3.56-2.35,5.41-2,5.48-2.85,8.26-1.21,3.56-1.64,5.34a89.72,89.72,0,0,0-1.92,9.47c0,1.56-.64,3.13-.85,4.7a111.1,111.1,0,0,0-1,14.24v11.82a35.12,35.12,0,0,0,.78,6c.36,2,.36,2.2.57,3.27s.71,3.63,1.14,5.41.5,2.28.79,3.35,1,3.56,1.56,5.34l1.07,3.06c.64,2,1.42,3.92,2.28,5.91a20.49,20.49,0,0,0,.92,2.28,87.1,87.1,0,0,0,3.85,7.9l.85,1.5,3.06,5.27q-2,.93-4,2.06l-1.5.86a46.92,46.92,0,0,0-7.12,4.91l-1.56,1.35a61.34,61.34,0,0,0-4.77,4.77l-1.5,1.78a49,49,0,0,0-4.84,7.12,4.25,4.25,0,0,0-.5,1,62.43,62.43,0,0,0-3.2,6.77l-.86,2.27a66,66,0,0,0-2,7.12,8.14,8.14,0,0,1,0,1.21H445.92l7.84,18.73a52.68,52.68,0,0,0,2.91,5.7c.36.57.72,1.14,1.14,1.71s1.57,2.35,2.42,3.41L461.8,620c.86.92,1.71,1.85,2.71,2.77l1.78,1.64,3,2.35,2,1.35c1.14.71,2.35,1.36,3.56,2l1.78,1a56.67,56.67,0,0,0,5.77,2.21h0A37.46,37.46,0,0,0,488,634.6v34.46a216.14,216.14,0,0,1-40-31.54l-13.17,13.89A232.22,232.22,0,0,0,488,691.14V702.6a46.94,46.94,0,0,0-28.48,19.51l-4.77,7.12Zm118.41,0A27.93,27.93,0,0,1,498.61,720H701.4a27.93,27.93,0,0,1,20.86,9.33Zm363.13,0H745l-4.77-7.12a47,47,0,0,0-28.48-19.51V691.35c5.13-2.78,10.26-5.77,15.1-8.9l-10.11-15.66-5,3.13V635.38a44.16,44.16,0,0,0,5.56-1.35h0a54.25,54.25,0,0,0,5.76-2.21l1.78-1c1.21-.64,2.42-1.28,3.56-2l2-1.35,3-2.35,1.85-1.64,2.63-2.77,1.57-1.78c.86-1.14,1.64-2.28,2.42-3.49s.78-1.07,1.14-1.71A46.36,46.36,0,0,0,746,608l7.83-18.72H730a1.82,1.82,0,0,1,0-.57,63.87,63.87,0,0,0-1.78-7.12,1.64,1.64,0,0,0-.57-1.43,42.94,42.94,0,0,0-2.63-6.26l-.43-1a61.25,61.25,0,0,0-4-6.41,17.3,17.3,0,0,1-1-1.42,57.26,57.26,0,0,0-5.12-6,63.32,63.32,0,0,0-7.12-6l-2.57-1.57a52,52,0,0,0-5.48-3.13,5.78,5.78,0,0,0-1.07-.57c1.14-1.78,2.14-3.63,3.14-5.49a13.63,13.63,0,0,0,.78-1.28,79.93,79.93,0,0,0,3.84-7.9,21.11,21.11,0,0,0,.86-2.42c.78-1.92,1.64-3.92,2.28-5.84s.71-2.06,1-3.13,1.14-3.56,1.64-5.34a28.1,28.1,0,0,0,.78-3.35c.22-1.14.79-3.56,1.14-5.41s.43-2.14.57-3.28.57-4,.79-6V486.64a111.23,111.23,0,0,0-1-14.24,27.83,27.83,0,0,0-.85-4.7c-.57-3.2-1.14-6.41-1.93-9.47-.5-1.85-1.06-3.63-1.63-5.41s-1.78-5.55-2.85-8.26-1.57-3.63-2.42-5.41-2.35-5.13-3.71-7.62-2-3.42-3.06-5.12-3.06-4.7-4.7-7.12a51.43,51.43,0,0,0-3.63-4.85c-1.28-1.56-3.7-4.34-5.62-6.4s-2.64-2.85-4.06-4.21a87.07,87.07,0,0,0-7.12-6c-2.64-1.92-2.71-2.35-4.2-3.49l-1-.85h4.06L686,349.65a24,24,0,0,0-7.2-25.56l-.42-1.21a22.52,22.52,0,0,0-3.21-2.07h0V300a78.57,78.57,0,0,0-.49-8.26l-.43-2.78a9.34,9.34,0,0,0-.64-4.13A214.89,214.89,0,0,1,814.75,486.64a137,137,0,0,1-.71,17.09,208.47,208.47,0,0,1-8.62,45.57,211.22,211.22,0,0,1-14.24,35.6l16.45,8.55c1.5-2.85,2.71-5.84,4.06-8.83Z"/><path class="cls-3" d="M619.8,446.56l-13.17-13.18a9.69,9.69,0,0,1-13.25,0l-13.17,13.18A28.07,28.07,0,0,0,619.8,446.56Z"/><path class="cls-3" d="M639.59,466.35l-13.17-13.17a37.44,37.44,0,0,1-52.83,0l-13.17,13.17a55.89,55.89,0,0,0,79,.13Z"/><path class="cls-3" d="M600,492.13A65.07,65.07,0,0,1,553.79,473l-13.17,13.17a83.87,83.87,0,0,0,118.62.15l.15-.15L646.22,473A65.06,65.06,0,0,1,600,492.13Z"/></svg>