<svg id="Layer_1" data-name="Layer 1" xmlns="http://www.w3.org/2000/svg" viewBox="0 0 1200 1440"><defs><style>.cls-1{fill:#368ead;}.cls-2{fill:none;stroke:#f9f9f9;stroke-miterlimit:10;stroke-width:60px;}.cls-3{fill:#fff;}</style></defs><path class="cls-1" d="M600,9C311.11,9,76.09,244,76.09,532.91c0,350.07,449.59,854.19,468.7,875.44A74.13,74.13,0,0,0,600,1433h0a74.36,74.36,0,0,0,55.25-24.64c19.13-21.33,468.67-526.52,468.67-875.45C1123.91,244,888.89,9,600,9Zm0-1C311.11,8,76.09,243,76.09,531.91c0,350.07,449.59,854.19,468.7,875.44A74.13,74.13,0,0,0,600,1432h0a74.36,74.36,0,0,0,55.25-24.64c19.13-21.33,468.67-526.52,468.67-875.45C1123.91,243,888.89,8,600,8Zm11,1359.69a14.86,14.86,0,0,1-22.07,0c-4.53-5-453.51-508.25-453.51-835.78C135.49,275.77,343.86,67.4,600,67.4s464.51,208.39,464.51,464.51C1064.51,858.35,629.54,1347.07,611.05,1367.69Z"/><circle class="cls-2" cx="599.72" cy="527.21" r="400.28"/><path class="cls-3" d="M434,487.53c4.51,32.63,20.68,75.19,71,79.62,49.7-1.88,65.41-43.91,70.37-75.86,3.91,3.16,11.21,1.88,18.5-28.19,6.09-24.44,2.18-32.63-2.78-34.51,16.69-92.18-22.56-95.26-22.56-95.26a59,59,0,0,0-21.8-22.56,67.08,67.08,0,0,0-44.14-10.6,76,76,0,0,0-17.89,3.76,68.88,68.88,0,0,0-19.55,11.28A148.11,148.11,0,0,0,445,334a98.42,98.42,0,0,0-21.81,42.63,92,92,0,0,0,1.66,47.59c-7.52-.6-15.64,3.76-7.52,35.12C422.78,481.89,427.82,488.13,434,487.53Z"/><path class="cls-3" d="M785.78,298.81H715c-49.7,0-90.23,45.79-90.23,101a106.69,106.69,0,0,0,16.77,58.27C637.06,468.73,629.84,483.17,617,490a5.19,5.19,0,0,0,1.12,9.48,58.66,58.66,0,0,0,49.7-13.84,85.65,85.65,0,0,0,46.69,14.59H785c49.7,0,90.22-45.79,91-100.3C876,343.93,835.17,298.81,785.78,298.81Zm-91.95,121a15.07,15.07,0,0,1-9-2.26,20.37,20.37,0,0,1-9.48-15.64v-5a20.4,20.4,0,0,1,9.48-15.72,15,15,0,0,1,9-2.48,19.79,19.79,0,0,1,18.42,20.68,18.94,18.94,0,0,1-17.38,20.39Zm57,1.28A20.83,20.83,0,1,1,769.1,398a21.82,21.82,0,0,1,.14,2.42A19.11,19.11,0,0,1,751.79,421C751.47,421,751.14,421.06,750.82,421.07Zm57.59,3.15c-1.73,0-2.78-.6-3.91-.6a7.35,7.35,0,0,1-3.38-1.28,22.55,22.55,0,0,1,0-38.87,7,7,0,0,1,3.38-1.27,8.86,8.86,0,0,1,3.91-.61,19.86,19.86,0,0,1,18.42,20.91,22,22,0,0,1-18.5,21.72Z"/><path class="cls-3" d="M631.27,600.38A346,346,0,0,1,564.73,564l-31.8,113.54-4.51,15.63-48.35-.67c-4.43,4.36,7.52,0,0,0-4.28,0,3.24,1.58,0,0s2.78,2.63,0,0l2,.67-4.51-15.63-6.47-23c-1.05-3.91-1.05-3.91-3.16-11.43L445.71,564a393.24,393.24,0,0,1-66.46,36.39c-45.87,18.8-43.08,60.83-44.14,140.45H675.4C674.28,661.21,677.06,618.58,631.27,600.38Z"/></svg>