<svg id="Layer_1" data-name="Layer 1" xmlns="http://www.w3.org/2000/svg" viewBox="0 0 1200 1440"><defs><style>.cls-1{fill:#368ead;}.cls-2{fill:none;stroke:#f9f9f9;stroke-miterlimit:10;stroke-width:60px;}.cls-3{fill:#fff;}</style></defs><path class="cls-1" d="M600,9C311.11,9,76.09,244,76.09,532.91c0,350.07,449.59,854.19,468.7,875.44A74.13,74.13,0,0,0,600,1433h0a74.36,74.36,0,0,0,55.25-24.64c19.13-21.33,468.67-526.52,468.67-875.45C1123.91,244,888.89,9,600,9Zm0-1C311.11,8,76.09,243,76.09,531.91c0,350.07,449.59,854.19,468.7,875.44A74.13,74.13,0,0,0,600,1432h0a74.36,74.36,0,0,0,55.25-24.64c19.13-21.33,468.67-526.52,468.67-875.45C1123.91,243,888.89,8,600,8Zm11,1359.69a14.86,14.86,0,0,1-22.07,0c-4.53-5-453.51-508.25-453.51-835.78C135.49,275.77,343.86,67.4,600,67.4s464.51,208.39,464.51,464.51C1064.51,858.35,629.54,1347.07,611.05,1367.69Z"/><circle class="cls-2" cx="599.72" cy="527.21" r="400.28"/><path class="cls-3" d="M800.83,312.54c-67.91-66.78-183.13-14.71-199.5-6.79-52.82-30.18-125.94-57.12-185-18.94-42.41,27.32-66.93,62.63-72.74,105-8.75,63.69,28.67,125.56,48.14,145.56,9.81,10.11,13.28,59.38,15.77,95.3,5.36,76.59,10,142.76,56.22,150.91a47.87,47.87,0,0,0,32.74-5c24.9-14.11,32.75-49.35,41.81-90.09,11.69-52.82,22.63-92.59,50.1-90.55a19,19,0,0,1,14,5.28c14,14.34,8,57,3.47,88.43-6.49,45.28-12,84.44,23.24,93.19a51.18,51.18,0,0,0,11.7,1.36,54.54,54.54,0,0,0,25.12-6.94C720.1,751.7,762.65,632.7,779,568.34c42.93-28.52,71.15-69.87,77.41-114.69C861.35,419.31,855.61,366.72,800.83,312.54ZM818.34,450.1c-5.36,37.73-30.18,73-67.91,96.06a16.79,16.79,0,0,0-7.55,9.88c-22.63,92.21-65.87,180-97,195.73a14,14,0,0,1-4.53,1.66c-4.52-8.6,0-39.54,2.72-58.25,6.19-43.24,12.53-87.83-11.92-113.18a60.86,60.86,0,0,0-40.75-17h-5.05c-59.24,0-73.72,65-85.42,117.48-5.81,26.34-13.88,62.63-25.35,69-.61,0-1.29.75-3.55,0-17.5-2.49-23.39-85.5-25.88-120.66-4.08-59.31-7.55-96.51-24.52-114.09-13.13-13.5-46.94-67.3-39.54-121.18,4.52-33.2,24-61.12,57.8-83,74.47-48.44,200.26,62.63,201.54,63.76a21.79,21.79,0,0,0,27.16.6,14.48,14.48,0,0,0,2.88-20.28v0a11.46,11.46,0,0,0-2.11-2.18,398.82,398.82,0,0,0-33.73-26.94c30.18-11.92,98.09-31.24,136.27,6.49C808.08,369.44,824.3,409.5,818.34,450.1Z"/></svg>