<svg id="Layer_1" data-name="Layer 1" xmlns="http://www.w3.org/2000/svg" viewBox="0 0 120 120"><defs><style>.cls-1{fill:none;stroke:#fff;stroke-miterlimit:10;stroke-width:3px;}.cls-2{fill:#fff;}</style></defs><circle class="cls-1" cx="60" cy="60.5" r="57"/><path class="cls-2" d="M21.7,82.1a4.4,4.4,0,0,0,4.45,4.36H31.7A11.88,11.88,0,0,0,43.25,95a12,12,0,0,0,11.54-8.54H65.92A11.88,11.88,0,0,0,77.47,95,12,12,0,0,0,89,86.46h5.55A4.41,4.41,0,0,0,99,82.08V62.45a7.62,7.62,0,0,0-1.22-4.14L84.7,38a4.83,4.83,0,0,0-4.06-2.19H26.15c-2.92,0-4.45,2.33-4.45,5.21V82.1Zm50.77,1a5,5,0,0,1,5-4.92,5,5,0,0,1,5,4.92,5,5,0,0,1-5,4.93A5,5,0,0,1,72.47,83.14ZM69.65,44.07h0A1.1,1.1,0,0,1,70.76,43h8.37a1.1,1.1,0,0,1,.93.5l9.25,14.33a1.12,1.12,0,0,1,.17.59,1.09,1.09,0,0,1-1.1,1.08H70.76a1.09,1.09,0,0,1-1.11-1.08ZM38.27,83.14a5,5,0,0,1,5-4.9,4.9,4.9,0,1,1-5,4.9ZM34.21,54.8a1.68,1.68,0,0,1,1.69-1.67h5.21V48a1.68,1.68,0,0,1,1.7-1.66h3A1.68,1.68,0,0,1,47.49,48v5.15H52.7a1.68,1.68,0,0,1,1.69,1.67v2.94h0a1.68,1.68,0,0,1-1.69,1.67H47.48v5.14a1.68,1.68,0,0,1-1.69,1.67h-3a1.68,1.68,0,0,1-1.69-1.67V59.41h-5.2a1.68,1.68,0,0,1-1.69-1.67Z"/><path class="cls-2" d="M63.37,20a7.16,7.16,0,0,0-7.21,7.11v3.13H70.58V27.11A7.15,7.15,0,0,0,63.37,20Z"/></svg>