<svg id="Layer_1" data-name="Layer 1" xmlns="http://www.w3.org/2000/svg" viewBox="0 0 120 120"><defs><style>.cls-1{fill:none;stroke:#fff;stroke-miterlimit:10;stroke-width:3px;}.cls-2{fill:#fcfcfc;}</style></defs><circle class="cls-1" cx="60" cy="60" r="57"/><path class="cls-2" d="M47.4,36h-.7a6.85,6.85,0,0,0-6.81,6.89v1.57a7,7,0,0,0,.28,2l2.2,7.41a4,4,0,0,0,7.75-1.15v-.82a4.81,4.81,0,0,1,1.39-3.41l.7-.71A6.9,6.9,0,0,0,47.4,36Zm3.37,10.3-.71.71a6.9,6.9,0,0,0-2,4.87v.82a1.93,1.93,0,0,1-1.91,1.93,1.9,1.9,0,0,1-1.83-1.38l-2.2-7.41a5,5,0,0,1-.2-1.38V42.84A4.8,4.8,0,0,1,46.7,38h.7a4.84,4.84,0,0,1,3.37,8.23Z"/><path class="cls-2" d="M47.05,42.16a3.11,3.11,0,0,0,0,6.21V46.3a1,1,0,1,1,1-1h2A3.09,3.09,0,0,0,47.05,42.16Z"/><path class="cls-2" d="M60.34,58.72V33.88a2.06,2.06,0,0,0-2-2.07H35.8a2.06,2.06,0,0,0-2,2.07V58.72a2.06,2.06,0,0,0,2,2.07H58.3A2.06,2.06,0,0,0,60.34,58.72Zm-24.54,0V33.88H58.3V58.72Z"/><path class="cls-2" d="M64.44,59.75V32.85a5.16,5.16,0,0,0-5.12-5.18H34.77a5.15,5.15,0,0,0-5.11,5.18v26.9a5.15,5.15,0,0,0,5.11,5.18h5.94L36.77,86.82l2.49,5H54.84l2.48-5L53.39,64.93h5.93A5.16,5.16,0,0,0,64.44,59.75Zm-32.74,0V32.85a3.1,3.1,0,0,1,3.07-3.11H59.32a3.1,3.1,0,0,1,3.07,3.11v26.9a3.09,3.09,0,0,1-3.07,3.11H34.77A3.09,3.09,0,0,1,31.7,59.75Zm8.82,30-1-2.07H54.6l-1,2.07ZM55,85.63h-16l3.72-20.7h8.52Z"/><path class="cls-2" d="M51.14,83.56V73.21H43V83.56ZM45,75.28h4.09v6.21H45Z"/><rect class="cls-2" x="48.07" y="69.07" width="2.05" height="2.07"/><rect class="cls-2" x="43.98" y="69.07" width="2.05" height="2.07"/><path class="cls-2" d="M93.08,33,82.85,31v-.18a3.1,3.1,0,0,0-3.07-3.11H69.55a3.1,3.1,0,0,0-3.07,3.11V49.41a3.1,3.1,0,0,0,2,2.91V67h-1a3.08,3.08,0,0,0-3.07,3.1v4.14a3.09,3.09,0,0,0,3.07,3.11h1v.29l-1.38.46a7.06,7.06,0,0,0,2.21,13.74h.38a7,7,0,0,0,7-7V52.32a3.1,3.1,0,0,0,2.05-2.91V42.16h1a3.09,3.09,0,0,0,3.07-3.1v-.19L93.08,36.8ZM68.53,30.78a1,1,0,0,1,1-1h1v20.7h-1a1,1,0,0,1-1-1Zm-1,44.5a1,1,0,0,1-1-1V70.1a1,1,0,0,1,1-1h1v6.21Zm2.23,14.49h-.38a5,5,0,0,1-1.56-9.71l2.77-.93V52.51h4.1V84.79A5,5,0,0,1,69.74,89.77Zm7-40.36a1,1,0,0,1-1,1H72.62V29.74h3.07a1,1,0,0,1,1,1ZM80.8,39.06a1,1,0,0,1-1,1h-1V30.78a3.25,3.25,0,0,0-.19-1h1.21a1,1,0,0,1,1,1ZM91,35.1l-8.18,1.66V33.07L91,34.73Z"/><path class="cls-2" d="M69.55,81.49a3.11,3.11,0,1,0,3.07,3.1A3.09,3.09,0,0,0,69.55,81.49Zm0,4.14a1,1,0,1,1,1-1A1,1,0,0,1,69.55,85.63Z"/></svg>