<svg id="Layer_1" data-name="Layer 1" xmlns="http://www.w3.org/2000/svg" viewBox="0 0 120 120"><defs><style>.cls-1{fill:none;stroke:#fff;stroke-miterlimit:10;stroke-width:3px;}.cls-2{fill:#fff;}</style></defs><circle class="cls-1" cx="60" cy="60" r="57"/><path class="cls-2" d="M73.54,92.69a28,28,0,0,1-12.46-5.12A70,70,0,0,1,49.36,77.06,175.53,175.53,0,0,1,36.85,62.53,44.87,44.87,0,0,1,29.72,49a21.66,21.66,0,0,1-.78-9.89,17.54,17.54,0,0,1,5.52-9.87,23.24,23.24,0,0,1,3.76-2.8,4.76,4.76,0,0,1,5.32.09,19.4,19.4,0,0,1,8.13,9.94,3.68,3.68,0,0,1-.39,3.65c-.94,1.29-1.92,2.56-2.87,3.85S46.7,46.23,46,47.44a3.28,3.28,0,0,0,0,3.76c1.88,2.69,3.7,5.45,5.74,8A100.89,100.89,0,0,0,63.94,72.13c1,.87,2,1.63,3.1,2.42a2.93,2.93,0,0,0,3.19.3A36,36,0,0,0,73.53,73C75,72,76.45,71,77.9,70.07a3.75,3.75,0,0,1,4-.08,19.77,19.77,0,0,1,8.69,8.73,5.45,5.45,0,0,1-.48,6.09c-3.64,4.88-8.29,7.89-14.48,8C74.94,92.82,74.24,92.78,73.54,92.69Z"/></svg>