<svg id="Layer_1" data-name="Layer 1" xmlns="http://www.w3.org/2000/svg" viewBox="0 0 120 120"><defs><style>.cls-1{fill:none;stroke:#fff;stroke-miterlimit:10;stroke-width:3px;}.cls-2{fill:#fff;}</style></defs><circle class="cls-1" cx="60" cy="60" r="57"/><path class="cls-2" d="M100.85,64.51C99,34.86,77.78,28.45,72.61,28.45a7.58,7.58,0,0,0-5.9,2.37c-2.46,2.72-2.61,7.07-2.46,8.52.2,1.84,1,6.29,4.74,7.86a18.93,18.93,0,0,1,7.09,6.2,7,7,0,0,0,2.21-7.17.68.68,0,0,1,.44-.85h0a.7.7,0,0,1,.87.46,8.53,8.53,0,0,1-3.2,9l-.08.09a.38.38,0,0,0-.1,0,10.76,10.76,0,0,1-1.32.76c-5.4,2.53-8.62,7-10.76,15a1.21,1.21,0,0,0,.14,1,1.17,1.17,0,0,0,.78.55,1.22,1.22,0,0,0,1.4-.82c1.36-4.6,3.82-10.41,7.81-12,4.28-1.75,10.23,6.31,10.9,7.23a.7.7,0,0,1-1.13.82,30.73,30.73,0,0,0-4.22-4.68C79.79,65,78.26,66,76.66,66.94a11.46,11.46,0,0,0-5.74,7c-1,3.06-.27,6.56,2.1,9.84,3.33,4.61,9.11,7.82,14.06,7.82a11.45,11.45,0,0,0,8.68-3.64C99.83,83.58,101.54,75.71,100.85,64.51Zm-18-12.28a1.09,1.09,0,0,1-.86-.51c-.46-.77-.11-3.43.27-5.53a.68.68,0,0,1,.78-.56h0a.71.71,0,0,1,.57.81,22.73,22.73,0,0,0-.46,4.43,21.43,21.43,0,0,0,5.95-3,.7.7,0,0,1,1,1c-.4.39-5.13,3.42-7.07,3.42a.58.58,0,0,1-.19,0Zm9.46,9.51c-2.48-.5-5.24-1-6.44-1.08A9.88,9.88,0,0,0,88.51,65a.71.71,0,0,1,.19,1,.68.68,0,0,1-.57.3.62.62,0,0,1-.39-.12,10.87,10.87,0,0,1-3.32-5.7,1,1,0,0,1,.2-.88c.29-.32.58-.65,8,.84a.69.69,0,1,1-.27,1.36ZM93.79,59a.32.32,0,0,1-.14,0c-.08,0-8.05-1.74-8-3.74,0-.31.06-1.24,5.68-5a.69.69,0,0,1,.78,1.15h0a33,33,0,0,0-5,3.84,24.37,24.37,0,0,0,6.72,2.38.71.71,0,0,1,.56.82.7.7,0,0,1-.68.55ZM45.07,55.75A10.76,10.76,0,0,1,43.75,55s-.07,0-.09,0l-.09-.09a8.53,8.53,0,0,1-3.2-9,.7.7,0,0,1,.87-.46.68.68,0,0,1,.48.83v0a7,7,0,0,0,2.21,7.17A19,19,0,0,1,51,47.19c3.71-1.56,4.54-6,4.74-7.85.15-1.45,0-5.8-2.46-8.52a7.58,7.58,0,0,0-5.9-2.37c-5.17,0-26.42,6.41-28.24,36.06-.69,11.2,1,19.07,5.09,23.4a11.45,11.45,0,0,0,8.68,3.64c4.95,0,10.73-3.21,14.06-7.82,2.37-3.28,3.12-6.78,2.1-9.84a11.46,11.46,0,0,0-5.74-7c-1.6-1-3.1-1.91-3.19-4.18a30.45,30.45,0,0,0-4.21,4.65.69.69,0,0,1-1,.15.68.68,0,0,1-.17-1h0c.67-.92,6.63-9,10.9-7.23,4,1.64,6.45,7.45,7.81,12a1.22,1.22,0,0,0,1.4.82,1.14,1.14,0,0,0,.78-.55,1.15,1.15,0,0,0,.14-1c-2.14-8-5.36-12.43-10.76-15ZM26.21,59a.7.7,0,0,1-.68-.55.72.72,0,0,1,.56-.82,23.4,23.4,0,0,0,6.77-2.41,37.8,37.8,0,0,0-5-3.81.68.68,0,0,1-.2-.95.69.69,0,0,1,1-.2h0c5.63,3.75,5.67,4.68,5.68,5,.1,2-7.87,3.72-7.95,3.74a.32.32,0,0,1-.14,0Zm9.37,1.42a10.8,10.8,0,0,1-3.32,5.7.62.62,0,0,1-.39.12.68.68,0,0,1-.57-.3.71.71,0,0,1,.19-1,9.88,9.88,0,0,0,2.63-4.31c-1.2.11-4,.58-6.43,1.08a.69.69,0,1,1-.28-1.36c7.39-1.49,7.68-1.15,8-.83a1,1,0,0,1,.19.87ZM38,51.72a1.09,1.09,0,0,1-.86.51.55.55,0,0,1-.18,0c-2,0-6.68-3-7.08-3.42a.73.73,0,0,1,0-1,.68.68,0,0,1,1,0h0a21.36,21.36,0,0,0,6,3,24.4,24.4,0,0,0-.47-4.43.71.71,0,0,1,.57-.81.68.68,0,0,1,.8.54v0c.38,2.1.73,4.76.27,5.53Z"/></svg>