<svg id="Layer_1" data-name="Layer 1" xmlns="http://www.w3.org/2000/svg" viewBox="0 0 120 120"><defs><style>.cls-1{fill:none;stroke:#fff;stroke-miterlimit:10;stroke-width:3px;}.cls-2{fill:#fff;}</style></defs><circle class="cls-1" cx="60.16" cy="60.29" r="57"/><path class="cls-2" d="M89.72,48.11c-4.58,1.16-7.58,6.58-6.58,12.07a10,10,0,0,0,5.14,7.39v7.61c.15,10.75-6.44,19.91-15.3,21.27-9.35,1.12-17.68-7.1-18.61-18.36-.06-.67-.08-1.33-.08-2v-3C65.36,70.62,73.4,59,73.41,45.44V32.56c0-5.65-3.81-10.23-8.5-10.23H59.6c-1.76,0-3.19,1.72-3.19,3.83S57.84,30,59.6,30h5.31A2.37,2.37,0,0,1,67,32.56V44.44c.11,10.74-6.44,19.91-15.3,21.27-9.35,1.12-17.68-7.11-18.59-18.36,0-.67-.08-1.34-.08-2V32.56A2.37,2.37,0,0,1,35.14,30h5.31c1.76,0,3.18-1.72,3.18-3.84s-1.42-3.83-3.18-3.83H35.14c-4.7,0-8.5,4.58-8.5,10.23V45.35c0,14.54,9.21,26.68,21.24,28v1.48C47.68,89.62,56.77,102.22,69,104c12.84,1.53,24.28-9.78,25.55-25.24.07-.92.11-1.84.11-2.76V67.61c4.35-2.12,6.45-8.08,4.69-13.32C97.8,49.7,93.74,47.09,89.72,48.11Z"/></svg>