<svg id="Layer_1" data-name="Layer 1" xmlns="http://www.w3.org/2000/svg" viewBox="0 0 120 120"><defs><style>.cls-1{fill:none;stroke:#fff;stroke-miterlimit:10;stroke-width:3px;}.cls-2{fill:#fff;}</style></defs><circle class="cls-1" cx="60" cy="60.5" r="57"/><path class="cls-2" d="M75.92,93.16C85.77,84.41,86.55,69.73,78,60.5a26.09,26.09,0,0,0-6.62-5l9.33-4.91A15.91,15.91,0,1,0,65.9,22.42L32.82,39.83c-8.21,4.32-11.37,13.94-7.29,21.68a15.59,15.59,0,0,0,12,8.23,51.88,51.88,0,0,0-1.08,5.51A21.56,21.56,0,0,0,39,87.08a23.11,23.11,0,0,0,3.38,4.81c8.77,9.65,23.7,10,33.55,1.27ZM30,59.17a11.07,11.07,0,0,1,4.89-14.93l14.43-7.59L58,53.19A25,25,0,0,0,39.82,65,10.8,10.8,0,0,1,30,59.17ZM53.73,34.31l14.43-7.59A10.93,10.93,0,1,1,78.34,46.06L64.8,53.18c-.34-.09-.89-.08-1.23-.17Zm-6,28.42c7.75-6.83,19.57-6.46,26.31,1a13.76,13.76,0,0,1,2.59,3.85,17,17,0,0,1,2,6.93L41.67,73.32a20.14,20.14,0,0,1,6-10.59ZM59.11,94.6A17.94,17.94,0,0,1,41.59,78l36.9,1.17A19.14,19.14,0,0,1,59.11,94.6Z"/></svg>