<svg id="Layer_1" data-name="Layer 1" xmlns="http://www.w3.org/2000/svg" viewBox="0 0 120 120"><defs><style>.cls-1{fill:#fff;}.cls-2{fill:none;stroke:#fff;stroke-miterlimit:10;stroke-width:3px;}</style></defs><path class="cls-1" d="M69.37,80.56H73.2v4a1.92,1.92,0,1,0,3.83,0v-4h4a1.92,1.92,0,1,0,0-3.83H77v-4a2,2,0,0,0-1.91-1.92A2.09,2.09,0,0,0,73.2,72.9v4h-4a1.85,1.85,0,1,0,.15,3.68Z"/><path class="cls-1" d="M56.1,93H94a4.44,4.44,0,0,0,4.43-4.43V68.18H103a1.92,1.92,0,0,0,0-3.83H47.26a1.92,1.92,0,1,0,0,3.83h4.57V88.52A4.22,4.22,0,0,0,56.1,93Zm38.62-4.43a.69.69,0,0,1-.74.74H56.1a.7.7,0,0,1-.74-.74V68.18H94.72Z"/><path class="cls-1" d="M68.48,49.31a8.19,8.19,0,0,0-2.8,3.1,6.51,6.51,0,0,0-.44,3.68v3.39a1.82,1.82,0,0,0,1.92,1.77h0a1.83,1.83,0,0,0,1.77-1.91V55.8a8.81,8.81,0,0,1,.14-2.06A6.71,6.71,0,0,1,70.84,52l1.33-.89,2.06-1.18a3.29,3.29,0,0,0,1-.59s.15,0,.15-.14l1.33,1.32c1,.89,1.91,1.77,3,2.66l2.21,2.06L83.08,54c1.47-1.33,2.8-2.51,4.12-3.83a7.18,7.18,0,0,0,1-1l.14.14c.3.15.74.3,1,.45l.44.14c.44.15.73.44.88.44l1.18.74c.3.15.59.44.89.59a4.73,4.73,0,0,1,1.76,1.62,8.37,8.37,0,0,1,.15,2.07v3.39a1.93,1.93,0,0,0,1.77,1.91h0a2.05,2.05,0,0,0,1.92-1.77V55.65A8.17,8.17,0,0,0,98,52a8,8,0,0,0-2.8-3.1A8.42,8.42,0,0,0,94,48.13l-1.32-.73c-.3-.15-.74-.45-1-.59l-.45-.15c-.44-.15-.73-.44-1.18-.59l-.14-.15c-.59-.29-2.36-1.18-3.69.3l-.29.29L84.7,47.69c-.89.89-1.92,1.77-2.8,2.65-.89-.73-1.77-1.62-2.66-2.5a9.35,9.35,0,0,0-1.32-1.18l-.44-.44a2.41,2.41,0,0,0-2.81-.59c-.29.14-.73.29-1,.44s-.73.44-1.18.59L70.1,48.13C69.51,48.58,69.07,48.87,68.48,49.31Z"/><path class="cls-1" d="M86.61,39l-.14.74a1.93,1.93,0,0,0,1.18,2.36c.14,0,.29.15.59.15A2.05,2.05,0,0,0,90,40.91l.3-.74c.15-.59.44-1.18.59-1.91a16,16,0,0,0,.44-5.16c-.44-4.57-3.54-7.81-8-8.11h-.88c-3.25,0-5.6.74-7.23,2.21a9.71,9.71,0,0,0-2.8,6.34,18,18,0,0,0,1.33,7.37,1.94,1.94,0,0,0,1.47,1.18,1.84,1.84,0,0,0,2.07-1.62,2.14,2.14,0,0,0-.15-1,12.87,12.87,0,0,1-1-5.75,6.21,6.21,0,0,1,1.62-3.84c.88-.88,2.51-1.17,4.57-1.17h.74a5.08,5.08,0,0,1,4.71,4.86,9,9,0,0,1-.44,3.83C87.06,37.81,86.91,38.4,86.61,39Z"/><path class="cls-1" d="M24.26,44.3a7.39,7.39,0,0,0,7.37-7.37,7.49,7.49,0,0,0-7.37-7.37,7.37,7.37,0,0,0,0,14.74Zm0-11.2a3.69,3.69,0,1,1-3.68,3.68A3.65,3.65,0,0,1,24.26,33.1Z"/><path class="cls-1" d="M42.39,81.6c-.88,3.68-1.91,7.37-2.8,11.2A1.75,1.75,0,0,0,40.92,95h.44a1.78,1.78,0,0,0,1.77-1.33C44,90,45,86.31,45.93,82.48l.29-.88c.74-2.66,1.63-5.9-.14-8.7a4.85,4.85,0,0,0-4.28-2.21c-.59,0-6.93-.59-9.28-.89-.89-.14-1.63-.14-2.51-.29a1.85,1.85,0,1,0-.44,3.68c.73.15,1.62.15,2.36.3,2.5.29,8.84.88,9.58.88,1,0,1.32.3,1.32.3.89,1.62.3,3.83-.29,6C42.54,80.86,42.39,81.3,42.39,81.6Z"/><path class="cls-1" d="M15.12,55.8a38.68,38.68,0,0,0,2.06,12.53c.45,1.62.89,3.39,1.33,5.16,1.18,4,3.24,6.63,6.19,7.66a17.62,17.62,0,0,0,5.46.89c1.62,0,3.24-.15,4.86-.3l-.44-3.68c-2.95.29-6.19.59-8.7-.3-1.77-.73-3.09-2.36-4-5.3-.44-1.63-.88-3.39-1.32-5A43.26,43.26,0,0,1,18.66,56c0-2.36.44-3.25,1.47-3.84a3.43,3.43,0,0,1,3.54.59,4.38,4.38,0,0,1,1.47,1.77c.15.3.15.44.3.74.15.59.44,1.18.59,1.77a1.34,1.34,0,0,0,.15.74c.14,1.62.29,4,2.5,5.15h.15c1,.59,8.7,4.57,8.7,4.57A1.85,1.85,0,0,0,39.3,64.2c-6.49-3.39-8.26-4.42-8.85-4.57h0c-.44-.15-.59-1.47-.59-2.21a2.83,2.83,0,0,0-.15-1A12.28,12.28,0,0,0,29,53.88a6.1,6.1,0,0,1-.44-1,10.57,10.57,0,0,0-2.66-3.09,7.17,7.17,0,0,0-7.22-.89C15.12,50.49,15.12,53.88,15.12,55.8Z"/><circle class="cls-2" cx="60" cy="60" r="57"/></svg>