<svg id="Layer_1" data-name="Layer 1" xmlns="http://www.w3.org/2000/svg" viewBox="0 0 120 120"><defs><style>.cls-1{fill:none;stroke:#fff;stroke-miterlimit:10;stroke-width:3px;}.cls-2{fill:#fff;}</style></defs><circle class="cls-1" cx="60" cy="60" r="57"/><path class="cls-2" d="M72.72,57.88,96.49,83a7.64,7.64,0,0,0,1.07-3.92V40.93A7.71,7.71,0,0,0,96.49,37l-2.95,2.59Z"/><path class="cls-2" d="M27.11,35.86l.28.25L50.6,56.49l1,.9A12.59,12.59,0,0,0,63.86,60l.54-.19a12.76,12.76,0,0,0,4-2.4l1-.89L92.89,35.86l1.37-1.2a6.66,6.66,0,0,0-3.7-1.13H29.44a6.66,6.66,0,0,0-3.7,1.13Z"/><path class="cls-2" d="M70.3,60a15.76,15.76,0,0,1-8.92,3.83q-.69.06-1.38.06A15.68,15.68,0,0,1,49.7,60l-24,25.33a6.75,6.75,0,0,0,3.72,1.14H90.56a6.75,6.75,0,0,0,3.72-1.14Z"/><path class="cls-2" d="M23.51,37a7.71,7.71,0,0,0-1.07,3.93V79.07A7.64,7.64,0,0,0,23.51,83L47.28,57.88Z"/></svg>