<svg id="Layer_1" data-name="Layer 1" xmlns="http://www.w3.org/2000/svg" viewBox="0 0 120 120"><defs><style>.cls-1{fill:none;stroke:#fff;stroke-miterlimit:10;stroke-width:3px;}.cls-2{fill:#fff;fill-rule:evenodd;}</style></defs><circle class="cls-1" cx="60" cy="60" r="57"/><path class="cls-2" d="M33.15,33.57h53.7c5.85,0,10.63,4.17,10.63,9.28v9.58L66.66,72.19,45.21,53.86a3.06,3.06,0,0,0-3.74-.23L22.52,66.79V42.85c0-5.11,4.78-9.28,10.63-9.28ZM97.48,58.45v18.7c0,5.11-4.78,9.28-10.63,9.28H82.53a2.34,2.34,0,0,0-.79-1.35L70.68,75.63l26.8-17.18Zm-22.1,28H33.15c-5.84,0-10.63-4.18-10.63-9.28V73L43,58.76Zm-38.7-45.1c3.34,0,6,2.36,6,5.28s-2.71,5.28-6,5.28-6.05-2.37-6.05-5.28S33.34,41.33,36.68,41.33Z"/></svg>