<svg id="Layer_1" data-name="Layer 1" xmlns="http://www.w3.org/2000/svg" viewBox="0 0 120 120"><defs><style>.cls-1{fill:none;stroke-width:3px;}.cls-1,.cls-2{stroke:#fff;stroke-miterlimit:10;}.cls-2{fill:#fff;stroke-width:0.5px;}</style></defs><path class="cls-1" d="M60,2.5a57,57,0,1,0,57,57A57,57,0,0,0,60,2.5Z"/><path class="cls-2" d="M91.42,48.93H76.22V29.51A.52.52,0,0,0,75.7,29H44.22a.51.51,0,0,0-.53.51h0V48.93H28.48a.51.51,0,0,0-.53.51h0v43a.52.52,0,0,0,.5.54h63a.53.53,0,0,0,.53-.51h0v-43a.52.52,0,0,0-.5-.54ZM43.69,92H29V50H43.69Zm1-61.9H75.17V49.43h0V92H64.68V80.4H67.3a.52.52,0,0,0,.52-.52h0v-2.1a.52.52,0,0,0-.52-.52H52.61a.52.52,0,0,0-.52.52h0v2.1a.52.52,0,0,0,.51.53h2.63V92H44.74Zm8.4,49.31v-1H66.77v1H53.09ZM56.28,92V80.4h7.35V92ZM91,92H76.22V50H91Z"/><path class="cls-2" d="M79.88,60.47h6.3A.52.52,0,0,0,86.7,60h0V53.65a.53.53,0,0,0-.51-.53H79.88a.52.52,0,0,0-.52.52h0V60A.52.52,0,0,0,79.88,60.47Zm.53-6.3h5.24v5.25H80.41Z"/><path class="cls-2" d="M79.88,71h6.3a.52.52,0,0,0,.52-.52h0V64.14a.53.53,0,0,0-.51-.53H79.88a.52.52,0,0,0-.52.52h0v6.29a.52.52,0,0,0,.48.56Zm.53-6.3h5.24v5.25H80.41Z"/><path class="cls-2" d="M79.88,81.45h6.3a.52.52,0,0,0,.52-.52h0v-6.3a.52.52,0,0,0-.52-.52h-6.3a.52.52,0,0,0-.52.52h0v6.3a.52.52,0,0,0,.52.52Zm.53-6.29h5.24V80.4H80.41Z"/><path class="cls-2" d="M33.72,60.47H40a.52.52,0,0,0,.52-.52h0V53.65a.53.53,0,0,0-.51-.53H33.72a.52.52,0,0,0-.52.52h0V60A.52.52,0,0,0,33.72,60.47Zm.53-6.3h5.24v5.25H34.25Z"/><path class="cls-2" d="M48.41,56.27h4.2a.52.52,0,0,0,.52-.52h0v-4.2a.52.52,0,0,0-.52-.52h-4.2a.52.52,0,0,0-.52.52h0v4.2A.52.52,0,0,0,48.41,56.27Zm.52-4.2h3.15v3.15H49Z"/><path class="cls-2" d="M62.05,51h-4.2a.52.52,0,0,0-.52.52h0v4.2a.52.52,0,0,0,.52.52h4.2a.52.52,0,0,0,.52-.52h0v-4.2a.52.52,0,0,0-.52-.52Zm-.53,4.19H58.38V52.07h3.14Z"/><path class="cls-2" d="M66.77,55.75a.52.52,0,0,0,.52.52h4.2a.52.52,0,0,0,.52-.52h0v-4.2a.52.52,0,0,0-.52-.52h-4.2a.52.52,0,0,0-.52.52h0Zm1-3.68H71v3.15H67.82Z"/><path class="cls-2" d="M48.41,64.66h4.2a.52.52,0,0,0,.52-.52h0V60a.52.52,0,0,0-.52-.52h-4.2a.52.52,0,0,0-.52.52h0v4.2A.51.51,0,0,0,48.41,64.66ZM49,60.47H52.1v3.14H49Z"/><path class="cls-2" d="M62.05,59.42h-4.2a.52.52,0,0,0-.52.52h0v4.2a.52.52,0,0,0,.52.52h4.2a.52.52,0,0,0,.52-.52h0V60a.53.53,0,0,0-.47-.57Zm-.53,4.19H58.38V60.47h3.14Z"/><path class="cls-2" d="M67.29,64.66h4.2a.52.52,0,0,0,.52-.52h0V60a.52.52,0,0,0-.52-.52h-4.2a.52.52,0,0,0-.52.52h0v4.2A.51.51,0,0,0,67.29,64.66Zm.53-4.19H71v3.14H67.82Z"/><path class="cls-2" d="M53.13,72.53V68.34a.53.53,0,0,0-.51-.53H48.41a.52.52,0,0,0-.52.52h0v4.19a.52.52,0,0,0,.51.53h4.21a.52.52,0,0,0,.52-.52ZM52.08,72H49V68.86H52.1Z"/><path class="cls-2" d="M62.05,67.81h-4.2a.52.52,0,0,0-.52.52h0v4.19a.52.52,0,0,0,.51.53h4.21a.52.52,0,0,0,.52-.52h0V68.34a.53.53,0,0,0-.51-.53ZM61.52,72H58.38V68.86h3.14Z"/><path class="cls-2" d="M72,72.53V68.34a.53.53,0,0,0-.51-.53H67.29a.52.52,0,0,0-.52.52h0v4.19a.52.52,0,0,0,.51.53h4.21a.52.52,0,0,0,.52-.52ZM71,72H67.82V68.86H71Z"/><path class="cls-2" d="M33.72,71H40a.52.52,0,0,0,.52-.52h0V64.14a.53.53,0,0,0-.51-.53H33.72a.52.52,0,0,0-.52.52h0v6.29a.52.52,0,0,0,.48.56Zm.53-6.3h5.24v5.25H34.25Z"/><path class="cls-2" d="M33.72,81.45H40a.52.52,0,0,0,.52-.52h0v-6.3a.52.52,0,0,0-.52-.52h-6.3a.52.52,0,0,0-.52.52h0v6.3a.52.52,0,0,0,.52.52Zm.53-6.29h5.24V80.4H34.25Z"/><path class="cls-2" d="M53.66,43.68h3.67v3.67a.52.52,0,0,0,.51.53h4.21a.52.52,0,0,0,.52-.52h0V43.68h3.67a.53.53,0,0,0,.53-.51h0V39a.52.52,0,0,0-.52-.52H62.57V34.76a.52.52,0,0,0-.52-.52h-4.2a.52.52,0,0,0-.52.52h0v3.68H53.66a.51.51,0,0,0-.53.51h0v4.2a.52.52,0,0,0,.52.52Zm.52-4.19h3.67a.53.53,0,0,0,.53-.53h0V35.29h3.14V39a.53.53,0,0,0,.53.53h3.67v3.14H62.05a.53.53,0,0,0-.53.53v3.67H58.38v-3.7a.53.53,0,0,0-.53-.53H54.18Z"/></svg>