<svg id="Layer_1" data-name="Layer 1" xmlns="http://www.w3.org/2000/svg" viewBox="0 0 120 120"><defs><style>.cls-1{fill:none;stroke:#fff;stroke-miterlimit:10;stroke-width:3px;}.cls-2{fill:#fcfcfc;}</style></defs><circle class="cls-1" cx="60" cy="60" r="57"/><path class="cls-2" d="M81,60.09H57.58A1.77,1.77,0,0,0,56,61a14.86,14.86,0,0,0,5.89,20.37,15.36,15.36,0,0,0,7.39,1.89h.13a15.06,15.06,0,0,0,15-15.1A14.75,14.75,0,0,0,82.57,61,1.77,1.77,0,0,0,81,60.09ZM69.39,79.75h-.1A11.56,11.56,0,0,1,57.62,68.3a11.25,11.25,0,0,1,1-4.71H79.92a11.4,11.4,0,0,1-5.85,15.16A11.78,11.78,0,0,1,69.39,79.75Z"/><path class="cls-2" d="M78.74,48.25a3,3,0,0,1-1.81-2.67v-8.4h.29a4.88,4.88,0,0,0,4.91-4.84,3.7,3.7,0,0,0,0-.47,5,5,0,0,0-5-4.37H61.36a4.87,4.87,0,0,0-4.91,4.84,3.77,3.77,0,0,0,0,.47,5,5,0,0,0,5,4.37h.15v8.33A2.93,2.93,0,0,1,60,48.19a22,22,0,0,0-6.08,36.43,22.54,22.54,0,0,0,15.39,6c.51,0,1,0,1.52,0a22.14,22.14,0,0,0,7.95-42.33Zm9.51,21.23A19,19,0,1,1,61.43,51.37a6.43,6.43,0,0,0,3.77-5.86V35.45a1.77,1.77,0,0,0-1.78-1.75H61.5A1.45,1.45,0,0,1,60,32.48,1.35,1.35,0,0,1,61.24,31H77.08a1.45,1.45,0,0,1,1.49,1.2,1.35,1.35,0,0,1-1.21,1.48H75.14a1.76,1.76,0,0,0-1.77,1.75V45.58a6.49,6.49,0,0,0,3.9,5.84A18.61,18.61,0,0,1,88.25,69.48Z"/><path class="cls-2" d="M46.26,81.4a1.78,1.78,0,0,0-2.41.7A5,5,0,0,1,37.09,84a4.88,4.88,0,0,1-2.56-4.25V77.26H37a1.75,1.75,0,1,0,0-3.5h-2.5V69.3H37a1.75,1.75,0,1,0,0-3.49h-2.5v-4.5H37a1.75,1.75,0,1,0,0-3.49h-2.5v-4.5H37a1.75,1.75,0,1,0,0-3.5h-2.5v-4.5H37a1.75,1.75,0,1,0,0-3.49h-2.5V35.45a1.77,1.77,0,0,0-1.78-1.75H30.83a1.45,1.45,0,0,1-1.49-1.22A1.35,1.35,0,0,1,30.55,31H47.9a1.48,1.48,0,0,1,1.5,1.21,1.35,1.35,0,0,1-1.22,1.47H46a1.76,1.76,0,0,0-1.78,1.75h0V53.62a1.78,1.78,0,0,0,3.55,0V37.2H48A4.89,4.89,0,0,0,53,32.36a3.71,3.71,0,0,0,0-.47,5,5,0,0,0-5-4.37H30.69a4.87,4.87,0,0,0-4.91,4.84,3.77,3.77,0,0,0,0,.47,5,5,0,0,0,5,4.37H31V79.74a8.45,8.45,0,0,0,8.55,8.37A8.55,8.55,0,0,0,47,83.77,1.74,1.74,0,0,0,46.26,81.4Z"/></svg>