<svg id="Layer_1" data-name="Layer 1" xmlns="http://www.w3.org/2000/svg" viewBox="0 0 120 120"><defs><style>.cls-1{fill:none;stroke:#fff;stroke-miterlimit:10;stroke-width:3px;}.cls-2{fill:#fff;}</style></defs><circle class="cls-1" cx="60" cy="60" r="57"/><path class="cls-2" d="M60,19.4c-16.25,0-29.48,14-29.48,31.09,0,25.25,27.4,49.25,27.68,49.49a2.92,2.92,0,0,0,3.6,0,109.63,109.63,0,0,0,14-15.34C82,76.28,89.48,63.57,89.48,50.49,89.48,33.35,76.25,19.4,60,19.4Zm0,12.41c9.76,0,17.71,8.38,17.71,18.68S69.76,69.16,60,69.16,42.29,60.78,42.29,50.49,50.24,31.81,60,31.81Zm0,4c-7.65,0-13.88,6.57-13.88,14.64S52.35,65.12,60,65.12s13.88-6.56,13.88-14.63S67.65,35.85,60,35.85Z"/></svg>