<svg id="Layer_1" data-name="Layer 1" xmlns="http://www.w3.org/2000/svg" viewBox="0 0 120 120"><defs><style>.cls-1{fill:none;stroke:#fff;stroke-miterlimit:10;stroke-width:3px;}.cls-2{fill:#fff;}</style></defs><circle class="cls-1" cx="60" cy="60" r="57"/><path class="cls-2" d="M100.51,35.14a3.47,3.47,0,0,0-2.26-1.36,44.12,44.12,0,0,1-11-3.56,46.3,46.3,0,0,1-9.51-5.88,3.3,3.3,0,0,0-2.07-.78,2.71,2.71,0,0,0-2.17,1.07,2.91,2.91,0,0,0,.54,4.25c.48.4,1,.86,1.57,1.26l.09.07a69.51,69.51,0,0,0,19.46,9c.66.17,1.33.29,2,.41a4.68,4.68,0,0,0,.73.06,2.86,2.86,0,0,0,3-2.38A2.76,2.76,0,0,0,100.51,35.14Z"/><path class="cls-2" d="M89.38,40.57,84.49,51.19,74,46.33,78.82,35.8c-1.66-.92-2.94-1.7-3.79-2.25l-.4.86c-1.92,4.13-3.86,8.33-5.73,12.39L63,59.71c-.77,1.67-1.55,3.35-2.33,5a3.5,3.5,0,0,0-.06,3c.56,1.33,1.1,2.69,1.58,3.89l.07.17c.34.85.67,1.69,1,2.53l.39,1a.86.86,0,0,1-.06.84c-1.4,3-2.79,6-4.09,8.81-.63,1.38-1.13,2.51-1.57,3.53l-.69,1.5,0,0-1.05,2.26-.13.27-.52-.24-1.61,3.49,6,2.79L61.51,95,61,94.72l.64-1.36h0l2.44-5.3c1.46-3.16,3-6.44,4.43-9.67a.78.78,0,0,1,.57-.51l1.16-.38,2.48-.84.18-.06c1.37-.46,2.78-.94,4.17-1.39a3.17,3.17,0,0,0,2-1.85c.55-1.23,1.13-2.47,1.69-3.66l1-2.09L86,58.57l4.19-9.1c1-2.14,2-4.35,3-6.52l.44-1C92.11,41.54,90.71,41.06,89.38,40.57ZM77.92,65.43,67.44,60.59l4.7-10.19,10.48,4.83Z"/><path class="cls-2" d="M47.19,21.73a3.43,3.43,0,0,0-2.63.17,44.16,44.16,0,0,1-11,3.28,46.44,46.44,0,0,1-11.17.56,3.27,3.27,0,0,0-2.14.53A2.74,2.74,0,0,0,19,28.38a2.9,2.9,0,0,0,2.86,3.19c.62.06,1.33.13,2,.15H24a69.63,69.63,0,0,0,21.11-3.67c.64-.23,1.26-.52,1.9-.81a4,4,0,0,0,.64-.37,2.85,2.85,0,0,0,1.09-3.65A2.75,2.75,0,0,0,47.19,21.73Z"/><path class="cls-2" d="M41.12,32.52l2,11.52L31.69,46l-2-11.43c-1.89.19-3.39.27-4.39.3l.16.94c.76,4.49,1.55,9,2.31,13.46l2.43,14,.93,5.47a3.44,3.44,0,0,0,1.62,2.45c1.21.78,2.43,1.6,3.51,2.32l.15.1,2.27,1.5.88.57a.86.86,0,0,1,.42.72c.53,3.24,1.1,6.51,1.63,9.58.26,1.49.49,2.71.72,3.8l.28,1.62h-.05L43,93.87l0,.29-.57.1.65,3.79,6.56-1.14L49,93.13l-.57.09-.25-1.48h0l-1-5.74c-.6-3.44-1.22-7-1.84-10.48a.77.77,0,0,1,.18-.74c.25-.33.49-.66.74-1l1.56-2.09.12-.15c.87-1.16,1.75-2.35,2.64-3.51a3.23,3.23,0,0,0,.64-2.7c-.24-1.32-.47-2.67-.69-4l-.38-2.26-1.71-9.82-1.72-9.87c-.4-2.32-.81-4.72-1.23-7.07l-.18-1.05C43.91,31.76,42.48,32.17,41.12,32.52Zm4.66,27-11.37,2L32.5,50.4l11.37-2Z"/></svg>