<svg id="Layer_1" data-name="Layer 1" xmlns="http://www.w3.org/2000/svg" viewBox="0 0 120 120"><defs><style>.cls-1{fill:none;stroke:#fff;stroke-miterlimit:10;stroke-width:3px;}.cls-2{fill:#fff;}</style></defs><circle class="cls-1" cx="60" cy="60" r="57"/><path class="cls-2" d="M58.86,91.85A1.88,1.88,0,1,0,57,90,1.88,1.88,0,0,0,58.86,91.85Z"/><path class="cls-2" d="M68.1,56.24c9.58-8.64,19.2-26.13,19.2-26.13S79.3,27.6,77,25.34C73.65,22.13,72.28,15,72.28,15c-10.06,5.23-17.7,21.08-20.21,33.25a9.39,9.39,0,0,0-.77,12l1.64,25.12A7.41,7.41,0,0,0,51.36,90a7.64,7.64,0,0,0,.14,1.44c-5,4.31-19.25,2-18.79,12.26,0,.93,7.92,1.33,16.35,1.33,9.7,0,20.11-.52,20.11-1.37,0-6.16-.77-3.75-2.81-13.66a7.45,7.45,0,0,0-1.55-4.56L66.62,60A9.27,9.27,0,0,0,68.1,56.24Zm-9.24,30A3.75,3.75,0,1,1,55.11,90,3.76,3.76,0,0,1,58.86,86.22Zm0-3.74a7.43,7.43,0,0,0-2.33.36L55.26,63.36a9.35,9.35,0,0,0,7.36-.07L61.23,82.86A7.45,7.45,0,0,0,58.86,82.48Zm0-22.15a5.62,5.62,0,1,1,5.62-5.62A5.62,5.62,0,0,1,58.86,60.33ZM70.15,21.06a19.37,19.37,0,0,0,4.2,7c.86.83,2.55,2.15,7.28,4l.16.06c-1.21,2-2.85,4.64-4.75,7.43a90.89,90.89,0,0,1-9.39,11.91,9.38,9.38,0,0,0-8.79-6.12,9.59,9.59,0,0,0-2.3.28,66.45,66.45,0,0,1,5-12.89A41.53,41.53,0,0,1,70.15,21.06ZM61,101c-3.49.17-7.73.27-11.92.27-5.57,0-9.48-.17-11.87-.37a4.08,4.08,0,0,1,.87-.71c1.59-1,4.12-1.6,6.58-2.18a38.35,38.35,0,0,0,6-1.74,13.28,13.28,0,0,0,2.57-1.4,7.49,7.49,0,0,0,10.65.74c.39,1.46.71,2.44,1,3.21a10,10,0,0,1,.5,1.88C64.29,100.77,62.91,100.88,61,101Z"/><path class="cls-2" d="M58.86,52.84a1.87,1.87,0,1,0,1.87,1.87A1.87,1.87,0,0,0,58.86,52.84Z"/></svg>