<svg id="Layer_1" data-name="Layer 1" xmlns="http://www.w3.org/2000/svg" viewBox="0 0 120 120"><defs><style>.cls-1{fill:none;stroke:#fff;stroke-miterlimit:10;stroke-width:3px;}.cls-2{fill:#fff;}</style></defs><circle class="cls-1" cx="60" cy="60" r="57"/><path class="cls-2" d="M48.78,100.25H71.22c12,0,21.78,0,21.78-12a21.79,21.79,0,0,0-13.26-20c0,.07.08.14.11.22a10.49,10.49,0,0,1,.9,3,5.26,5.26,0,0,1,1,.4,4.91,4.91,0,1,1-3.29-.48A8.47,8.47,0,0,0,76.16,67a23.71,23.71,0,0,0-2.94-.48c-.08,4-6,7.18-13.22,7.18s-13.13-3.2-13.22-7.18q-1.05.11-2.07.3a8.1,8.1,0,0,0-2.85,4.3,2.68,2.68,0,0,1,1.19,1.41c2,.89,3.85,2.9,5.25,5.82a1.56,1.56,0,0,1,0,1.35,18.49,18.49,0,0,1,1.36,6.52c0,3.15-.14,5.13-2.78,5.65a1.34,1.34,0,0,1-1,.39h-2a1.36,1.36,0,0,1-1.36-1.36v0h0a1.35,1.35,0,0,1,1.35-1.33h2a1.39,1.39,0,0,1,.57.12c.48-.1.56-.23.61-.31a8.54,8.54,0,0,0,.3-3.13,16,16,0,0,0-1.21-5.72,1.6,1.6,0,0,1-.79-.77c-1.34-2.78-3.14-4.51-4.7-4.51S37.23,77.11,35.9,80a1.56,1.56,0,0,1-.92.84,15.62,15.62,0,0,0-1.1,5.41,8.32,8.32,0,0,0,.34,3.14c0,.07.14.22.68.32a1.43,1.43,0,0,1,.61-.14h2a1.37,1.37,0,0,1,1.36,1.28h0v.07a1.36,1.36,0,0,1-1.36,1.36h-2a1.35,1.35,0,0,1-.9-.35,3.16,3.16,0,0,1-2.3-1.37c-.56-.91-.67-2.17-.67-4.32A18.18,18.18,0,0,1,33,79.87a1.61,1.61,0,0,1,0-1.2,14.82,14.82,0,0,1,3.06-4.51,8.07,8.07,0,0,1,2.17-1.52,2.72,2.72,0,0,1,1.37-1.56A8.34,8.34,0,0,1,40.74,68,21.79,21.79,0,0,0,27,88.24C27,100.28,36.75,100.25,48.78,100.25Z"/><circle class="cls-2" cx="79.43" cy="76.17" r="2.45"/><path class="cls-2" d="M41.69,51.47a5.71,5.71,0,0,0,1.5.2h1c2.15,9.72,8.4,16.75,15.77,16.75,6.62,0,12.31-5.68,15-13.87a12,12,0,0,0,3-3l.18,0a5.2,5.2,0,0,0,4.08-5v-4a5.2,5.2,0,0,0-4.08-5V36.9C78.2,27.45,70,19.75,60,19.75S41.69,27.45,41.69,36.9v.65a5.21,5.21,0,0,0-4,5v4A5.2,5.2,0,0,0,41.69,51.47ZM60,65.87c-7.38,0-13.47-8-14.42-18.4a7,7,0,0,1,2.31,1.09s-1.65-9.78,1.83-11.15A28.2,28.2,0,0,0,60,39.89a28.27,28.27,0,0,0,10.28-2.48c3.48,1.37,1.83,11.14,1.83,11.15a7.17,7.17,0,0,1,2.28-1.08v.23a28.74,28.74,0,0,1-.49,3.17c-2.27,2.06-6.17,3.54-10.65,3.81a2.35,2.35,0,0,0-1.53-.57H58.55a2.39,2.39,0,0,0,0,4.77h3.17a2.39,2.39,0,0,0,1.65-.67,24.65,24.65,0,0,0,8.86-2.09C69.64,62,65.13,65.87,60,65.87Zm0-42.54c7.32,0,13.38,5.16,14.31,11.81a16.24,16.24,0,0,0-28.66.24C46.41,28.62,52.53,23.33,60,23.33Z"/></svg>