<svg id="Layer_1" data-name="Layer 1" xmlns="http://www.w3.org/2000/svg" viewBox="0 0 120 120"><defs><style>.cls-1{fill:none;stroke:#fff;stroke-miterlimit:10;stroke-width:3px;}.cls-2{fill:#fff;}</style></defs><circle class="cls-1" cx="60" cy="60.5" r="57"/><path class="cls-2" d="M89,95.56,87.25,81a21.9,21.9,0,0,0-16.4-18.5,20.59,20.59,0,0,0,6.4-26l3.2-16.1a2.33,2.33,0,0,0-.8-2.3c-5.2-4.2-12.8-6.6-20.9-6.6s-15.7,2.4-20.9,6.7a2.2,2.2,0,0,0-.8,2.3l3.2,16.1a20.46,20.46,0,0,0,6.4,25.9A21.67,21.67,0,0,0,30.25,81l-1.8,14.6a7.73,7.73,0,0,0,6.1,8.5,120.39,120.39,0,0,0,24.2,2.4,120.39,120.39,0,0,0,24.2-2.4A7.68,7.68,0,0,0,89,95.56Zm-30.2-79.4c6.5,0,12.5,1.7,16.8,4.8l-2.5,12.6a42.55,42.55,0,0,0-28.6,0L42,21C46.25,17.86,52.25,16.16,58.75,16.16Zm-16,29.6a16,16,0,0,1,1.8-7.2,37.72,37.72,0,0,1,28.4,0,15.95,15.95,0,1,1-30.2,7.2ZM82,99.56a121.25,121.25,0,0,1-46.5,0,3.19,3.19,0,0,1-2.4-3.4l1.8-14.6a17.17,17.17,0,0,1,17-15.1h13.6a17.09,17.09,0,0,1,17,15.1l1.8,14.6A2.87,2.87,0,0,1,82,99.56Z"/><path class="cls-2" d="M57.75,28.56h2a.65.65,0,0,0,.6-.6v-2.8h2.8a.65.65,0,0,0,.6-.6v-2a.65.65,0,0,0-.6-.6h-2.8v-2.8a.65.65,0,0,0-.6-.6h-2a.65.65,0,0,0-.6.6V22h-2.8a.65.65,0,0,0-.6.6v2a.65.65,0,0,0,.6.6h2.8V28A.58.58,0,0,0,57.75,28.56Z"/></svg>