<svg id="Layer_1" data-name="Layer 1" xmlns="http://www.w3.org/2000/svg" viewBox="0 0 120 120"><defs><style>.cls-1{fill:none;stroke:#fff;stroke-miterlimit:10;stroke-width:3px;}.cls-2{fill:#fff;}</style></defs><circle class="cls-1" cx="60" cy="60" r="57"/><path class="cls-2" d="M64.55,46.82a3.61,3.61,0,1,1-3.61-3.61A3.61,3.61,0,0,1,64.55,46.82Z"/><path class="cls-2" d="M55.28,46.92l-9.5-.14a15.18,15.18,0,0,0,7.75,13l4.63-8A5.66,5.66,0,0,1,55.28,46.92Z"/><path class="cls-2" d="M44.92,44.81l3.89.08-.15-.16c-6.06-6.65-13.24-18.4-5.11-26.37A12.48,12.48,0,0,1,50,14.85a6.82,6.82,0,0,1,6.52,2.08c2.92,3.47,0,9.42-2.14,12.85a18,18,0,0,1,14.47.65c-.45-3.4-.86-6.51-2.49-9.72A16.52,16.52,0,0,0,61.7,15a16.51,16.51,0,0,0-7-3,16.72,16.72,0,0,0-7.35.06,13.31,13.31,0,0,0-6.12,3.7,15.06,15.06,0,0,0-3.74,6.13,16.12,16.12,0,0,0-.38,7.53,29.55,29.55,0,0,0,6,13.21C43.8,43.47,44.22,44,44.92,44.81Z"/><path class="cls-2" d="M66.59,46.77a.49.49,0,0,1,0,.12,5.67,5.67,0,0,1-2.75,4.85l4.84,7.87a15.13,15.13,0,0,0,7.4-13.22Z"/><path class="cls-2" d="M61.16,41.23a5.68,5.68,0,0,1,2.72.83l5-8.38a15.11,15.11,0,0,0-15.15-.42l4.52,8.65A5.6,5.6,0,0,1,61.16,41.23Z"/><path class="cls-2" d="M78.78,53.3H77.5A17.9,17.9,0,0,1,67,63.34c-.35-.54-.72-1.07-1.1-1.58a36.16,36.16,0,0,0-4.61-5.12c-.8-.76-1.62-1.5-2.45-2.23l-1.29,2.31a38.2,38.2,0,0,1,6.78,7.36A17.9,17.9,0,0,1,44.41,53.3H38.79v.63l5.12,1.74c2.78,7.13,8.68,12.22,15.65,12.82,0,2.48-.12,4.75-.25,6.83a4.39,4.39,0,0,0-.92.27,6.83,6.83,0,0,0-2.58,1.87c-1.64,1.88-1.89,4.63,0,6.4a7.41,7.41,0,0,0,2.34,1.39c-2.12,11.87-6,13-7.06,13.06h8.32a7.93,7.93,0,0,0-1.35,5.77,6.85,6.85,0,0,0,2.67,4.31c.14-.14.57-.42.43-.6a8.28,8.28,0,0,1-.88-1.38,6.45,6.45,0,0,1-.59-3.57,7,7,0,0,1,1.35-3.26,7.56,7.56,0,0,1,1.19-1.27h8.36c-.62,0-2.28-.47-4-3.36a10.37,10.37,0,0,0,2.18-2.45,4.22,4.22,0,0,0,.07-4.77c-1.24-1.71-3.44-2.49-5.46-3.07-.36-2.17-.67-4.67-.89-7.58A8.89,8.89,0,0,0,67,74.35a8.32,8.32,0,0,0,1.77-6.86,8,8,0,0,0-.19-.85,20.73,20.73,0,0,0,9.42-11l5.12-1.74V53.3ZM56.63,81.43a2.86,2.86,0,0,1,1-2.78,4.51,4.51,0,0,1,1.46-.94c-.17,2-.38,3.84-.62,5.48A3.28,3.28,0,0,1,56.63,81.43ZM66,87.93a2.83,2.83,0,0,1,1.42,1.83,4.2,4.2,0,0,1-1.8,3.13,32.74,32.74,0,0,1-1.77-6A10.48,10.48,0,0,1,66,87.93Zm0-16.78a5.9,5.9,0,0,1-3.63,3.48q-.15-2.84-.21-6.13a15.93,15.93,0,0,0,4-.81A5.94,5.94,0,0,1,66,71.15Z"/><path class="cls-2" d="M70.87,98.31h0Z"/><path class="cls-2" d="M51.13,98.31h0Z"/></svg>