<svg id="Layer_1" data-name="Layer 1" xmlns="http://www.w3.org/2000/svg" viewBox="0 0 120 120"><defs><style>.cls-1{fill:none;stroke:#fff;stroke-miterlimit:10;stroke-width:3px;}.cls-2{fill:#fff;}</style></defs><circle class="cls-1" cx="60" cy="60" r="57"/><path class="cls-2" d="M21.3,95.82H83.55a8.36,8.36,0,0,0,8.38-8.37,8.26,8.26,0,0,0-.06-1L89.54,73V25.19a1.2,1.2,0,0,0-1.2-1.2H64.4a1.2,1.2,0,0,0-1.2,1.2h0V70L46,81.51,30.79,83.85h-4.7a6,6,0,0,0-6,6v4.79a1.19,1.19,0,0,0,1.2,1.19Zm36.88-2.39L55,78.41l8.44-5.63,2.06,20.65Zm7.42-43.1H87.15v9.58H65.6ZM87.15,71.75,65.6,69.6V62.3H87.15ZM67.88,93.43,65.74,72l9.54,1,2.16,20.46Zm20.13-2a6,6,0,0,1-4.46,2H79.84L77.71,73.22l9.61,1,2.18,12.6A6,6,0,0,1,88,91.44Zm-.86-65V47.94H65.6V26.39ZM46.62,83.84a1.22,1.22,0,0,0,.49-.19l5.71-3.81,2.92,13.59H32.08V86.08ZM29.68,93.43H27.29V86.25h2.39ZM22.5,89.84a3.6,3.6,0,0,1,2.39-3.39v7H22.5Z"/></svg>