<svg id="Layer_1" data-name="Layer 1" xmlns="http://www.w3.org/2000/svg" viewBox="0 0 120 120"><defs><style>.cls-1{fill:none;stroke:#fff;stroke-miterlimit:10;stroke-width:3px;}.cls-2{fill:#fcfcfc;}</style></defs><circle class="cls-1" cx="60" cy="60" r="57"/><path class="cls-2" d="M47.31,50.8c5.36,0,9.7-3.91,9.7-8.72s-4.34-8.72-9.7-8.72-9.69,3.9-9.69,8.72S42,50.79,47.31,50.8Zm0-15.51c4.17,0,7.54,3,7.54,6.79s-3.37,6.78-7.54,6.78-7.54-3-7.54-6.78S43.15,35.3,47.31,35.29Z"/><path class="cls-2" d="M50.55,42.08H52.7a5.14,5.14,0,0,0-5.39-4.85v1.94A3.09,3.09,0,0,1,50.55,42.08Z"/><path class="cls-2" d="M37.08,49.83a1.46,1.46,0,1,0-1.62-1.46A1.54,1.54,0,0,0,37.08,49.83Z"/><path class="cls-2" d="M46.24,55.64v-1H53.9A5.36,5.36,0,0,0,59,51.36L59.5,50A2,2,0,0,1,61.93,49,1.83,1.83,0,0,1,63.13,50l.49,1.33a5.36,5.36,0,0,0,5.11,3.31H88.25a3.08,3.08,0,0,0,3.23-2.9V32.39a3.08,3.08,0,0,0-3.23-2.91H34.38a3.08,3.08,0,0,0-3.23,2.91v1H29a4.11,4.11,0,0,0-4.31,3.87A4.11,4.11,0,0,0,29,41.11h2.15V51.77a3,3,0,0,0,2.16,2.72v1.15a2.93,2.93,0,0,0,2.15,2.73V85.68a4.11,4.11,0,0,0,4.31,3.87,4.11,4.11,0,0,0,4.31-3.87V58.37A3,3,0,0,0,46.24,55.64ZM33.31,32.39a1,1,0,0,1,1.07-1H88.25a1,1,0,0,1,1.08,1V51.77a1,1,0,0,1-1.08,1H68.73a3.19,3.19,0,0,1-3.06-2l-.49-1.33A4.19,4.19,0,0,0,60,47.11a3.87,3.87,0,0,0-2.57,2.31L57,50.75a3.23,3.23,0,0,1-3.07,2H34.38a1,1,0,0,1-1.07-1ZM29,39.17a2,2,0,1,1,0-3.88h2.15v3.88Zm8.62,23.25h4.31V79.87H37.62Zm0-1.93V58.55h4.31v1.94Zm2.15,27.13a2.05,2.05,0,0,1-2.15-1.94V81.8h4.31v3.88A2.06,2.06,0,0,1,39.77,87.62Zm3.23-31H36.54a1,1,0,0,1-1.08-1v-1h8.62v1A1,1,0,0,1,43,56.61Z"/><path class="cls-2" d="M91.06,71.34l-8.29-5.73a24.32,24.32,0,0,0-26.53-.42l-9.55,6.13a.91.91,0,0,0-.25,1.36.9.9,0,0,0,.25.22L56.24,79a24.32,24.32,0,0,0,26.53-.42l8.29-5.74a.91.91,0,0,0,.2-1.36,1.12,1.12,0,0,0-.2-.17Zm-41.89.77,8.32-5.35a21.54,21.54,0,0,1,10.37-3.32c-5.32.49-9.19,4.78-8.65,9.57.48,4.11,4.09,7.35,8.65,7.78a21.56,21.56,0,0,1-10.37-3.33Zm19.69-6.78c4.17,0,7.54,3,7.54,6.78S73,78.9,68.86,78.9s-7.54-3-7.54-6.79S64.7,65.34,68.86,65.33ZM81.47,77.08a21.7,21.7,0,0,1-12.28,3.75H69c5.35,0,9.64-4,9.59-8.81S74.27,63.45,69,63.4h.19a21.86,21.86,0,0,1,12.28,3.75l7.17,5Z"/><path class="cls-2" d="M69.21,83.74v1.94A27.56,27.56,0,0,0,84.7,81l-1.31-1.54A25.18,25.18,0,0,1,69.21,83.74Z"/><path class="cls-2" d="M69.21,58.55a27.28,27.28,0,0,0-14.92,4.34l-7.61,4.94,1.26,1.57,7.61-4.94a25,25,0,0,1,13.66-4A25.25,25.25,0,0,1,83.39,64.8l6.36,4.38,1.31-1.54L84.7,63.26A27.55,27.55,0,0,0,69.21,58.55Z"/><path class="cls-2" d="M68.86,77a4.87,4.87,0,1,0-5.39-4.85A5.14,5.14,0,0,0,68.86,77Zm0-7.75a2.92,2.92,0,1,1-3.23,2.9A3.08,3.08,0,0,1,68.86,69.21Z"/></svg>