<svg id="Layer_1" data-name="Layer 1" xmlns="http://www.w3.org/2000/svg" viewBox="0 0 120 120"><defs><style>.cls-1{fill:none;stroke:#fff;stroke-miterlimit:10;stroke-width:3px;}.cls-2{fill:#fff;}</style></defs><circle class="cls-1" cx="60" cy="60" r="57"/><path class="cls-2" d="M66.85,79.56A24.09,24.09,0,0,1,50.42,86.2c-14.33,0-26-13.2-26-29.42s11.65-29.43,26-29.43c8.32,0,15.74,4.46,20.5,11.38a19.29,19.29,0,0,1,2.64-2.63c-5.4-7.75-13.76-12.73-23.14-12.73-16.26,0-29.49,15-29.49,33.41S34.16,90.19,50.42,90.19a27,27,0,0,0,16.43-5.68Z"/><path class="cls-2" d="M83.74,36.37c-7.73,0-14,7.1-14,15.85s6.26,15.84,14,15.84,14-7.09,14-15.84S91.46,36.37,83.74,36.37ZM72.23,47.16a14.46,14.46,0,0,1,2.1-4H78a7.13,7.13,0,0,0,.26,4Zm12,2.59c-2.47.33-4.7-1.66-5-4.46s1.47-5.32,3.94-5.65,4.7,1.66,5,4.45S86.73,49.42,84.27,49.75Zm4.91-2.59a7.48,7.48,0,0,0,.38-3.25c0-.25-.07-.5-.12-.74h3.71a14.44,14.44,0,0,1,2.09,4Z"/><ellipse class="cls-2" cx="83.74" cy="44.69" rx="1.66" ry="1.88"/><polygon class="cls-2" points="81.35 70.48 83.02 80.14 84.68 70.48 81.35 70.48"/><path class="cls-2" d="M89.5,70.48H86.11l-2,11.92,4.63-4-1.28-1.24a.88.88,0,0,1-.18-.93Z"/><path class="cls-2" d="M77.34,78.42l4.63,4L79.91,70.48H76.53l2.27,5.77a.88.88,0,0,1-.18.93Z"/><path class="cls-2" d="M92.49,70.48H91l-2.32,5.87,1.55,1.5a.83.83,0,0,1,.24.63.81.81,0,0,1-.27.61l-6.52,5.6V96.63h8.77c2.55,0,4.62-2.34,4.62-5.22V75.7C97.11,72.82,95.05,70.48,92.49,70.48Zm1.76,19.77H92.16v2.37H89.32V90.25H87.23V87h2.09V84.67h2.84V87h2.09Z"/><path class="cls-2" d="M82.31,84.69l-6.52-5.6a.85.85,0,0,1-.28-.61.88.88,0,0,1,.25-.63l1.54-1.5L75,70.48h0c-2.56,0-4.62,2.34-4.62,5.22V91.41c0,2.88,2.07,5.22,4.62,5.22h7.33Z"/><path class="cls-2" d="M63.91,38.4a3.94,3.94,0,0,0-3.79.78,4.57,4.57,0,0,0-2.83-3,4.29,4.29,0,0,0-5.37,3.36,5,5,0,0,0,3,6.08l.31.07-.74,2.74A13.32,13.32,0,0,1,56,53a13.54,13.54,0,0,1-1.85,9.22,10.6,10.6,0,0,1-8.9,5.21h0c-.22,0-.42,0-.63,0a4.79,4.79,0,0,0-.21.64,5,5,0,0,0,3,6.09,3.92,3.92,0,0,0,3.79-.79,4.57,4.57,0,0,0,2.83,3A4.28,4.28,0,0,0,59.34,73a5,5,0,0,0-3-6.08,1.77,1.77,0,0,0-.31-.08l5.14-19.09.3.12a4.29,4.29,0,0,0,5.37-3.35A5,5,0,0,0,63.91,38.4Z"/><path class="cls-2" d="M51.44,53.87a7.41,7.41,0,0,0-2.63-4.73,5.94,5.94,0,0,0-3.73-1.35,7,7,0,0,0-.92.08L40.64,60.39a7.57,7.57,0,0,0,.71.67,5.88,5.88,0,0,0,3.72,1.34,6.28,6.28,0,0,0,5.27-3.08A8,8,0,0,0,51.44,53.87Zm-8,5.75a.6.6,0,1,1,.53-.6A.57.57,0,0,1,43.39,59.62Zm1.69-8.41a.71.71,0,1,1,1.4,0,.71.71,0,1,1-1.4,0Zm1.56,6.52a1,1,0,1,1,.85-1A.92.92,0,0,1,46.64,57.73Zm1.79-1.45a.73.73,0,1,1,.65-.73A.69.69,0,0,1,48.43,56.28Z"/><path class="cls-2" d="M54.3,53.29a11,11,0,0,0-3.88-7,8.72,8.72,0,0,0-5.5-2,9.26,9.26,0,0,0-7.77,4.54,11.89,11.89,0,0,0-1.62,8,11.22,11.22,0,0,0,2.78,5.93l-4.6,6,0,.06-.19.25h0A2.78,2.78,0,0,0,33,70.66a2.47,2.47,0,0,0,2.3,2.6,2.22,2.22,0,0,0,1.89-1.14h0L41.16,65a8.6,8.6,0,0,0,3.75.88,9.25,9.25,0,0,0,7.77-4.55A11.82,11.82,0,0,0,54.3,53.29Zm-3.37,6.63a7.16,7.16,0,0,1-6,3.53,6.76,6.76,0,0,1-4.26-1.54,8.51,8.51,0,0,1-3-5.41,9.16,9.16,0,0,1,1.25-6.23,7.17,7.17,0,0,1,6-3.53,6.73,6.73,0,0,1,4.25,1.54,8.47,8.47,0,0,1,3,5.41A9.17,9.17,0,0,1,50.93,59.92Z"/></svg>