<svg id="Layer_1" data-name="Layer 1" xmlns="http://www.w3.org/2000/svg" viewBox="0 0 120 120"><defs><style>.cls-1{fill:none;stroke:#fff;stroke-miterlimit:10;stroke-width:3px;}.cls-2{fill:#fff;}</style></defs><circle class="cls-1" cx="60" cy="60.5" r="57"/><path class="cls-2" d="M68.19,30.69c0-4.25-3.12-7.69-7-7.69s-7,3.44-7,7.69,3.11,7.7,7,7.7S68.19,35,68.19,30.69Z"/><path class="cls-2" d="M31.3,85.87H24.51a2.28,2.28,0,0,0-2.34,2v6.27S22,97,24.77,97h69.6C97.1,97,97,94.06,97,94.06V91.79a1.23,1.23,0,0,0-1.4-1.36H40C35.54,90.43,33.62,85.87,31.3,85.87Z"/><path class="cls-2" d="M28.29,69.59c-3.47,0-6.29,3.1-6.29,6.94s2.82,6.93,6.29,6.93,6.28-3.11,6.28-6.93S31.75,69.59,28.29,69.59Z"/><path class="cls-2" d="M55,63.21,51.88,55V71h9.44l2.07-2.26-5.6-2.3A4.76,4.76,0,0,1,55.1,63.3S55.05,63.25,55,63.21Z"/><path class="cls-2" d="M35.59,81.32c0,3.61,2.62,6.53,5.9,6.56H62.67a2.87,2.87,0,0,0-.05-5.71H51.67l-8.91-2.06.48-2.54,8.68,2h10.7A5.23,5.23,0,0,1,67.56,85a5.87,5.87,0,0,1-.75,2.85H93.56A3.64,3.64,0,0,0,97,84.06a3.74,3.74,0,0,0-2.67-3.7L70.49,78.24l4.62-7.73H86.76a3.59,3.59,0,0,0,3.45-3.75A3.64,3.64,0,0,0,86.76,63H74.91a5.7,5.7,0,0,1,.44,4.86A5,5,0,0,1,69.05,71l-3.28-1.33-4.71,5.08H41.54C38.24,74.75,35.58,77.7,35.59,81.32Z"/><path class="cls-2" d="M58.68,64.23a2.89,2.89,0,0,1-1.58-1.65l-4.92-13.2c-1.09-3.05-.06-8.94,5.28-8.94h9.41a6,6,0,0,1,4.61,1.77c.46.53,15.1,18.29,15.1,18.29H78.21l-7.39-8.93v8.48L63.25,57,60.64,50l-2,.82L61.71,59l9.94,4.13a3.15,3.15,0,0,1,1.4,4,2.64,2.64,0,0,1-3.59,1.55Z"/></svg>