<svg id="Layer_1" data-name="Layer 1" xmlns="http://www.w3.org/2000/svg" viewBox="0 0 120 120"><defs><style>.cls-1{fill:none;stroke:#fff;stroke-miterlimit:10;stroke-width:3px;}.cls-2{fill:#fdfdff;}</style></defs><circle class="cls-1" cx="60" cy="60" r="57"/><path class="cls-2" d="M94.46,49.61H90.07a32.19,32.19,0,0,0-1-7.17A2,2,0,0,0,87.13,41H83.18a25.59,25.59,0,0,0-47.57,0H31.7a2,2,0,0,0-1.95,1.48,31,31,0,0,0-1,7.16H24.46a1,1,0,0,0-1,1V80.26a8.62,8.62,0,0,0,8.62,8.62H40.3a4,4,0,0,0,0,.69v2.19a1.92,1.92,0,0,0,1.93,1.92H76.74a1.94,1.94,0,0,0,1.93-1.92V89.59q0-.34,0-.69h8.22a8.63,8.63,0,0,0,8.57-8.64V50.61A1,1,0,0,0,94.46,49.61Zm-11,9.53.1-.27a26.5,26.5,0,0,0,1.06-4.12V54.6q.15-.95.24-1.92V49a5.19,5.19,0,0,0-.08-1.11c-.08-.37-.07-.62-.11-.91l-.08-.54a.34.34,0,0,0,0-.28c0-.19-.06-.39-.1-.58a2.75,2.75,0,0,0-.13-.62c-.06-.24-.06-.31-.1-.45l-.18-.74c-.08-.26-.15-.52-.23-.78h3.22a29.86,29.86,0,0,1,1,7.46v.19a28.77,28.77,0,0,1-6.29,17.73l-.67.84h-.26L79.73,66c.22-.29.42-.59.63-.89l.4-.56c.28-.42.54-.86.79-1.29.1-.18.21-.34.31-.52.26-.47.49-1,.72-1.45.07-.14.15-.28.21-.43C83,60.27,83.26,59.7,83.47,59.14Zm-11,23.8v1.53h-26V82.94Zm-23.59-2V76.32H70.05l0,4.62Zm-9.2-6.62a1.75,1.75,0,0,1-1.75-1.75V71.26a.12.12,0,0,1,.06-.12H38v0H80.82a.27.27,0,0,1,.06.12v1.28a1.75,1.75,0,0,1-1.75,1.75h0l-8.1.08ZM59.45,33.93A16.42,16.42,0,0,0,43,50.32a15.78,15.78,0,0,0,.38,3.56l-.89,2.45L42,54.53a16.69,16.69,0,0,1-.49-4.11,17.85,17.85,0,1,1,35.22,4.11l-.44,1.8-.86-2.45a16.85,16.85,0,0,0,.39-3.47A16.44,16.44,0,0,0,59.45,33.93ZM73.84,50.41a14.45,14.45,0,0,1-.15,2.08H45.1A13.14,13.14,0,0,1,45,50.41a14.44,14.44,0,0,1,28.88,0ZM43.23,60.18l1.65-4.66.36-1h28.3l2,5.67,2.1,5.93,1,2.82.07.19H40.06l1.07-3v0Zm-7.45-9.74V49.13A13.73,13.73,0,0,1,36,47v-.25a23.65,23.65,0,0,1,46.7,0,1,1,0,0,0,0,.25c.1.72.18,1.45.22,2.19v1.63a10.86,10.86,0,0,1-.08,1.62,2,2,0,0,1-.08.69q-.06.57-.15,1.14a4.66,4.66,0,0,1-.15.83c0,.27-.13.65-.21,1s-.15.6-.24.89-.17.58-.27.87-.2.61-.31.91-.22.54-.33.81-.25.6-.39.89-.26.52-.39.77-.3.59-.46.88l-.46.75c-.18.28-.34.56-.53.83l-1.38-3.9L78.65,55a19.66,19.66,0,0,0,.54-4.59,19.85,19.85,0,1,0-39.7-.1A19.47,19.47,0,0,0,40,55l1.16,4.76-1.38,3.9c-.16-.25-.32-.5-.47-.76s-.35-.54-.51-.82-.3-.56-.44-.84-.28-.53-.41-.81-.26-.57-.38-.86-.23-.56-.34-.85-.21-.58-.31-.87-.19-.6-.27-.91-.16-.56-.23-.85-.15-.67-.22-1-.11-.53-.15-.8-.11-.79-.16-1.19c0-.21,0-.42-.07-.63,0-.57-.07-1.15-.08-1.73ZM31.7,43h3.2c-.08.26-.15.53-.23.8l-.18.71a3.4,3.4,0,0,1-.11.51c0,.21-.08.35-.12.58s-.07.37-.1.55a1,1,0,0,0,0,.3v.26a1.22,1.22,0,0,0,0,.27,8.18,8.18,0,0,1-.12.93c0,.33-.06.73-.08,1.09V50.4a1,1,0,0,0,0,.25v.73a9.36,9.36,0,0,0,.06,1.3c.06.43.12.94.18,1.41a3.74,3.74,0,0,0,.09.66,18.13,18.13,0,0,0,.44,2.07v.12c.17.64.36,1.27.58,1.9l.16.4c.19.52.39,1,.61,1.55.08.17.17.34.26.52.21.46.43.91.68,1.36.11.19.23.38.34.58.24.41.49.82.76,1.23.13.2.28.4.43.61s.39.57.6.85L38,69.12h-.25l-.67-.84a21.73,21.73,0,0,1-1.42-1.93,28.69,28.69,0,0,1-4.87-15.8l-.11-.13A28,28,0,0,1,31.7,43Zm10.1,43c0,.06-.11.11-.16.16a5.19,5.19,0,0,0-.58.75h-9a6.62,6.62,0,0,1-6.62-6.57V51.61h3.26a3.45,3.45,0,0,0,.07.85c.07.28.05.76.09,1.14s.11.91.18,1.36.11.75.18,1.12.19.9.3,1.35.16.73.26,1.09.27.89.41,1.33a10.08,10.08,0,0,0,.35,1c.13.3.35.89.53,1.33l.41,1c.14.34.45.9.68,1.34s.29.6.45.89c.28.48.58,1,.88,1.42.14.24.28.48.43.71.47.69,1,1.37,1.49,2l.67.83a1.34,1.34,0,0,0-.09.26v.14a1.44,1.44,0,0,0,0,.46v1.28a3.74,3.74,0,0,0,3.75,3.75h7.2v4.62H45.46a1,1,0,0,0-1,1v2.68h-.14a5.92,5.92,0,0,0-.75.22l-.2.08a4.6,4.6,0,0,0-.82.44l-.14.1A5.07,5.07,0,0,0,41.8,85.92ZM76.67,91.7H42.25V89.59a2.84,2.84,0,0,1,.28-1.28,3.14,3.14,0,0,1,2.93-1.84H73.55a3.38,3.38,0,0,1,.45,0,3.13,3.13,0,0,1,2.67,3.08ZM93.46,80.26a6.63,6.63,0,0,1-6.62,6.62H77.9a6,6,0,0,0-.58-.75L77.17,86a5.62,5.62,0,0,0-.64-.55l-.07-.08a6.21,6.21,0,0,0-.88-.47h-.06a6.58,6.58,0,0,0-.93-.28h-.13V81.94a1,1,0,0,0-1-1H72.05V76.32h7.07a3.76,3.76,0,0,0,3.76-3.75V71.26a3.53,3.53,0,0,0,0-.46.23.23,0,0,0,0-.14s0-.18-.08-.26l.66-.84c.53-.65,1-1.33,1.49-2,.15-.23.29-.47.44-.71.3-.47.6-.94.87-1.42.16-.29.3-.59.45-.88.23-.45.47-.89.68-1.35s.27-.65.41-1,.37-.89.54-1.35.22-.68.33-1,.3-.9.42-1.36.18-.71.26-1.07.22-.91.3-1.37.12-.73.18-1.1.14-.91.18-1.38.07-.75.09-1.12.06-.57.07-.86h3.34Z"/><path class="cls-2" d="M88.46,72.73v7.53a1.63,1.63,0,0,1-1.62,1.62,1,1,0,0,0,0,2,3.63,3.63,0,0,0,3.62-3.62V72.73a1,1,0,0,0-2,0Z"/><path class="cls-2" d="M82.76,81.9h-.88a1,1,0,0,0,0,2h.88a1,1,0,1,0,0-2Z"/></svg>