<svg id="Layer_1" data-name="Layer 1" xmlns="http://www.w3.org/2000/svg" viewBox="0 0 120 120"><defs><style>.cls-1{fill:none;stroke:#fff;stroke-miterlimit:10;stroke-width:3px;}.cls-2{fill:#fff;}</style></defs><circle class="cls-1" cx="60" cy="60" r="57"/><path class="cls-2" d="M36.46,78.85l-2,1.64c.36.45.74.9,1.12,1.33l2-1.75C37.15,79.67,36.8,79.26,36.46,78.85Z"/><path class="cls-2" d="M78.85,83.53l1.64,2a33.26,33.26,0,0,0,5.16-5.18L83.6,78.77A30.55,30.55,0,0,1,78.85,83.53Z"/><path class="cls-2" d="M91.77,68c.08-.31.17-.62.23-.93.11-.47.19-1,.27-1.43,0-.3.12-.59.16-.89.08-.54.13-1.07.18-1.61,0-.25.06-.5.08-.76.06-.79.09-1.59.09-2.39A32.79,32.79,0,0,0,69.05,28.52a10.45,10.45,0,0,0-18.1,0A32.79,32.79,0,0,0,27.22,60c0,.8,0,1.6.09,2.39,0,.26.06.51.08.77.05.53.1,1.07.18,1.6,0,.3.11.6.16.91.08.47.16.94.26,1.41s.16.64.25,1,.17.74.27,1.1L23,96.71H97L91.49,69.14C91.59,68.76,91.68,68.38,91.77,68ZM70.59,51.5l.41.55c.19.27.38.55.56.84s.24.39.35.6.3.59.44.89.19.42.28.64.23.64.33,1,.14.42.2.63c.09.37.16.74.22,1.12,0,.18.08.36.1.55A13.76,13.76,0,0,1,73.6,60c0,.37,0,.74,0,1.1,0,.12,0,.24,0,.36s-.05.49-.09.73,0,.27-.08.41-.08.44-.14.65-.08.29-.12.44-.11.4-.18.6-.1.29-.15.44l-.23.57c-.06.14-.13.29-.2.43s-.17.37-.26.54l-.24.43c-.1.17-.2.34-.31.51l-.27.42-.17.24H48.93l-.17-.24-.27-.42c-.11-.17-.21-.34-.31-.51l-.24-.43c-.09-.18-.18-.36-.26-.54s-.14-.29-.2-.43l-.23-.57c0-.15-.11-.29-.16-.44l-.18-.6-.12-.44c0-.21-.09-.43-.13-.65s-.06-.27-.08-.41-.07-.49-.09-.73,0-.24,0-.36c0-.36-.05-.73-.05-1.1a13.76,13.76,0,0,1,.12-1.71c0-.19.07-.37.1-.55a10.59,10.59,0,0,1,.23-1.12c0-.21.12-.42.19-.63s.21-.66.33-1,.18-.42.28-.63.28-.6.44-.89l.35-.61c.18-.28.37-.56.56-.83l.41-.55c.22-.27.45-.52.69-.78s.29-.32.45-.47.57-.52.86-.76l.42-.35.09-.06.58,1.74h15l.58-1.74.09.06.42.35c.3.24.59.49.87.76s.3.31.44.47S70.37,51.23,70.59,51.5Zm4.19,21.23.13.2a5.29,5.29,0,0,1,.4.74l0,.07a5.35,5.35,0,0,1,.21.68H44.45c0-.1,0-.21.09-.32s.05-.18.09-.27a5,5,0,0,1,.29-.62l.06-.12a6,6,0,0,1,.48-.69l.12-.13a5.21,5.21,0,0,1,.47-.47l.19-.16a5.36,5.36,0,0,1,.49-.34l.22-.14a6.11,6.11,0,0,1,.58-.27l.2-.08a5.8,5.8,0,0,1,.84-.24,6.39,6.39,0,0,1,.94-.08h21a6.39,6.39,0,0,1,.94.08A5.27,5.27,0,0,1,74.2,72,5.54,5.54,0,0,1,74.78,72.73ZM46.89,90.1V81H73.11v9.18H46.89ZM74.65,78.36H45.35A3.76,3.76,0,0,1,42.5,77h35A3.76,3.76,0,0,1,74.65,78.36Zm-9-30.16H54.39L54,46.89h12.1Zm4-8.91a.5.5,0,0,1,.07.13.65.65,0,0,1,0,.49l-1.46,4.36H51.77l-1.46-4.36a.66.66,0,0,1,.1-.62.64.64,0,0,1,.53-.27H69.06A.64.64,0,0,1,69.59,39.29ZM67,30.22a7.88,7.88,0,0,1,.85,3.56V36.4H52.13V33.78A7.87,7.87,0,0,1,67,30.22ZM26.2,94.09l4.06-20.3a34.12,34.12,0,0,0,2.19,4l2.2-1.43A30.14,30.14,0,0,1,49.73,31.65c0,.19-.06.39-.09.59s0,.25-.06.37a11.48,11.48,0,0,0-.07,1.17v2.94l0,0A3,3,0,0,0,49,37a1.53,1.53,0,0,0-.21.14,3.43,3.43,0,0,0-.55.59,3.32,3.32,0,0,0-.46,3l2.06,6.15h.57L50.3,47l-.58.49c-.33.27-.66.54-1,.83s-.38.4-.57.6-.54.59-.8.9l-.5.67c-.23.32-.45.65-.66,1s-.29.49-.43.73-.36.71-.53,1.07-.23.5-.33.76-.28.77-.4,1.16-.17.5-.23.75A12.22,12.22,0,0,0,44,57.29c0,.22-.09.44-.12.66a15.57,15.57,0,0,0-.14,2c0,.42,0,.84,0,1.26,0,.13,0,.27,0,.4,0,.28.06.56.11.84s.05.31.08.46.1.51.16.76.07.32.11.47.14.5.22.75l.15.43c.09.28.2.55.32.83a3.05,3.05,0,0,0,.13.32c.16.38.34.74.54,1.11l.12.21.43.74a5.93,5.93,0,0,0-.56.29l-.21.12a6.57,6.57,0,0,0-1,.69l-.22.19a8.47,8.47,0,0,0-.67.67l-.21.25a6.73,6.73,0,0,0-.68,1,.61.61,0,0,0-.07.14,9.12,9.12,0,0,0-.45.95l-.12.32a9.22,9.22,0,0,0-.28,1,1,1,0,0,1,0,.17.09.09,0,0,1,0,0H38.36l1.1,2.63a7.53,7.53,0,0,0,.41.8c.05.08.1.16.16.24s.22.33.34.48l.22.26c.12.13.24.26.38.39l.25.23.42.33.28.19c.16.1.33.19.5.28l.25.14a7.94,7.94,0,0,0,.81.31h0a5.32,5.32,0,0,0,.79.18v4.84a30.38,30.38,0,0,1-5.62-4.43L36.8,83.14a32.58,32.58,0,0,0,7.47,5.58v1.61a6.59,6.59,0,0,0-4,2.74l-.67,1Zm16.63,0a3.92,3.92,0,0,1,2.93-1.31H74.24a3.92,3.92,0,0,1,2.93,1.31Zm51,0H80.37l-.67-1a6.59,6.59,0,0,0-4-2.74v-1.6c.72-.39,1.44-.81,2.12-1.25l-1.42-2.2-.7.44V80.89a6.35,6.35,0,0,0,.78-.19h0a7.94,7.94,0,0,0,.81-.31l.25-.14c.17-.09.34-.18.5-.28l.28-.19.42-.33.26-.23.37-.39.22-.25c.12-.16.23-.32.34-.49s.11-.15.16-.24a6.68,6.68,0,0,0,.41-.8l1.1-2.63H78.25a.24.24,0,0,1,0-.08,8.92,8.92,0,0,0-.25-1c0-.06,0-.13-.08-.2a6.09,6.09,0,0,0-.37-.88l-.06-.14a8.42,8.42,0,0,0-.56-.9,2.43,2.43,0,0,1-.14-.2,8.19,8.19,0,0,0-.72-.84,8.82,8.82,0,0,0-1-.84l-.36-.22a7.3,7.3,0,0,0-.77-.44s-.09-.06-.15-.08c.16-.25.3-.51.44-.77a1.74,1.74,0,0,0,.11-.18,11.37,11.37,0,0,0,.54-1.11A3.05,3.05,0,0,0,75,66.2c.11-.27.23-.55.32-.82s.1-.29.14-.44.16-.5.23-.75.08-.31.11-.47.11-.5.16-.76.06-.3.08-.46.08-.56.11-.84c0-.13,0-.27,0-.4,0-.42,0-.84,0-1.26a15.57,15.57,0,0,0-.14-2c0-.22-.08-.44-.12-.66-.08-.45-.16-.9-.27-1.33-.07-.26-.15-.51-.23-.76s-.25-.78-.4-1.16-.22-.51-.34-.76-.33-.72-.52-1.07-.28-.48-.43-.72-.43-.66-.66-1-.33-.46-.51-.68-.52-.61-.79-.9-.37-.4-.57-.59-.63-.57-1-.84-.38-.33-.59-.49l-.14-.12h.57l2.06-6.16a3.31,3.31,0,0,0-.47-3,3.38,3.38,0,0,0-.54-.59L71,37a3.12,3.12,0,0,0-.45-.29l0,0V33.78a11.11,11.11,0,0,0-.07-1.16l-.06-.39c0-.19,0-.39-.09-.58A30.18,30.18,0,0,1,90.16,60c0,.81,0,1.6-.1,2.4a29.3,29.3,0,0,1-1.21,6.4,29.75,29.75,0,0,1-2,5L89.16,75c.21-.4.38-.82.57-1.24Z"/><path class="cls-2" d="M62.78,54.37l-1.85-1.85a1.36,1.36,0,0,1-1.86,0l-1.85,1.85a3.94,3.94,0,0,0,5.56,0Z"/><path class="cls-2" d="M65.56,57.15,63.71,55.3a5.26,5.26,0,0,1-7.42,0l-1.85,1.85a7.85,7.85,0,0,0,11.12,0Z"/><path class="cls-2" d="M60,60.77a9.13,9.13,0,0,1-6.49-2.69l-1.85,1.85a11.78,11.78,0,0,0,16.68,0l-1.85-1.85A9.13,9.13,0,0,1,60,60.77Z"/></svg>