<svg id="Layer_1" data-name="Layer 1" xmlns="http://www.w3.org/2000/svg" viewBox="0 0 120 120"><defs><style>.cls-1{fill:none;stroke:#fff;stroke-miterlimit:10;stroke-width:3px;}.cls-2{fill:#fff;}</style></defs><circle class="cls-1" cx="60" cy="60" r="57"/><path class="cls-2" d="M62,25.23c-4,0-7.15,2.86-7.15,6.38S58,38,62,38s7.16-2.86,7.16-6.39S65.91,25.23,62,25.23ZM57.89,39.15c-4.3,0-7.81,3.13-7.81,7v7.82C60.71,55.21,69,63.34,69,73.14c0,.18,0,.35,0,.52h2.12v.92h0v2.33h0V79.7a5.53,5.53,0,0,0-4.83,5.21c0,2.92,2.69,5.31,6,5.31s6-2.39,6-5.31a5.48,5.48,0,0,0-4.5-5.13V76.91h3.07l4.7,8.62.28.52a1.64,1.64,0,0,0,0,.93,2.26,2.26,0,0,0,2.72,1.41l8.77-2.09a2,2,0,0,0,1.57-2.42,2.26,2.26,0,0,0-2.72-1.4l-8.34,2-5-9.22a1.34,1.34,0,0,0-1.17-.66H73.67V71.89h0V61.2a1.22,1.22,0,0,0-1.3-1.15H65.7V56.42l.51.22c.73.29,1.42.54,2,.73a5.15,5.15,0,0,0,1.69.35H77.1a4,4,0,1,0,0-8H70.66a27.12,27.12,0,0,1-5-3.28v-.28C65.7,42.28,62.19,39.15,57.89,39.15ZM30.81,41.48a2.34,2.34,0,1,0,0,4.64h7.65A2.66,2.66,0,0,0,40.7,45h2.88V54a23.61,23.61,0,0,1,3.59-.29l.31,0V44.38a1.82,1.82,0,0,0-1.91-1.74h-.08l-.22,0-.23,0H40.7a2.66,2.66,0,0,0-2.24-1.16ZM47.17,56.06C36.59,56.06,28,63.72,28,73.14s8.61,17.08,19.19,17.08,19.2-7.66,19.2-17.08S57.76,56.06,47.17,56.06Zm0,6.17c6.76,0,12.27,4.9,12.27,10.91S53.93,84.06,47.17,84.06,34.9,79.16,34.9,73.14,40.41,62.23,47.17,62.23Zm29.09.65v8.44L79.72,73l4.4,7.46c2.94,4.27,10.11.16,7.26-4l-6-9.4ZM47.17,64.54c-5.36,0-9.67,3.85-9.67,8.6s4.31,8.6,9.67,8.6,9.67-3.84,9.67-8.6S52.53,64.54,47.17,64.54Zm0,4.7a3.93,3.93,0,1,1-4.38,3.9A4.18,4.18,0,0,1,47.17,69.24Zm0,2.32A1.6,1.6,0,1,0,49,73.14,1.66,1.66,0,0,0,47.17,71.56Z"/></svg>