<svg id="Layer_1" data-name="Layer 1" xmlns="http://www.w3.org/2000/svg" viewBox="0 0 120 120"><defs><style>.cls-1{fill:none;stroke:#fff;stroke-miterlimit:10;stroke-width:3px;}.cls-2{fill:#fff;}</style></defs><path class="cls-1" d="M60,2.5a57,57,0,1,0,57,57A57,57,0,0,0,60,2.5Z"/><path class="cls-2" d="M37.21,56.31c.6,4.34,2.75,10,9.44,10.59,6.61-.25,8.7-5.84,9.36-10.09.52.42,1.49.25,2.46-3.75.81-3.25.29-4.34-.37-4.59,2.22-12.26-3-12.67-3-12.67a7.84,7.84,0,0,0-2.9-3,8.92,8.92,0,0,0-5.87-1.41,10.13,10.13,0,0,0-2.38.5,9.16,9.16,0,0,0-2.6,1.5,19.72,19.72,0,0,0-2.67,2.5,13.1,13.1,0,0,0-2.9,5.67A12.25,12.25,0,0,0,36,47.89c-1-.08-2.08.5-1,4.67C35.72,55.56,36.39,56.39,37.21,56.31Z"/><path class="cls-2" d="M84,31.21H74.59c-6.61,0-12,6.09-12,13.43a14.18,14.18,0,0,0,2.23,7.75c-.6,1.42-1.56,3.34-3.27,4.25a.69.69,0,0,0,.15,1.26,7.8,7.8,0,0,0,6.61-1.84A11.39,11.39,0,0,0,74.52,58h9.37c6.61,0,12-6.09,12.11-13.34C96,37.21,90.57,31.21,84,31.21ZM71.77,47.3A2,2,0,0,1,70.58,47a2.71,2.71,0,0,1-1.26-2.08v-.67a2.71,2.71,0,0,1,1.26-2.09,2,2,0,0,1,1.19-.33,2.63,2.63,0,0,1,2.45,2.75A2.52,2.52,0,0,1,71.77,47.3Zm7.58.17a2.77,2.77,0,1,1,2.45-2.75A2.54,2.54,0,0,1,79.35,47.47Zm7.66.42c-.23,0-.37-.08-.52-.08a1,1,0,0,1-.45-.17,3,3,0,0,1,0-5.17.93.93,0,0,1,.45-.17,1.18,1.18,0,0,1,.52-.08A2.64,2.64,0,0,1,89.46,45,2.93,2.93,0,0,1,87,47.89Z"/><path class="cls-2" d="M63.45,71.32a46.05,46.05,0,0,1-8.85-4.84l-4.23,15.1-.6,2.08-6.43-.09c-.59.58,1,0,0,0-.57,0,.43.21,0,0s.37.35,0,0l.26.09L43,81.58l-.86-3.06C42,78,42,78,41.72,77L38.77,66.48a52.47,52.47,0,0,1-8.84,4.84c-6.1,2.5-5.73,8.09-5.87,18.68H69.32C69.17,79.41,69.54,73.74,63.45,71.32Z"/></svg>