<svg id="Layer_1" data-name="Layer 1" xmlns="http://www.w3.org/2000/svg" viewBox="0 0 120 120"><defs><style>.cls-1{fill:none;stroke:#fff;stroke-miterlimit:10;stroke-width:3px;}.cls-2{fill:#fff;}</style></defs><circle class="cls-1" cx="60" cy="60" r="57"/><path class="cls-2" d="M85.89,33.15c-9-8.85-24.27-1.95-26.44-.9-7-4-16.69-7.57-24.52-2.51-5.62,3.62-8.87,8.3-9.64,13.91-1.16,8.44,3.8,16.64,6.38,19.29,1.3,1.34,1.76,7.87,2.09,12.63.71,10.15,1.32,18.92,7.45,20a6.35,6.35,0,0,0,4.34-.66c3.3-1.87,4.34-6.54,5.54-11.94,1.55-7,3-12.27,6.64-12a2.52,2.52,0,0,1,1.85.7c1.86,1.9,1.06,7.56.46,11.72-.86,6-1.59,11.19,3.08,12.35a6.77,6.77,0,0,0,1.55.18A7.23,7.23,0,0,0,68,95c7.19-3.65,12.83-19.42,15-27.95,5.69-3.78,9.43-9.26,10.26-15.2C93.91,47.3,93.15,40.33,85.89,33.15Zm2.32,18.23c-.71,5-4,9.67-9,12.73a2.23,2.23,0,0,0-1,1.31c-3,12.22-8.73,23.85-12.85,25.94a1.89,1.89,0,0,1-.6.22c-.6-1.14,0-5.24.36-7.72.82-5.73,1.66-11.64-1.58-15a8.07,8.07,0,0,0-5.4-2.25h-.67c-7.85,0-9.77,8.62-11.32,15.57-.77,3.49-1.84,8.3-3.36,9.15-.08,0-.17.1-.47,0C40,91,39.22,80,38.89,75.34c-.54-7.86-1-12.79-3.25-15.12-1.74-1.79-6.22-8.92-5.24-16.06.6-4.4,3.18-8.1,7.66-11,9.87-6.42,26.54,8.3,26.71,8.45a2.89,2.89,0,0,0,3.6.08A1.92,1.92,0,0,0,68.75,39a1.54,1.54,0,0,0-.28-.29A53.08,53.08,0,0,0,64,35.14C68,33.56,77,31,82.06,36,86.85,40.69,89,46,88.21,51.38Z"/></svg>