<svg id="Layer_1" data-name="Layer 1" xmlns="http://www.w3.org/2000/svg" viewBox="0 0 24 24"><defs><style>.cls-1,.cls-2,.cls-3{fill:none;}.cls-1,.cls-2{stroke:#231f20;stroke-miterlimit:10;stroke-width:0.5px;}.cls-2{stroke-dasharray:10.67;}</style></defs><path class="cls-1" d="M7.37,6.45A6.73,6.73,0,0,1,14.71,5.1L16.6,3.21a9.27,9.27,0,0,0-11,1.44,9,9,0,0,0-1.43,11L6,13.79A6.72,6.72,0,0,1,7.37,6.45Z"/><path class="cls-1" d="M17.36,16.44A6.73,6.73,0,0,1,10,17.79L8.13,19.68a9.27,9.27,0,0,0,11-1.44,9.27,9.27,0,0,0,1.44-11L18.71,9.1A6.73,6.73,0,0,1,17.36,16.44Z"/><path class="cls-1" d="M18.71,9.1,10,17.79"/><path class="cls-1" d="M6,13.79,14.71,5.1"/><path class="cls-1" d="M4.07,15.74,2.43,17.38a.28.28,0,0,0,0,.38h0L6,21.38a.28.28,0,0,0,.38,0h0l1.75-1.7"/><path class="cls-2" d="M20.7,7.11l1.63-1.63a.28.28,0,0,0,0-.38L18.72,1.48a.28.28,0,0,0-.4,0h0l-1.69,1.7"/><path class="cls-3" d="M18.9,8.91l1.67-1.67"/><path class="cls-3" d="M14.9,4.91a7.22,7.22,0,0,1,2.4,1.6,7.32,7.32,0,0,1,1.6,2.4"/><path class="cls-3" d="M16.79,3,14.9,4.91"/><path class="cls-3" d="M20.79,7a10.36,10.36,0,0,0-1.71-2.29A9.78,9.78,0,0,0,16.79,3"/><path d="M8.92,14.13s-.05,0-.09,0l-.09,0a.11.11,0,0,0,0,.15,2,2,0,0,1,.23.46c.08.21.08.34,0,.4s-.14,0-.24-.07a1.07,1.07,0,0,1-.14-.2,1.45,1.45,0,0,0-.15-.2s-.09,0-.15,0a.12.12,0,0,0,0,.17,1.3,1.3,0,0,1,.19.41c0,.19,0,.32,0,.38s-.12,0-.21-.05A1.68,1.68,0,0,1,8,15.18l0,0s-.08,0-.14,0-.07.11,0,.17a2.05,2.05,0,0,1,.18.41q.09.3,0,.42l-.1.1a2,2,0,0,0-.35.41.32.32,0,0,0,0,.39c.08.08.2.05.35-.1L8,16.85c.06-.06.11-.08.14-.05a.52.52,0,0,1,.08.49,1.41,1.41,0,0,1-.4.69.62.62,0,0,1-.41.19A.52.52,0,0,1,7,18a1.42,1.42,0,0,1-.32-.94.18.18,0,0,0,0-.1.11.11,0,0,0-.18,0,.2.2,0,0,0,0,.15,1.6,1.6,0,0,0,.43,1.1.77.77,0,0,0,.57.27A.79.79,0,0,0,8,18.21a1.56,1.56,0,0,0,.48-.85,1,1,0,0,0-.26-.88c-.07-.07-.17,0-.32.11l-.08.09-.07.08s-.08.07-.1.07l.42-.42h0l0,0h0a.35.35,0,0,0,.1-.21.56.56,0,0,0,0-.26.22.22,0,0,0,.21.07.29.29,0,0,0,.21-.09.36.36,0,0,0,.11-.23.56.56,0,0,0,0-.26.24.24,0,0,0,.2.07.29.29,0,0,0,.22-.09.58.58,0,0,0,.07-.57A1.74,1.74,0,0,0,8.92,14.13Z"/><path d="M10.3,13.51a.11.11,0,0,0-.17,0,.13.13,0,0,0,0,.17,3.1,3.1,0,0,1,.2,1.54.16.16,0,0,0,0,.12c.05.06.12.05.18,0a.2.2,0,0,0,.06-.15,3.76,3.76,0,0,0-.25-1.63Z"/><path d="M11.67,11.21c-.05-.06-.11-.06-.18,0a.11.11,0,0,0,0,.16,1.83,1.83,0,0,1,.28.61.53.53,0,0,1-.11.55v0h0l0,0a.2.2,0,0,1-.31,0l-.09-.13a.44.44,0,0,0-.1-.12.1.1,0,0,0-.16,0,.15.15,0,0,0,0,.19,3.66,3.66,0,0,1,.29.85,4.2,4.2,0,0,1,.1.9.1.1,0,0,0,0,.08.1.1,0,0,0,.1,0,.14.14,0,0,0,.1,0,.14.14,0,0,0,0-.11,4.52,4.52,0,0,0-.23-1.31.44.44,0,0,0,.43-.1l0,0h0A.84.84,0,0,0,12,12,1.74,1.74,0,0,0,11.67,11.21Z"/><path d="M12.59,12.77a.3.3,0,0,0-.1.25.35.35,0,0,0,.09.25.25.25,0,0,0,.17.08.21.21,0,0,0,.18-.07.28.28,0,0,0,.07-.21.36.36,0,0,0-.12-.29C12.78,12.68,12.68,12.67,12.59,12.77Z"/><path d="M13.22,7.87c-.07-.07-.13-.07-.21,0S13,8,13,8a13.4,13.4,0,0,1,1.07,1.25,1.83,1.83,0,0,1,.37.84,1,1,0,0,1-.31.86.84.84,0,0,1-.51.26.61.61,0,0,1-.51-.18,1,1,0,0,1-.28-.79.12.12,0,0,0,0-.12c-.06-.06-.12-.05-.19,0a.22.22,0,0,0,0,.11,1,1,0,0,0,.06.54,1.15,1.15,0,0,0,.28.45.88.88,0,0,0,.71.31,1.11,1.11,0,0,0,.72-.35,1.31,1.31,0,0,0,.41-1,1.74,1.74,0,0,0-.37-1A12,12,0,0,0,13.22,7.87Z"/><path d="M16.25,7.71c-.06,0-.11,0-.13.1l-.32-.27a2.19,2.19,0,0,0-.33-.24c-.17-.11-.29-.13-.35-.06s-.07.28,0,.64a1.46,1.46,0,0,0,.21.62c.06.06.12.07.18,0s.05-.11,0-.19a4.94,4.94,0,0,1-.18-.77l.63.52a2,2,0,0,1-.41.62l-.1.1h0l0,0a.25.25,0,0,1-.24.09A.71.71,0,0,1,15,8.75a2.63,2.63,0,0,1-.38-.67l-.33-.74a.18.18,0,0,0,0-.07.11.11,0,0,0-.17,0,.14.14,0,0,0,0,.17A6.66,6.66,0,0,0,14.87,9c.27.27.53.29.77,0l.13-.12a2.81,2.81,0,0,0,.46-.71c.12-.24.15-.39.08-.46A.06.06,0,0,0,16.25,7.71Z"/><path d="M17.59,6.36a.11.11,0,0,0-.17,0,.17.17,0,0,0,0,.17,3.21,3.21,0,0,1,.21,1.54.12.12,0,0,0,0,.12c.06.06.12.05.19,0A.34.34,0,0,0,17.88,8a3.75,3.75,0,0,0-.26-1.63Z"/><path d="M18.79,5.42c-.11-.12-.41-.15-.9-.11a.12.12,0,0,0-.08,0,.16.16,0,0,0,0,.11.14.14,0,0,0,0,.11.12.12,0,0,0,.1,0,1.53,1.53,0,0,1,.73,0,1.07,1.07,0,0,1,.09.62,3.75,3.75,0,0,1-.07.68.11.11,0,0,0,0,.11.15.15,0,0,0,.1,0,.14.14,0,0,0,.11,0,.2.2,0,0,0,0-.08A3.69,3.69,0,0,0,19,6.09,1,1,0,0,0,18.79,5.42Z"/></svg>