<svg id="Layer_1" data-name="Layer 1" xmlns="http://www.w3.org/2000/svg" viewBox="0 0 24 24"><defs><style>.cls-1,.cls-2{fill:none;}.cls-1{stroke:#231f20;stroke-miterlimit:10;stroke-width:0.5px;}</style></defs><path class="cls-1" d="M7.37,6.45A6.73,6.73,0,0,1,14.71,5.1L16.6,3.21a9.27,9.27,0,0,0-11,1.44,9,9,0,0,0-1.43,11L6,13.79A6.72,6.72,0,0,1,7.37,6.45Z"/><path class="cls-1" d="M17.36,16.44A6.73,6.73,0,0,1,10,17.79L8.13,19.68a9.27,9.27,0,0,0,11-1.44,9.27,9.27,0,0,0,1.44-11L18.71,9.1A6.73,6.73,0,0,1,17.36,16.44Z"/><path class="cls-1" d="M17.36,16.44A6.73,6.73,0,0,0,18.71,9.1L10,17.79A6.73,6.73,0,0,0,17.36,16.44Z"/><path class="cls-1" d="M7.37,6.45A6.72,6.72,0,0,0,6,13.79L14.71,5.1A6.73,6.73,0,0,0,7.37,6.45Z"/><path class="cls-1" d="M4.07,15.74,2.43,17.38a.28.28,0,0,0,0,.38h0L6,21.38a.28.28,0,0,0,.38,0h0l1.75-1.7"/><path class="cls-1" d="M20.57,7.24,22.3,5.51a.28.28,0,0,0,0-.38h0L18.69,1.51a.28.28,0,0,0-.4,0h0L16.6,3.21"/><path class="cls-2" d="M18.9,8.91,20.79,7"/><path class="cls-2" d="M14.9,4.91a7.22,7.22,0,0,1,2.4,1.6,7.32,7.32,0,0,1,1.6,2.4"/><path class="cls-2" d="M16.79,3,14.9,4.91"/><path class="cls-2" d="M20.79,7a10.36,10.36,0,0,0-1.71-2.29A9.78,9.78,0,0,0,16.79,3"/><path d="M7.94,16.75l-.08.09-.07.08s-.08.07-.1.07l.42-.42h0l.05-.05a.79.79,0,0,0,.2-.44,1,1,0,0,0-.08-.63,2.26,2.26,0,0,0-.36-.53l-.49-.58a.12.12,0,0,0-.2,0c-.06.06-.07.12,0,.16l.48.56a2.21,2.21,0,0,1,.36.51.76.76,0,0,1,0,.47.49.49,0,0,1-.13.28l0,0-.1.1a2,2,0,0,0-.35.41.31.31,0,0,0,0,.39c.08.08.2.05.35-.1L8,17c.06-.06.11-.08.14-.05a.52.52,0,0,1,.08.49,1.37,1.37,0,0,1-.4.69.6.6,0,0,1-.41.19.5.5,0,0,1-.39-.17,1.36,1.36,0,0,1-.33-.93.18.18,0,0,0,0-.11.11.11,0,0,0-.18,0,.21.21,0,0,0,0,.16,1.67,1.67,0,0,0,.43,1.1.81.81,0,0,0,.58.27.86.86,0,0,0,.59-.28,1.65,1.65,0,0,0,.47-.85,1,1,0,0,0-.26-.88C8.19,16.57,8.09,16.61,7.94,16.75Z"/><path d="M9.53,13.31a.17.17,0,0,0-.17,0,.27.27,0,0,0-.06.12.17.17,0,0,0,0,.13l.05,0a.69.69,0,0,0,.06.35,2.88,2.88,0,0,1,.12.47.45.45,0,0,1-.1.41l0,0h0l0,0h0a.26.26,0,0,1-.24.09A.59.59,0,0,1,9,14.83a2.69,2.69,0,0,1-.39-.68l-.33-.73a.18.18,0,0,0-.05-.07.11.11,0,0,0-.17,0,.14.14,0,0,0,0,.17,6.2,6.2,0,0,0,.84,1.54.48.48,0,0,0,.77,0l.05,0a.61.61,0,0,0,.13-.68.46.46,0,0,0,.55-.13c.14-.14.12-.3-.06-.49A1.89,1.89,0,0,0,9.53,13.31Zm.57.77a.19.19,0,0,1-.17.06.28.28,0,0,1-.17-.09.38.38,0,0,1-.1-.17.45.45,0,0,1,0-.19.7.7,0,0,1,.23.08.51.51,0,0,1,.21.14C10.15,14,10.15,14,10.1,14.08Z"/><path d="M12,11c-.05-.06-.11-.06-.17,0a.11.11,0,0,0,0,.16,1.68,1.68,0,0,1,.29.61.53.53,0,0,1-.11.55l0,0,0,0c-.13.12-.28.1-.45-.07a2,2,0,0,1-.45-.77.05.05,0,0,0,0,0c-.05-.06-.11-.05-.18,0a.1.1,0,0,0,0,.1.47.47,0,0,1,.05.21,1.75,1.75,0,0,0-.15,1,.36.36,0,0,0,.08.15.38.38,0,0,0,.29.1.49.49,0,0,0,.3-.14.46.46,0,0,0,.14-.25.49.49,0,0,0,.61-.09l0,0h0l0,0h0a.81.81,0,0,0,.16-.76A1.64,1.64,0,0,0,12,11Zm-.8,1.78a.27.27,0,0,1-.14.07.16.16,0,0,1-.13,0c-.06-.06-.07-.18-.05-.35a1.34,1.34,0,0,1,.1-.37,3.52,3.52,0,0,0,.33.45A.32.32,0,0,1,11.17,12.82Z"/><path d="M12.89,12.6a.32.32,0,0,0-.09.25.37.37,0,0,0,.09.25.3.3,0,0,0,.18.08.23.23,0,0,0,.17-.07.25.25,0,0,0,.07-.21.4.4,0,0,0-.12-.3A.19.19,0,0,0,12.89,12.6Z"/><path d="M13.51,7.69a.13.13,0,0,0-.2,0c-.06.06-.07.11,0,.16a12.23,12.23,0,0,1,1.06,1.25,1.76,1.76,0,0,1,.38.83,1,1,0,0,1-.31.86.84.84,0,0,1-.5.26.57.57,0,0,1-.51-.17,1,1,0,0,1-.29-.8.11.11,0,0,0,0-.11c-.06-.06-.12-.06-.19,0a.22.22,0,0,0-.05.11,1,1,0,0,0,.06.53,1.32,1.32,0,0,0,.28.46.94.94,0,0,0,.71.31,1.08,1.08,0,0,0,.72-.36A1.28,1.28,0,0,0,15,10a1.74,1.74,0,0,0-.37-1A13.25,13.25,0,0,0,13.51,7.69Z"/><path d="M16.74,6.55s0,0-.08,0a.19.19,0,0,0-.09,0,.11.11,0,0,0,0,.15,1.67,1.67,0,0,1,.24.46c.08.21.08.34,0,.4s-.14,0-.24-.07a.74.74,0,0,1-.14-.2,1.45,1.45,0,0,0-.15-.2s-.09,0-.15,0a.12.12,0,0,0,0,.17,1.57,1.57,0,0,1,.19.41c.06.19.05.32,0,.38s-.12,0-.21,0a1.6,1.6,0,0,1-.27-.43l0,0s-.08,0-.14,0a.13.13,0,0,0,0,.18,2,2,0,0,1,.18.4q.09.32,0,.42l0,0a.23.23,0,0,1-.24.08.41.41,0,0,1-.21-.15,2.57,2.57,0,0,1-.39-.67l-.33-.74a.18.18,0,0,0-.05-.07.1.1,0,0,0-.17,0,.13.13,0,0,0,0,.17,6.64,6.64,0,0,0,.84,1.54c.27.27.53.29.77,0l0,0h0a.42.42,0,0,0,.11-.21.74.74,0,0,0,0-.26.22.22,0,0,0,.21.07.27.27,0,0,0,.21-.09.36.36,0,0,0,.11-.23.56.56,0,0,0,0-.26.24.24,0,0,0,.2.07A.29.29,0,0,0,17,7.8c.11-.11.13-.3.07-.57A1.66,1.66,0,0,0,16.74,6.55Z"/><path d="M18.12,5.94c-.05-.06-.11-.05-.17,0a.19.19,0,0,0,0,.18,3.19,3.19,0,0,1,.21,1.54.15.15,0,0,0,0,.11.11.11,0,0,0,.18,0,.18.18,0,0,0,.06-.15A3.57,3.57,0,0,0,18.15,6Z"/><path d="M18.88,5.79a8.57,8.57,0,0,0-.56-1,7.74,7.74,0,0,0-.63-.77C17.6,4,17.52,4,17.45,4s-.05.1,0,.16a7.69,7.69,0,0,1,1.16,1.68.35.35,0,0,0,.06.09c.06.06.12.07.17,0A.17.17,0,0,0,18.88,5.79Z"/></svg>