<svg id="Layer_1" data-name="Layer 1" xmlns="http://www.w3.org/2000/svg" viewBox="0 0 24 24"><defs><style>.cls-1,.cls-2{fill:none;}.cls-1{stroke:#231f20;stroke-miterlimit:10;stroke-width:0.5px;}</style></defs><path class="cls-1" d="M7,7a6.72,6.72,0,0,1,7.34-1.35l1.9-1.89a9.26,9.26,0,0,0-11,1.44,9.26,9.26,0,0,0-1.43,11l1.82-1.86A6.75,6.75,0,0,1,7,7Z"/><path class="cls-1" d="M17,17a6.74,6.74,0,0,1-7.37,1.35L7.76,20.24a9.29,9.29,0,0,0,11-1.44,9.29,9.29,0,0,0,1.44-11L18.34,9.66A6.71,6.71,0,0,1,17,17Z"/><path class="cls-1" d="M17,17a6.71,6.71,0,0,0,1.34-7.34L9.63,18.35A6.74,6.74,0,0,0,17,17Z"/><path class="cls-1" d="M7,7a6.75,6.75,0,0,0-1.37,7.34l8.71-8.69A6.72,6.72,0,0,0,7,7Z"/><path class="cls-1" d="M3.69,16.32,2.06,17.94a.28.28,0,0,0,0,.38h0l3.57,3.62a.28.28,0,0,0,.38,0H6l1.73-1.68"/><path class="cls-1" d="M20.21,7.8l1.72-1.73a.26.26,0,0,0,0-.38h0l-3.6-3.62a.29.29,0,0,0-.4,0h0l-1.69,1.7"/><path class="cls-2" d="M18.53,9.47l1.9-1.91"/><path class="cls-2" d="M14.53,5.47a7.35,7.35,0,0,1,4,4"/><path class="cls-2" d="M16.43,3.56l-1.9,1.91"/><path class="cls-2" d="M20.43,7.56a10.68,10.68,0,0,0-1.71-2.29,9.78,9.78,0,0,0-2.29-1.71"/><path d="M7.27,14.77a.19.19,0,0,0,.08-.17.34.34,0,0,0-.09-.27.14.14,0,0,0-.24,0,.25.25,0,0,0-.07.21.32.32,0,0,0,.08.21A.16.16,0,0,0,7.27,14.77Z"/><path d="M7.19,14.92a.32.32,0,0,0-.08.21.33.33,0,0,0,.08.21.17.17,0,0,0,.25,0,.25.25,0,0,0,.08-.18.31.31,0,0,0-.09-.26A.15.15,0,0,0,7.19,14.92Z"/><path d="M8.68,14.8s0,0-.09,0a.19.19,0,0,0-.09.05.11.11,0,0,0,0,.16,2.42,2.42,0,0,1,.25.51c.08.23.08.38,0,.45s-.15,0-.25-.08a1.33,1.33,0,0,1-.15-.22,1,1,0,0,0-.15-.22s-.1,0-.16,0a.13.13,0,0,0,0,.18,1.63,1.63,0,0,1,.2.46q.09.32,0,.42c-.06.06-.14,0-.23-.06A1.68,1.68,0,0,1,7.7,16a0,0,0,0,0,0,0s-.09,0-.14,0a.15.15,0,0,0,0,.19,2.08,2.08,0,0,1,.19.45c.07.23.06.38,0,.47h0c-.12.13-.3.1-.48-.11a2.58,2.58,0,0,1-.29-.44.08.08,0,0,0-.09-.05.16.16,0,0,0-.11.05.15.15,0,0,0,0,.19,2.73,2.73,0,0,1,.38.93,2.6,2.6,0,0,1,0,1,.11.11,0,0,0,0,.11.16.16,0,0,0,.11.05.16.16,0,0,0,.11-.05.12.12,0,0,0,0-.08,3.05,3.05,0,0,0,0-1.25.36.36,0,0,0,.28.07.48.48,0,0,0,.27-.16h0l0,0,0,0a.53.53,0,0,0,.1-.24.52.52,0,0,0,0-.28.29.29,0,0,0,.22.08.38.38,0,0,0,.23-.11.48.48,0,0,0,.11-.26.53.53,0,0,0,0-.28.25.25,0,0,0,.22.08.3.3,0,0,0,.22-.1A.68.68,0,0,0,9,15.54,2.17,2.17,0,0,0,8.68,14.8Z"/><path d="M7.52,15a.17.17,0,0,0,.25,0,.21.21,0,0,0,.08-.17.36.36,0,0,0-.1-.27.15.15,0,0,0-.24,0,.3.3,0,0,0,0,.34A.28.28,0,0,0,7.52,15Z"/><path d="M11.32,12.14A.19.19,0,0,0,11.4,12a.31.31,0,0,0-.09-.26.14.14,0,0,0-.22,0,.25.25,0,0,0-.1.22.31.31,0,0,0,.08.22A.17.17,0,0,0,11.32,12.14Z"/><path d="M10.75,12.46a.16.16,0,0,0,.24,0,.19.19,0,0,0,.08-.17A.32.32,0,0,0,11,12a.14.14,0,0,0-.24,0,.28.28,0,0,0,0,.34A.14.14,0,0,0,10.75,12.46Z"/><path d="M12.65,9.4a.22.22,0,0,0,.18-.08.3.3,0,0,0,.08-.23.48.48,0,0,0-.12-.33.19.19,0,0,0-.31,0,.37.37,0,0,0-.11.27.44.44,0,0,0,.11.28A.32.32,0,0,0,12.65,9.4Z"/><path d="M14.25,9.83c-.06,0-.11,0-.14.12l-.33-.3a3.89,3.89,0,0,0-.34-.27c-.18-.11-.3-.14-.37-.07s-.07.32,0,.72a1.72,1.72,0,0,0,.23.69c.06.06.12.07.18,0a.19.19,0,0,0,0-.22,5.44,5.44,0,0,1-.19-.85l.66.57a2.26,2.26,0,0,1-.42.69l-.11.11h0l-.06.06c-.13.14-.27.13-.43,0a1.78,1.78,0,0,1-.3-.5.09.09,0,0,0,0-.06c0-.06-.11-.06-.17,0a.17.17,0,0,0,0,.19,1.79,1.79,0,0,1,0,1.4,4.36,4.36,0,0,1-.77,1.22l-.18.21c-.46.48-.82.57-1.06.27a.64.64,0,0,1-.12-.36.25.25,0,0,0,0-.08.9.9,0,0,0,0-.37.09.09,0,0,0-.15,0c-.09.09-.11.29-.05.6a.9.9,0,0,0,.2.46q.57.62,1.41-.27l.23-.26a3.34,3.34,0,0,0,.94-2.25.69.69,0,0,0,.39.21.43.43,0,0,0,.4-.16l0,0h0l.13-.13a2.94,2.94,0,0,0,.48-.78c.13-.27.16-.44.09-.52Z"/><path d="M14.46,8.58a8.38,8.38,0,0,0-.66-.85c-.09-.11-.17-.12-.25-.05s-.05.11,0,.18a8.32,8.32,0,0,1,1.22,1.86l.06.1c.07.07.13.1.19,0a.15.15,0,0,0,0-.19A8.45,8.45,0,0,0,14.46,8.58Z"/><path d="M15.31,7.85a.12.12,0,0,0-.08,0,.17.17,0,0,0-.06.12.15.15,0,0,0,.05.13.09.09,0,0,0,.1,0c.45,0,.71,0,.76,0s.11.31.1.69a4.56,4.56,0,0,1-.07.75.11.11,0,0,0,0,.11.14.14,0,0,0,.11.05.15.15,0,0,0,.11,0,.36.36,0,0,0,0-.09,5.38,5.38,0,0,0,.06-1,1.22,1.22,0,0,0-.2-.73C16.14,7.84,15.82,7.8,15.31,7.85Z"/><path d="M19.13,7.4a.18.18,0,0,0-.25,0,.3.3,0,0,0-.08.18.39.39,0,0,0,.1.27.14.14,0,0,0,.23,0,.26.26,0,0,0,.08-.21A.29.29,0,0,0,19.13,7.4Z"/><path d="M18.63,7.14a.16.16,0,0,0-.24,0,.19.19,0,0,0-.08.17.32.32,0,0,0,.09.27.15.15,0,0,0,.24,0,.29.29,0,0,0,.05-.34A.35.35,0,0,0,18.63,7.14Z"/><path d="M17.56,5.28c0-.07-.11-.07-.18,0a.13.13,0,0,0,0,.18,1.72,1.72,0,0,1,.3.67.64.64,0,0,1-.11.61.25.25,0,0,1-.37,0l-.1-.15L17,6.5a.11.11,0,0,0-.17,0,.17.17,0,0,0,0,.21,3.83,3.83,0,0,1,.31.94,5.18,5.18,0,0,1,.11,1,.14.14,0,0,0,0,.09.12.12,0,0,0,.1,0,.2.2,0,0,0,.11-.06.17.17,0,0,0,.05-.12,5,5,0,0,0-.25-1.45A.57.57,0,0,0,17.76,7a1,1,0,0,0,.17-.83A1.87,1.87,0,0,0,17.56,5.28Z"/><path d="M19,7.23A.28.28,0,0,0,19,7,.32.32,0,0,0,19,6.8a.16.16,0,0,0-.24,0,.2.2,0,0,0-.08.17.32.32,0,0,0,.09.27A.15.15,0,0,0,19,7.23Z"/></svg>