<svg id="Layer_1" data-name="Layer 1" xmlns="http://www.w3.org/2000/svg" viewBox="0 0 24 24"><defs><style>.cls-1,.cls-2,.cls-3{fill:none;}.cls-1,.cls-2{stroke:#231f20;stroke-miterlimit:10;stroke-width:0.5px;}.cls-2{stroke-dasharray:10.67;}</style></defs><path class="cls-1" d="M7.37,6.45A6.73,6.73,0,0,1,14.71,5.1L16.6,3.21a9.27,9.27,0,0,0-11,1.44,9,9,0,0,0-1.43,11L6,13.79A6.72,6.72,0,0,1,7.37,6.45Z"/><path class="cls-1" d="M17.36,16.44A6.73,6.73,0,0,1,10,17.79L8.13,19.68a9.27,9.27,0,0,0,11-1.44,9.27,9.27,0,0,0,1.44-11L18.71,9.1A6.73,6.73,0,0,1,17.36,16.44Z"/><path class="cls-1" d="M18.71,9.1,10,17.79"/><path class="cls-1" d="M6,13.79,14.71,5.1"/><path class="cls-1" d="M4.07,15.74,2.43,17.38a.28.28,0,0,0,0,.38h0L6,21.38a.28.28,0,0,0,.38,0h0l1.75-1.7"/><path class="cls-2" d="M20.7,7.11l1.63-1.63a.28.28,0,0,0,0-.38L18.72,1.48a.28.28,0,0,0-.4,0h0l-1.69,1.7"/><path class="cls-3" d="M18.9,8.91l1.67-1.67"/><path class="cls-3" d="M14.9,4.91a7.22,7.22,0,0,1,2.4,1.6,7.32,7.32,0,0,1,1.6,2.4"/><path class="cls-3" d="M16.79,3,14.9,4.91"/><path class="cls-3" d="M20.79,7a10.36,10.36,0,0,0-1.71-2.29A9.78,9.78,0,0,0,16.79,3"/><path d="M10.42,11.33a.23.23,0,0,0,.08-.16.33.33,0,0,0-.1-.24.14.14,0,0,0-.23,0,.21.21,0,0,0-.06.19.32.32,0,0,0,.07.19A.17.17,0,0,0,10.42,11.33Z"/><path d="M10.34,11.46a.26.26,0,0,0-.07.19.26.26,0,0,0,.08.19.15.15,0,0,0,.23,0,.17.17,0,0,0,.08-.16.28.28,0,0,0-.09-.24A.15.15,0,0,0,10.34,11.46Z"/><path d="M10.66,11.53a.17.17,0,0,0,.24,0A.22.22,0,0,0,11,11.4a.32.32,0,0,0-.09-.25.15.15,0,0,0-.23,0,.25.25,0,0,0,0,.31Z"/><path d="M11.76,11.34s0,0-.08,0a.19.19,0,0,0-.09,0,.09.09,0,0,0,0,.14,2.84,2.84,0,0,1,.24.46c.07.21.08.34,0,.41s-.14,0-.24-.07a1.45,1.45,0,0,1-.15-.2.74.74,0,0,0-.14-.2.1.1,0,0,0-.15,0,.12.12,0,0,0,0,.17,1.31,1.31,0,0,1,.2.41c.06.19.06.32,0,.38s-.13,0-.22-.05a1.6,1.6,0,0,1-.27-.43l0,0s-.08,0-.14,0a.13.13,0,0,0,0,.18,1.83,1.83,0,0,1,.18.41c.07.2.06.34,0,.42h0c-.12.11-.26.08-.45-.11a1.8,1.8,0,0,1-.29-.39.1.1,0,0,0-.09,0,.19.19,0,0,0-.1,0,.12.12,0,0,0,0,.17,2.36,2.36,0,0,1,.37.83,1.85,1.85,0,0,1,0,.88.12.12,0,0,0,0,.1.15.15,0,0,0,.11,0,.14.14,0,0,0,.11,0,.16.16,0,0,0,0-.07,2.35,2.35,0,0,0,0-1.13.36.36,0,0,0,.27.06.57.57,0,0,0,.25-.14h0l0,0h0a.41.41,0,0,0,.1-.22.46.46,0,0,0,0-.26.24.24,0,0,0,.21.07.4.4,0,0,0,.22-.09.45.45,0,0,0,.11-.24.52.52,0,0,0,0-.25.28.28,0,0,0,.21.07.35.35,0,0,0,.21-.1q.17-.16.06-.57A1.62,1.62,0,0,0,11.76,11.34Z"/><path d="M13.07,10A.11.11,0,0,0,13,10a.17.17,0,0,0-.05.12.15.15,0,0,0,0,.11.18.18,0,0,0,.11,0c.43,0,.67,0,.72,0s.11.28.11.62a3.75,3.75,0,0,1-.07.68.1.1,0,0,0,0,.1.13.13,0,0,0,.1,0,.14.14,0,0,0,.11,0,.2.2,0,0,0,0-.08,3.68,3.68,0,0,0,0-.87A1.06,1.06,0,0,0,14,10.1C13.86,10,13.56,10,13.07,10Z"/><path d="M14.89,9l0,0a.11.11,0,0,0-.17,0,.14.14,0,0,0,0,.17,3.19,3.19,0,0,1,.23,1.54.1.1,0,0,0,0,.11c.06.06.12.06.19,0a.21.21,0,0,0,.05-.15A3.73,3.73,0,0,0,14.89,9Z"/></svg>