<svg id="Layer_1" data-name="Layer 1" xmlns="http://www.w3.org/2000/svg" viewBox="0 0 27.97 20.56"><defs><style>.cls-1,.cls-2,.cls-3{fill:none;}.cls-1,.cls-2{stroke:#231f20;stroke-miterlimit:10;stroke-width:0.5px;}.cls-2{stroke-dasharray:10.67;}</style></defs><path class="cls-1" d="M7.37,6.45A6.73,6.73,0,0,1,14.71,5.1L16.6,3.21a9.27,9.27,0,0,0-11,1.44,9,9,0,0,0-1.43,11L6,13.79A6.72,6.72,0,0,1,7.37,6.45Z" transform="translate(-2.1 -1.15)"/><path class="cls-1" d="M17.36,16.44A6.73,6.73,0,0,1,10,17.79L8.13,19.68a9.27,9.27,0,0,0,11-1.44,9.27,9.27,0,0,0,1.44-11L18.71,9.1A6.73,6.73,0,0,1,17.36,16.44Z" transform="translate(-2.1 -1.15)"/><path class="cls-1" d="M17.36,16.44" transform="translate(-2.1 -1.15)"/><path class="cls-1" d="M18.71,9.1,10,17.79" transform="translate(-2.1 -1.15)"/><path class="cls-1" d="M7.37,6.45" transform="translate(-2.1 -1.15)"/><path class="cls-1" d="M6,13.79,14.71,5.1" transform="translate(-2.1 -1.15)"/><path class="cls-1" d="M4.07,15.74,2.43,17.38a.28.28,0,0,0,0,.38h0L6,21.38a.28.28,0,0,0,.38,0h0l1.75-1.7" transform="translate(-2.1 -1.15)"/><path class="cls-2" d="M20.7,7.11l1.63-1.63a.28.28,0,0,0,0-.38L18.72,1.48a.28.28,0,0,0-.4,0h0l-1.69,1.7" transform="translate(-2.1 -1.15)"/><path class="cls-3" d="M18.9,8.91l1.67-1.67" transform="translate(-2.1 -1.15)"/><path class="cls-3" d="M14.9,4.91a7.22,7.22,0,0,1,2.4,1.6,7.32,7.32,0,0,1,1.6,2.4" transform="translate(-2.1 -1.15)"/><path class="cls-3" d="M16.79,3,14.9,4.91" transform="translate(-2.1 -1.15)"/><path class="cls-3" d="M20.79,7a10.36,10.36,0,0,0-1.71-2.29A9.78,9.78,0,0,0,16.79,3" transform="translate(-2.1 -1.15)"/><path d="M9.27,12.79A.22.22,0,0,0,9.2,13a.29.29,0,0,0,.07.19.17.17,0,0,0,.24,0A.2.2,0,0,0,9.58,13a.28.28,0,0,0-.09-.24A.13.13,0,0,0,9.27,12.79Z" transform="translate(-2.1 -1.15)"/><path d="M9.35,12.65a.18.18,0,0,0,.07-.15.29.29,0,0,0-.09-.25.15.15,0,0,0-.23,0,.26.26,0,0,0-.07.19.26.26,0,0,0,.08.19A.16.16,0,0,0,9.35,12.65Z" transform="translate(-2.1 -1.15)"/><path d="M9.59,12.86a.16.16,0,0,0,.23,0,.18.18,0,0,0,.08-.16.33.33,0,0,0-.1-.24.14.14,0,0,0-.23,0,.25.25,0,0,0,0,.3A.28.28,0,0,0,9.59,12.86Z" transform="translate(-2.1 -1.15)"/><path d="M10.69,12.67s0,0-.09,0a.14.14,0,0,0-.08,0,.09.09,0,0,0,0,.14,1.83,1.83,0,0,1,.24.46c.08.21.09.34,0,.4s-.13,0-.23-.06a1.45,1.45,0,0,1-.15-.2.77.77,0,0,0-.15-.2c0-.05-.09,0-.15,0a.11.11,0,0,0,0,.16,1.42,1.42,0,0,1,.19.41q.09.3,0,.39c-.05,0-.12,0-.21-.05a1.52,1.52,0,0,1-.28-.43l0,0s-.08,0-.13,0a.14.14,0,0,0,0,.18,1.6,1.6,0,0,1,.19.4c.06.2.06.35,0,.42l0,0c-.11.11-.26.08-.44-.11a1.81,1.81,0,0,1-.3-.39.06.06,0,0,0-.08,0,.16.16,0,0,0-.11,0,.13.13,0,0,0,0,.17,2.33,2.33,0,0,1,.38.83,1.85,1.85,0,0,1,0,.88.1.1,0,0,0,0,.1.14.14,0,0,0,.11,0,.12.12,0,0,0,.1,0,.09.09,0,0,0,0-.07,2.27,2.27,0,0,0,0-1.14.34.34,0,0,0,.27.06A.42.42,0,0,0,9.91,15h0l0,0h0a.35.35,0,0,0,.1-.21.55.55,0,0,0,0-.26.25.25,0,0,0,.21.07.3.3,0,0,0,.21-.1.34.34,0,0,0,.11-.23.46.46,0,0,0,0-.26.24.24,0,0,0,.21.07.29.29,0,0,0,.22-.09q.16-.16.06-.57A1.56,1.56,0,0,0,10.69,12.67Z" transform="translate(-2.1 -1.15)"/><path d="M13.2,10.24a.18.18,0,0,0,.07-.16.28.28,0,0,0-.09-.24.14.14,0,0,0-.21,0,.22.22,0,0,0-.09.19.29.29,0,0,0,.08.21A.17.17,0,0,0,13.2,10.24Z" transform="translate(-2.1 -1.15)"/><path d="M12.65,10.54a.16.16,0,0,0,.23,0,.17.17,0,0,0,.08-.16.28.28,0,0,0-.09-.24.15.15,0,0,0-.23,0,.24.24,0,0,0,0,.3A.35.35,0,0,0,12.65,10.54Z" transform="translate(-2.1 -1.15)"/><path d="M16.17,8.68h0a.81.81,0,0,0,.16-.76A1.75,1.75,0,0,0,16,7.13c-.05-.06-.11,0-.18,0a.12.12,0,0,0,0,.17,1.55,1.55,0,0,1,.29.61.54.54,0,0,1-.1.55h0v0a.19.19,0,0,1-.3,0,2.6,2.6,0,0,1-.28-.4l0,0s-.09,0-.15,0a.13.13,0,0,0,0,.17.84.84,0,0,1,.2.44.52.52,0,0,1-.12.47l0,0h0l-.06.06c-.12.12-.26.11-.42,0a1.58,1.58,0,0,1-.28-.45l0,0c0-.05-.1-.05-.16,0a.13.13,0,0,0,0,.17,1.5,1.5,0,0,1,0,1.26,4.31,4.31,0,0,1-.72,1.12l-.18.19c-.44.44-.78.52-1,.25a.54.54,0,0,1-.12-.32.17.17,0,0,0,0-.07c0-.2,0-.32,0-.34s-.09,0-.15,0-.09.26,0,.54a.82.82,0,0,0,.19.42c.36.37.82.28,1.35-.26a1.6,1.6,0,0,0,.21-.23,2.89,2.89,0,0,0,.88-2.05.69.69,0,0,0,.38.19.48.48,0,0,0,.39-.15l.06-.06h0a.7.7,0,0,0,.14-.3,1.37,1.37,0,0,0,0-.34.32.32,0,0,0,.27.08.5.5,0,0,0,.26-.13Z" transform="translate(-2.1 -1.15)"/><path d="M16.51,9.39a.19.19,0,0,0-.3,0,.29.29,0,0,0-.09.25.33.33,0,0,0,.1.25.27.27,0,0,0,.17.08.23.23,0,0,0,.17-.07.26.26,0,0,0,.07-.21A.42.42,0,0,0,16.51,9.39Z" transform="translate(-2.1 -1.15)"/><path d="M15.38,6.87a.17.17,0,0,0,.24,0,.22.22,0,0,0,.07-.17.28.28,0,0,0-.09-.24.15.15,0,0,0-.23,0,.25.25,0,0,0,0,.31A.22.22,0,0,0,15.38,6.87Z" transform="translate(-2.1 -1.15)"/><path d="M15.06,6.79A.26.26,0,0,0,15,7a.24.24,0,0,0,.08.19.16.16,0,0,0,.23,0A.23.23,0,0,0,15.38,7a.32.32,0,0,0-.09-.23A.15.15,0,0,0,15.06,6.79Z" transform="translate(-2.1 -1.15)"/><path d="M15.14,6.66a.21.21,0,0,0,.08-.16.33.33,0,0,0-.1-.24.14.14,0,0,0-.23,0,.25.25,0,0,0-.07.19.33.33,0,0,0,.08.19A.17.17,0,0,0,15.14,6.66Z" transform="translate(-2.1 -1.15)"/><text x="-2.1" y="-1.15"/></svg>