<svg xmlns="http://www.w3.org/2000/svg" width="74" height="74" viewBox="0 0 74 74"><defs><path id="a" d="M0 0h74v74H0z"></path><mask id="b" width="74" height="74" x="0" y="0" fill="#fff"></mask></defs><g fill="none" fill-rule="evenodd"><use stroke="#A3A3A3" stroke-dasharray="2,3" mask="url(#b)"></use><path fill="#A3A3A3" fill-rule="nonzero" d="M6 10h5.457a4.75 4.75 0 0 1 4.498 3.224l.065.208.993 4.495h44.693c2.302 0 4.016 2.125 3.536 4.338l-4.327 24.984c-.779 3.924-4.034 6.83-7.891 7.223a5.415 5.415 0 1 1-4.396.044H34.172a5.416 5.416 0 1 1-4.34-.07c-3.798-.471-6.96-3.313-7.704-7.07L15.373 19.08l-.044.014-1.134-5.135a2.85 2.85 0 0 0-2.558-2.053l-.18-.006H6V10h5.457zm25.924 45.833a3.61 3.61 0 1 0 0 7.22 3.61 3.61 0 0 0 0-7.22zm18.952 0a3.61 3.61 0 1 0 0 7.22 3.61 3.61 0 0 0 0-7.22zm10.83-36.1h-44.32l6.506 27.258c.648 3.27 3.572 5.67 6.968 5.72h21.363c3.349-.052 6.258-2.47 6.918-5.791l4.354-25.14a1.805 1.805 0 0 0-1.789-2.047zM39.161 37.897c4 0 7.049.333 9.146 1 .528.177.914.4.97.858l.007.12v3.908a3.911 3.911 0 0 1-3.906 3.908 3.912 3.912 0 0 1-3.901-3.707l-.005-.201v-3.93h-2.31c-1.44 0-3.6.333-6.48 1a.976.976 0 0 1-.977-.978c0-.541.436-.978.977-.978 2.88-.667 5.04-1 6.48-1zm4.264 1.955v3.93c0 1.08.877 1.955 1.953 1.955a1.956 1.956 0 0 0 1.947-1.808l.006-.146v-2.93l-3.906-1zM33.373 26.287a.978.978 0 0 1 .08 1.29l-.08.092-1.263 1.263 1.263 1.263a.978.978 0 0 1-1.281 1.47l-.1-.088-1.263-1.263-1.263 1.263a.975.975 0 0 1-1.38 0 .978.978 0 0 1-.082-1.29l.081-.092 1.263-1.263-1.263-1.263a.978.978 0 0 1 1.29-1.464l.091.082 1.263 1.263 1.262-1.263a.976.976 0 0 1 1.382 0zm19.53 0a.978.978 0 0 1 .082 1.29l-.081.092-1.263 1.263 1.263 1.263a.978.978 0 0 1-1.281 1.47l-.1-.088-1.263-1.263-1.262 1.263a.975.975 0 0 1-1.382 0 .978.978 0 0 1-.08-1.29l.08-.092 1.263-1.263-1.263-1.263a.978.978 0 0 1 1.29-1.464l.092.082 1.262 1.263 1.263-1.263a.976.976 0 0 1 1.38 0z"></path></g></svg>
