<?xml version="1.0" encoding="UTF-8"?>
<svg width="145px" height="160px" viewBox="0 0 145 160" version="1.1" xmlns="http://www.w3.org/2000/svg" xmlns:xlink="http://www.w3.org/1999/xlink">
    <!-- Generator: Sketch 54.1 (76490) - https://sketchapp.com -->
    <title>ic_board</title>
    <desc>Created with Sketch.</desc>
    <g id="Page-1" stroke="none" stroke-width="1" fill="none" fill-rule="evenodd">
        <g id="ic_board" fill="#D2D2D2">
            <path d="M140.898,8.727 L94.551,8.727 L94.551,3.926 C94.551,2.199 93.125,0.773 91.398,0.773 L53.148,0.773 C51.426,0.773 50,2.199 50,3.926 L50,8.727 L3.648,8.727 C1.926,8.727 0.5,10.148 0.5,11.875 L0.5,156.699 C0.5,158.426 1.926,159.852 3.648,159.852 L140.977,159.852 C142.699,159.852 144.125,158.426 144.125,156.699 L144.125,11.875 C144.051,10.148 142.625,8.727 140.898,8.727 Z M56.301,7.074 L88.176,7.074 L88.176,16.602 L56.301,16.602 L56.301,7.074 Z M137.75,153.477 L6.727,153.477 L6.727,15.023 L49.926,15.023 L49.926,19.824 C49.926,21.551 51.352,22.977 53.074,22.977 L91.324,22.977 C93.051,22.977 94.477,21.551 94.477,19.824 L94.477,15.023 L137.676,15.023 L137.75,153.477 Z" id="Fill-3"></path>
            <path d="M28.176,40.227 C20.977,40.227 15.051,46.148 15.051,53.352 C15.051,60.551 20.977,66.477 28.176,66.477 C35.375,66.477 41.301,60.551 41.301,53.352 C41.301,46.148 35.449,40.227 28.176,40.227 Z M28.176,58.898 C25.102,58.898 22.625,56.426 22.625,53.352 C22.625,50.273 25.102,47.801 28.176,47.801 C31.25,47.801 33.727,50.273 33.727,53.352 C33.727,56.426 31.25,58.898 28.176,58.898 Z" id="Fill-4"></path>
            <path d="M49.852,50.051 C48.125,50.051 46.699,51.477 46.699,53.199 C46.699,54.926 48.125,56.352 49.852,56.352 L124.023,56.352 C125.75,56.352 127.176,54.926 127.176,53.199 C127.176,51.477 125.75,50.051 124.023,50.051 L49.852,50.051 Z" id="Fill-5"></path>
            <path d="M28.176,73.602 C20.977,73.602 15.051,79.523 15.051,86.727 C15.051,93.926 20.977,99.852 28.176,99.852 C35.375,99.852 41.301,93.926 41.301,86.727 C41.301,79.523 35.449,73.602 28.176,73.602 Z M28.176,92.273 C25.102,92.273 22.625,89.801 22.625,86.727 C22.625,83.648 25.102,81.176 28.176,81.176 C31.25,81.176 33.727,83.648 33.727,86.727 C33.727,89.801 31.25,92.273 28.176,92.273 Z" id="Fill-6"></path>
            <path d="M124.023,83.426 L49.852,83.426 C48.125,83.426 46.699,84.852 46.699,86.574 C46.699,88.301 48.125,89.727 49.852,89.727 L124.023,89.727 C125.75,89.727 127.176,88.301 127.176,86.574 C127.176,84.852 125.75,83.426 124.023,83.426 Z" id="Fill-7"></path>
            <path d="M28.176,107.051 C20.977,107.051 15.051,112.977 15.051,120.176 C15.051,127.375 20.977,133.301 28.176,133.301 C35.375,133.301 41.301,127.375 41.301,120.176 C41.301,112.898 35.449,107.051 28.176,107.051 Z M28.176,125.648 C25.102,125.648 22.625,123.176 22.625,120.102 C22.625,117.023 25.102,114.551 28.176,114.551 C31.25,114.551 33.727,117.023 33.727,120.102 C33.727,123.176 31.25,125.648 28.176,125.648 Z" id="Fill-8"></path>
            <path d="M124.023,116.801 L123.199,116.801 C121.477,116.801 120.051,118.227 120.051,119.949 C120.051,121.676 121.477,123.102 123.199,123.102 L124.023,123.102 C125.75,123.102 127.176,121.676 127.176,119.949 C127.176,118.227 125.75,116.801 124.023,116.801 Z" id="Fill-9"></path>
            <path d="M111.648,116.801 L49.852,116.801 C48.125,116.801 46.699,118.227 46.699,119.949 C46.699,121.676 48.125,123.102 49.852,123.102 L111.648,123.102 C113.375,123.102 114.801,121.676 114.801,119.949 C114.801,118.227 113.375,116.801 111.648,116.801 Z" id="Fill-10"></path>
        </g>
    </g>
</svg>