<svg width="120" height="120" viewBox="0 0 120 120" fill="none" xmlns="http://www.w3.org/2000/svg"><path fill-rule="evenodd" clip-rule="evenodd" d="M96.75 60.5C96.75 78.311 82.311 92.75 64.5 92.75C56.25 92.75 56.25 92.75 56.25 92.75V28.25H64.5C82.311 28.25 96.75 42.689 96.75 60.5Z" fill="#D2D3D6"></path><path d="M95.8733 68C92.4926 82.1941 79.7289 92.75 64.5 92.75H56.25V68H95.8733Z" fill="#B5B8BD"></path><path fill-rule="evenodd" clip-rule="evenodd" d="M88.5 60.5C88.5 78.311 74.061 92.75 56.25 92.75C38.439 92.75 24 78.311 24 60.5C24 42.689 38.439 28.25 56.25 28.25C74.061 28.25 88.5 42.689 88.5 60.5Z" fill="#EDEEF0"></path><path fill-rule="evenodd" clip-rule="evenodd" d="M80.25 60.5C80.25 73.7547 69.5047 84.5 56.25 84.5C42.9952 84.5 32.25 73.7547 32.25 60.5C32.25 47.2452 42.9952 36.5 56.25 36.5C69.5047 36.5 80.25 47.2452 80.25 60.5Z" fill="white"></path><path fill-rule="evenodd" clip-rule="evenodd" d="M45.75 60.5C45.75 61.3288 45.0788 62 44.25 62C43.4212 62 42.75 61.3288 42.75 60.5C42.75 59.6712 43.4212 59 44.25 59C45.0788 59 45.75 59.6712 45.75 60.5Z" fill="#B5B8BD"></path><path fill-rule="evenodd" clip-rule="evenodd" d="M69.75 60.5C69.75 61.3288 69.0788 62 68.25 62C67.4212 62 66.75 61.3288 66.75 60.5C66.75 59.6712 67.4212 59 68.25 59C69.0788 59 69.75 59.6712 69.75 60.5Z" fill="#B5B8BD"></path><path fill-rule="evenodd" clip-rule="evenodd" d="M53.25 67.0834L52.7197 66.553C52.4268 66.8459 52.4268 67.3208 52.7197 67.6137C53.0119 67.906 53.4854 67.9066 53.7784 67.6156L53.7798 67.6142L53.7804 67.6137C53.7832 67.611 53.7887 67.6057 53.7968 67.5981C53.813 67.5829 53.8397 67.5585 53.876 67.5271C53.9487 67.464 54.0592 67.3735 54.2016 67.2718C54.4892 67.0664 54.8909 66.827 55.3622 66.6699C55.8303 66.5138 56.352 66.4436 56.8998 66.5532C57.442 66.6616 58.0625 66.9565 58.7197 67.6137C59.0126 67.9066 59.4874 67.9066 59.7803 67.6137C60.0732 67.3208 60.0732 66.8459 59.7803 66.553C58.9375 65.7102 58.058 65.2551 57.194 65.0823C56.3355 64.9106 55.5447 65.0279 54.8878 65.2469C54.2341 65.4648 53.6983 65.7879 53.3297 66.0512C53.1439 66.1839 52.9966 66.3043 52.8936 66.3936C52.842 66.4383 52.8012 66.4754 52.7721 66.5027C52.7575 66.5164 52.7457 66.5276 52.737 66.536L52.7261 66.5467L52.7223 66.5504L52.7208 66.5519L52.7202 66.5525C52.7199 66.5528 52.7197 66.553 53.25 67.0834Z" fill="#B5B8BD"></path><path fill-rule="evenodd" clip-rule="evenodd" d="M43.3493 35.9053C43.66 36.4434 43.4756 37.1315 42.9376 37.4421C38.89 39.779 35.529 43.14 33.1921 47.1875C32.8815 47.7256 32.1934 47.91 31.6553 47.5993C31.1173 47.2887 30.9329 46.6006 31.2436 46.0625C33.7779 41.673 37.423 38.0279 41.8126 35.4936C42.3506 35.1829 43.0387 35.3673 43.3493 35.9053Z" fill="white"></path><path fill-rule="evenodd" clip-rule="evenodd" d="M30.9817 48.9746C31.5569 49.2093 31.833 49.8659 31.5983 50.4412L31.5587 50.5387C31.3263 51.1149 30.6707 51.3935 30.0945 51.161C29.5183 50.9286 29.2397 50.273 29.4721 49.6969C29.4864 49.6616 29.5007 49.6264 29.515 49.5912C29.7497 49.0159 30.4064 48.7398 30.9817 48.9746Z" fill="white"></path></svg>
